<?xml version="1.0" encoding="UTF-8" standalone="no"?>
<!-- Generator: Adobe Illustrator 16.0.0, SVG Export Plug-In . SVG Version: 6.00 Build 0)  -->

<svg
   version="1.1"
   id="Capa_1"
   x="0px"
   y="0px"
   width="64"
   height="64"
   viewBox="0 0 64.000002 64.000002"
   xml:space="preserve"
   sodipodi:docname="apple-fruit-svgrepo-com(1).svg"
   inkscape:version="1.1.2 (08b2f3d93c, 2022-04-05)"
   xmlns:inkscape="http://www.inkscape.org/namespaces/inkscape"
   xmlns:sodipodi="http://sodipodi.sourceforge.net/DTD/sodipodi-0.dtd"
   xmlns="http://www.w3.org/2000/svg"
   xmlns:svg="http://www.w3.org/2000/svg"><defs
   id="defs41" /><sodipodi:namedview
   id="namedview39"
   pagecolor="#ffffff"
   bordercolor="#999999"
   borderopacity="1"
   inkscape:pageshadow="0"
   inkscape:pageopacity="0"
   inkscape:pagecheckerboard="0"
   showgrid="false"
   inkscape:zoom="4.0830055"
   inkscape:cx="116.70325"
   inkscape:cy="69.556606"
   inkscape:window-width="1920"
   inkscape:window-height="949"
   inkscape:window-x="0"
   inkscape:window-y="27"
   inkscape:window-maximized="1"
   inkscape:current-layer="g6" />
<g
   id="g6">
	<path
   d="M 54.100405,15.452569 C 50.399698,8.8833834 42.215582,6.9034504 35.578459,9.3106223 35.555518,7.4854006 35.366257,5.6611091 35.029691,3.8383678 34.957549,3.4486441 34.566952,3.216422 34.21137,3.1987496 32.007548,3.0874443 29.760561,3.0440383 27.628278,3.7050494 26.931604,3.9208392 26.641524,4.7043172 26.974768,5.3547869 27.77528,6.9164722 28.776222,8.518153 29.972462,9.9049743 23.584064,10.053485 13.847221,7.6131383 10.014605,13.884063 5.4173981,21.40601 7.1319181,30.361905 9.0556211,38.419296 10.835039,45.871794 13.575554,55.639071 19.73062,60.606265 c 4.849556,3.91336 10.55124,-0.331745 12.381671,-5.446831 2.729347,5.042846 7.395074,8.712202 12.752949,4.528485 C 50.613409,55.19912 53.101878,46.20943 54.989057,39.429105 57.222461,31.403649 58.352897,23.0018 54.100405,15.452569 Z M 29.570998,5.5194196 c 1.307322,-0.2902 2.630641,-0.4415009 3.971468,-0.5314133 0.437686,2.0943388 0.452175,4.3985765 0.166924,6.5787967 C 33.06222,10.769994 32.453082,9.7056168 31.945971,9.0368546 31.095049,7.91574 30.284878,6.7440884 29.570998,5.5194196 Z M 52.261522,37.36174 c -1.416592,5.615185 -3.362331,11.189753 -6.294824,16.164699 -4.106396,6.966351 -8.77484,4.836667 -13.363294,-0.408946 -0.115609,-0.132078 -0.244198,-0.189746 -0.37158,-0.211759 -0.385767,-0.466615 -1.092704,-0.630937 -1.599816,-0.08867 -1.985281,2.123173 -3.094587,5.302972 -6.021345,6.287667 -2.727234,0.917727 -5.271847,-2.972999 -6.47835,-4.825815 C 14.51854,48.728531 12.560124,41.895809 11.046637,35.466142 9.5120211,28.947803 8.2659761,20.451392 12.694146,14.774819 c 2.12202,-2.720315 6.322594,-2.24409 9.315457,-2.17619 3.183031,0.07224 6.277316,-0.356549 9.317269,-1.30404 0.552389,0.491108 1.136473,0.934159 1.759194,1.298149 -1.691579,-0.01488 -4.491559,0.286789 -4.936791,2.116352 -0.05403,0.221681 0.03381,0.443981 0.22337,0.563658 1.167866,0.737591 2.858238,0.04558 4.174917,0.0093 0.939967,-0.02604 1.87601,0.121227 2.77885,0.378252 1.068858,0.304152 1.794813,1.192425 2.843447,1.498437 0.712974,0.208038 1.190806,-0.465064 1.093912,-1.123595 -0.259291,-1.765384 -2.106022,-2.728686 -3.876687,-3.159956 0.06882,-0.494518 0.09448,-0.989037 0.130099,-1.483555 6.923883,-0.51219 12.802452,-0.254235 16.598846,6.73971 3.192388,5.880271 1.688862,13.114498 0.145493,19.230401 z"
   id="path2"
   style="stroke-width:1;fill:#808080;fill-opacity:1" />
	<path
   d="M 23.741027,48.575677 C 22.65436,47.181414 21.28697,46.20633 20.340361,44.655186 c -1.122286,-1.838863 -1.681618,-3.955835 -1.57929,-6.115593 0.03441,-0.729531 -1.085762,-0.885792 -1.239103,-0.172384 -0.907971,4.227433 0.442214,10.720038 5.232908,11.947497 1.053766,0.270668 1.5971,-0.955241 0.986151,-1.739029 z"
   id="path4"
   style="stroke-width:1;fill:#808080;fill-opacity:1" />
<rect
   style="fill:#808080;fill-opacity:1;fill-rule:evenodd;stroke-width:4.24818"
   id="rect1120"
   width="2.080096"
   height="10.721076"
   x="55.787777"
   y="49.156261"
   rx="20.2523"
   ry="0.36574" /><rect
   style="fill:#808080;fill-opacity:1;fill-rule:evenodd;stroke-width:4.24818"
   id="rect1120-3"
   width="2.013099"
   height="11.077881"
   x="-55.687176"
   y="51.067619"
   rx="20.495789"
   ry="0.36139435"
   transform="matrix(-0.00420355,-0.99999117,0.99999225,-0.00393713,0,0)" /></g>
<g
   id="g8">
</g>
<g
   id="g10">
</g>
<g
   id="g12">
</g>
<g
   id="g14">
</g>
<g
   id="g16">
</g>
<g
   id="g18">
</g>
<g
   id="g20">
</g>
<g
   id="g22">
</g>
<g
   id="g24">
</g>
<g
   id="g26">
</g>
<g
   id="g28">
</g>
<g
   id="g30">
</g>
<g
   id="g32">
</g>
<g
   id="g34">
</g>
<g
   id="g36">
</g>
</svg>
