<?xml version="1.0" encoding="iso-8859-1"?>
<!-- Generator: Adobe Illustrator 16.0.0, SVG Export Plug-In . SVG Version: 6.00 Build 0)  -->
<!DOCTYPE svg PUBLIC "-//W3C//DTD SVG 1.1//EN" "http://www.w3.org/Graphics/SVG/1.1/DTD/svg11.dtd">
<svg version="1.1" xmlns="http://www.w3.org/2000/svg" xmlns:xlink="http://www.w3.org/1999/xlink" x="0px" y="0px" width="512px"
	 height="512px" viewBox="0 0 512 512" style="enable-background:new 0 0 512 512;" xml:space="preserve">
<g id="Guides_For_Artboard">
</g>
<g id="Artwork">
</g>
<g id="Layer_3">
	<path style="fill:#D46A56;" d="M255.116,8.944c-135.31,0-245,109.69-245,245c0,135.311,109.69,245,245,245
		c135.309,0,245-109.689,245-245C500.116,118.634,390.425,8.944,255.116,8.944z"/>
	<path style="fill:none;" d="M155.387,239.838c-1.486-0.652-2.923-1.38-4.309-2.177C152.479,238.48,153.916,239.211,155.387,239.838
		z"/>
	<path style="fill:none;" d="M352.613,239.838c1.486-0.652,2.923-1.38,4.309-2.177C355.521,238.48,354.084,239.211,352.613,239.838z
		"/>
	<g>
		<path style="fill:#F6E0C2;" d="M344.125,152.833c-2.994-1.205-6.146-2.25-9.458-3.165c-21.808-5.331-44.147-6.108-80.667-6.123
			c-36.519,0.015-58.86,0.792-80.667,6.123c-3.313,0.915-6.464,1.959-9.458,3.165c-21.125,8.5-35.161,25.955-35.161,46.202
			c0,15.936,9.543,31.125,22.364,38.626c1.386,0.796,2.822,1.525,4.309,2.177c3.692,1.557,5.863,2.871,6.112,8.579
			c0.266,6.093,0.057,95.766,0.009,114.984c-0.006,2.316,1.305,3.609,3.555,3.609H254h88.938c2.25,0,3.561-1.293,3.555-3.609
			c-0.048-19.218-0.257-108.891,0.009-114.984c0.249-5.708,2.42-7.022,6.112-8.579c1.486-0.652,2.923-1.38,4.309-2.177
			c12.821-7.5,22.364-22.69,22.364-38.626C379.286,178.788,365.25,161.333,344.125,152.833z"/>
		<path style="fill:#735542;" d="M351.625,135.333c-4.204-1.449-39.6-12.079-97.625-12.216
			c-58.025,0.137-93.421,10.767-97.625,12.216c-28.286,7.638-48.095,34.334-48.095,63.702c0,21.154,10.276,40.677,27.015,52.732
			c1.847,1.33,5.771,3.066,5.771,10.191s0,105.887,0,105.887c0,10.807,8.791,19.598,19.597,19.598H254h93.338
			c10.806,0,19.597-8.791,19.597-19.598c0,0,0-98.762,0-105.887s3.924-8.862,5.771-10.191
			c16.738-12.055,27.015-31.578,27.015-52.732C399.72,169.668,379.911,142.971,351.625,135.333z M356.922,237.661
			c-1.4,0.819-2.838,1.55-4.309,2.177c-3.692,1.557-5.863,2.871-6.112,8.579c-0.266,6.093-0.057,95.766-0.009,114.984
			c0.006,2.316-1.305,3.609-3.555,3.609H254h-88.938c-2.25,0-3.561-1.293-3.555-3.609c0.048-19.218,0.257-108.891-0.009-114.984
			c-0.249-5.708-2.42-7.022-6.112-8.579c-1.471-0.626-2.908-1.358-4.309-2.177c-12.821-7.5-22.364-22.69-22.364-38.626
			c0-20.247,14.036-37.702,35.161-46.202c2.994-1.205,6.146-2.25,9.458-3.165c19.845-5.48,45.66-6.111,80.667-6.124
			c35.008,0.013,60.822,0.644,80.667,6.124c3.313,0.915,6.464,1.959,9.458,3.165c21.125,8.5,35.161,25.955,35.161,46.202
			C379.286,214.971,369.743,230.161,356.922,237.661z"/>
	</g>
</g>
</svg>
