<?xml version="1.0" encoding="iso-8859-1"?>
<!-- Generator: Adobe Illustrator 19.0.0, SVG Export Plug-In . SVG Version: 6.00 Build 0)  -->
<svg version="1.1" id="Layer_1" xmlns="http://www.w3.org/2000/svg" xmlns:xlink="http://www.w3.org/1999/xlink" x="0px" y="0px"
	 viewBox="0 0 512.001 512.001" style="enable-background:new 0 0 512.001 512.001;" xml:space="preserve">
<circle style="fill:#F2F2F2;" cx="256.001" cy="256.001" r="256.001"/>
<circle style="fill:#E6E6E6;" cx="256.001" cy="256.001" r="165.322"/>
<path style="fill:#FFFFFF;" d="M400.965,148.621c-12.188-49.84-57.601-86.638-111.446-85.546
	c-59.537,1.208-108.304,49.567-109.981,109.093c-1.383,49.093,28.736,91.338,71.625,108.007
	c14.122,5.489,26.115,15.205,34.852,27.583c17.109,24.241,45.634,39.848,77.752,38.999c48.144-1.272,87.617-40.22,89.492-88.345
	c1.094-28.053-10.378-53.442-29.235-71.013C412.801,176.941,404.608,163.523,400.965,148.621z"/>
<circle style="fill:#F4C67D;" cx="309.217" cy="174.469" r="58.116"/>
<path style="fill:#E0B16E;" d="M281.381,174.472c0-26.859,18.223-49.449,42.976-56.114c-4.829-1.3-9.903-2.005-15.143-2.005
	c-32.099,0-58.119,26.021-58.119,58.119c0,32.099,26.021,58.119,58.119,58.119c5.241,0,10.314-0.705,15.143-2.005
	C299.603,223.921,281.381,201.331,281.381,174.472z"/>
<path style="fill:#C4A174;" d="M325.975,364.597c-74.44-13.077-144.354-44.886-203.12-92.416
	c-18.209-14.728-44.635-13.174-60.981,3.598c-0.214,0.219-0.426,0.437-0.64,0.656c-18.631,19.114-16.802,50.112,3.948,66.901
	c70.884,57.353,155.231,95.729,245.039,111.489c26.29,4.613,50.86-14.374,53.031-40.977c0.025-0.305,0.049-0.609,0.075-0.912
	C365.232,389.593,349.042,368.65,325.975,364.597z"/>
<path style="fill:#B58E64;" d="M333.551,442.546c-89.81-15.76-174.155-54.136-245.039-111.489
	c-20.75-16.789-22.578-47.787-3.948-66.902c0.212-0.219,0.426-0.437,0.64-0.656c0.201-0.206,0.41-0.399,0.614-0.6
	c-8.835,1.685-17.238,5.999-23.944,12.879c-0.212,0.219-0.426,0.437-0.64,0.656c-18.631,19.114-16.804,50.112,3.948,66.902
	c70.884,57.353,155.231,95.729,245.039,111.489c15.103,2.651,29.629-2.497,39.675-12.394
	C344.658,443.431,339.145,443.529,333.551,442.546z"/>
<g>
	<circle style="fill:#F2F2F2;" cx="388.82" cy="267.997" r="9.209"/>
	<circle style="fill:#F2F2F2;" cx="397.415" cy="214.584" r="9.209"/>
	<circle style="fill:#F2F2F2;" cx="310.85" cy="262.877" r="9.209"/>
	<circle style="fill:#F2F2F2;" cx="225.954" cy="198.462" r="9.209"/>
</g>
<g>
</g>
<g>
</g>
<g>
</g>
<g>
</g>
<g>
</g>
<g>
</g>
<g>
</g>
<g>
</g>
<g>
</g>
<g>
</g>
<g>
</g>
<g>
</g>
<g>
</g>
<g>
</g>
<g>
</g>
</svg>
