<?xml version="1.0" encoding="iso-8859-1"?>
<!-- Generator: Adobe Illustrator 19.0.0, SVG Export Plug-In . SVG Version: 6.00 Build 0)  -->
<svg version="1.1" id="Layer_1" xmlns="http://www.w3.org/2000/svg" xmlns:xlink="http://www.w3.org/1999/xlink" x="0px" y="0px"
	 viewBox="0 0 297 297" style="enable-background:new 0 0 297 297;" xml:space="preserve">
<g>
	<g>
		<g>
			<circle style="fill:#B85627;" cx="148.5" cy="148.5" r="148.5"/>
		</g>
	</g>
	<path style="fill:#993917;" d="M295.964,130.964L231,66L66,231l64.964,64.964c5.752,0.677,11.602,1.036,17.536,1.036
		c82.014,0,148.5-66.486,148.5-148.5C297,142.566,296.641,136.717,295.964,130.964z"/>
	<g>
		<path style="fill:#FFA800;" d="M231,66c0,0-47.643-5.119-99,0c-51.833,5.167-82.5,16.5-82.5,16.5L66,231c0,0,41.5,8.833,99,0
			c38.03-5.842,82.5,0,82.5,0L231,66z"/>
	</g>
	<g>
		<path style="fill:#DD931D;" d="M231,66c0,0-37.318-4.008-81.5-1.382v168.397c5.017-0.535,10.19-1.199,15.5-2.015
			c38.03-5.842,82.5,0,82.5,0L231,66z"/>
	</g>
	<g>
		<ellipse style="fill:#E67E22;" cx="82.5" cy="107.25" rx="16.5" ry="24.75"/>
	</g>
	<g>
		<ellipse style="fill:#D35400;" cx="170.5" cy="189.75" rx="16.5" ry="24.75"/>
	</g>
	<g>
		<circle style="fill:#E67E22;" cx="107.25" cy="206.25" r="8.25"/>
	</g>
	<g>
		<circle style="fill:#D35400;" cx="206.25" cy="90.75" r="5.5"/>
	</g>
	<g>
		<circle style="fill:#E67E22;" cx="136.25" cy="107.25" r="10"/>
	</g>
	<g>
		<circle style="fill:#D35400;" cx="191.5" cy="142" r="10"/>
	</g>
	<g>
		<circle style="fill:#E67E22;" cx="96.5" cy="171.5" r="12.5"/>
	</g>
	<g>
		
			<ellipse transform="matrix(-0.9045 -0.4264 0.4264 -0.9045 330.6036 463.4612)" style="fill:#D35400;" cx="217.18" cy="194.724" rx="12.584" ry="8.549"/>
	</g>
</g>
<g>
</g>
<g>
</g>
<g>
</g>
<g>
</g>
<g>
</g>
<g>
</g>
<g>
</g>
<g>
</g>
<g>
</g>
<g>
</g>
<g>
</g>
<g>
</g>
<g>
</g>
<g>
</g>
<g>
</g>
</svg>
