<?xml version="1.0" encoding="iso-8859-1"?>
<!-- Generator: Adobe Illustrator 19.1.0, SVG Export Plug-In . SVG Version: 6.00 Build 0)  -->
<svg version="1.1" id="Capa_1" xmlns="http://www.w3.org/2000/svg" xmlns:xlink="http://www.w3.org/1999/xlink" x="0px" y="0px"
	 viewBox="0 0 443.869 443.869" style="enable-background:new 0 0 443.869 443.869;" xml:space="preserve">
<g>
	<path style="fill:none;" d="M68.91,87.963c-14.82,16.365-24.428,37.537-26.202,60.9c7.835-20.062,18.704-38.601,32.035-55.067
		L68.91,87.963z"/>
	<path style="fill:none;" d="M107.779,61.179c-11.757,4.57-22.462,11.245-31.65,19.566l5.252,5.252
		C89.442,76.983,98.272,68.671,107.779,61.179z"/>
	<path style="fill:#88928F;" d="M382.335,76.84c1.122,1.112,2.232,2.238,3.329,3.375C384.567,79.078,383.458,77.952,382.335,76.84z"
		/>
	<path style="fill:#88928F;" d="M378.88,73.493c1.11,1.051,2.208,2.114,3.294,3.189C381.087,75.608,379.99,74.543,378.88,73.493z"/>
	<path style="fill:#88928F;" d="M417.005,122.168c0.909,1.609,1.799,3.231,2.668,4.866
		C418.804,125.399,417.916,123.776,417.005,122.168z"/>
	<path style="fill:#88928F;" d="M371.699,67.006c1.099,0.947,2.184,1.908,3.263,2.878C373.883,68.914,372.798,67.952,371.699,67.006
		z"/>
	<path style="fill:#88928F;" d="M375.337,70.217c1.098,0.992,2.184,1.998,3.26,3.013C377.52,72.215,376.435,71.209,375.337,70.217z"
		/>
	<path style="fill:#88928F;" d="M443.005,205.477c0.123,1.353,0.235,2.71,0.332,4.07
		C443.241,208.186,443.127,206.83,443.005,205.477z"/>
	<path style="fill:#88928F;" d="M443.795,218.853c-5.448,2.273-11.261,3.831-17.318,4.598v11.788h-44.273v-17.534l-59.679-24.471
		l10.45-25.485l0.147,0.06c-0.081-0.17-0.137-0.361-0.211-0.538l-43.464-0.486c-0.861,12.561-3.316,24.683-7.176,36.161h20.851
		v32.292h-36.416c-14.009,21.692-33.656,39.397-56.867,51.054c91.587,2.529,216.581,9.865,216.581,18.521
		c0,10.748-192.773,19.461-274.934,19.461c-38.533,0-73.642-1.916-100.065-5.061c34.453,66.994,104.263,112.821,184.783,112.821
		c114.691,0,207.664-92.973,207.664-207.662C443.869,222.527,443.843,220.687,443.795,218.853z"/>
	<path style="fill:#88928F;" d="M355.661,54.498c2.022,1.425,4.015,2.888,5.984,4.381C359.677,57.385,357.684,55.922,355.661,54.498
		z"/>
	<path style="fill:#88928F;" d="M442.522,200.738c0.164,1.449,0.313,2.902,0.448,4.359
		C442.837,203.639,442.687,202.186,442.522,200.738z"/>
	<path style="fill:#88928F;" d="M439.915,183.904c0.36,1.83,0.697,3.668,1.01,5.514
		C440.612,187.571,440.276,185.733,439.915,183.904z"/>
	<path style="fill:#88928F;" d="M433.54,159.56c0.477,1.454,0.94,2.914,1.387,4.382C434.48,162.474,434.017,161.014,433.54,159.56z"
		/>
	<path style="fill:#88928F;" d="M245.561,16.931c1.029,0.047,2.056,0.1,3.081,0.161C247.617,17.032,246.59,16.977,245.561,16.931z"
		/>
	<path style="fill:#88928F;" d="M371.382,66.738c-2.963-2.543-6.002-4.999-9.106-7.375c1.924,1.471,3.826,2.968,5.695,4.504
		C369.119,64.811,370.255,65.77,371.382,66.738z"/>
	<path style="fill:#88928F;" d="M51.416,319.201c-0.248-0.482-0.487-0.969-0.731-1.454
		C50.929,318.232,51.168,318.719,51.416,319.201z"/>
	<path style="fill:#88928F;" d="M29.508,244.372c1.577,16.504,5.084,32.444,10.296,47.592c12.019-1.787,26.499-3.284,42.746-4.399
		C61.597,277.562,43.428,262.672,29.508,244.372z"/>
	<path style="fill:#88928F;" d="M49.433,315.229c-0.291-0.597-0.578-1.195-0.863-1.795
		C48.855,314.034,49.142,314.633,49.433,315.229z"/>
	<path style="fill:#88928F;" d="M235.17,43.392c31.633,25.227,52.469,63.412,54.466,106.524l43.228,0.483
		c0.962-4.508,2.354-8.888,3.566-12.268c0.126-0.351,0.475-0.531,0.817-0.482c0.924-2.428,1.602-3.951,1.602-3.951
		s6.115-37.689,16.809-79.201c-30.299-21.344-66.562-34.779-105.797-37.327c1.208,0.079,2.416,0.163,3.619,0.262L235.17,43.392z"/>
	<path style="fill:#88928F;" d="M233.317,16.748c-13.055,0.178-25.82,1.552-38.187,4.034c9.234,3.413,18.022,7.744,26.261,12.875
		L233.317,16.748z"/>
	<path style="fill:#88928F;" d="M47.504,311.15c-0.278-0.605-0.56-1.207-0.833-1.815C46.944,309.943,47.225,310.545,47.504,311.15z"
		/>
	<path style="fill:#88928F;" d="M443.412,210.735c0.076,1.143,0.149,2.287,0.205,3.435
		C443.562,213.021,443.486,211.878,443.412,210.735z"/>
	<path style="fill:#88928F;" d="M240.999,16.772c0.776,0.018,1.549,0.047,2.323,0.074C242.547,16.82,241.775,16.79,240.999,16.772z"
		/>
	<path style="fill:#88928F;" d="M41.945,297.876c-0.661-1.746-1.3-3.502-1.915-5.271C40.645,294.373,41.284,296.13,41.945,297.876z"
		/>
	<path style="fill:#88928F;" d="M45.112,305.771c-0.311-0.731-0.612-1.466-0.916-2.201C44.5,304.305,44.8,305.041,45.112,305.771z"
		/>
	<path style="fill:#88928F;" d="M43.464,301.778c-0.321-0.798-0.638-1.599-0.949-2.402C42.826,300.18,43.143,300.98,43.464,301.778z
		"/>
	<path style="fill:#88928F;" d="M432.287,155.865c0.427,1.224,0.844,2.453,1.25,3.687
		C433.132,158.318,432.715,157.089,432.287,155.865z"/>
	<path style="fill:#88928F;" d="M407.912,107.558c-4.486,0.919-8.754,2.441-12.72,4.471c-9.616,14.677-17.949,26.969-23.398,34.78
		c0.652,0.056,1.317,0.112,2.006,0.17c0.137,0.296-0.372,0.531-0.553,0.789c-0.257,0.366-0.145,0.873,0.242,1.096
		c0.699,0.404,1.881,1.094,3.426,2.027l1.688,0.019c2.68-17.904,17.309-31.951,35.486-33.738c0.967,1.601,1.91,3.217,2.833,4.846
		c-4.271-7.525-8.993-14.761-14.14-21.663c-0.002,0.002-0.003,0.005-0.005,0.007C404.537,102.723,406.251,105.121,407.912,107.558z"
		/>
	<path style="fill:#88928F;" d="M388.744,151.023l14.564,0.163c2.274-5.916,7.994-10.122,14.711-10.122
		c3.785,0,7.255,1.336,9.973,3.558c1.505,3.615,2.908,7.283,4.21,10.998c-3.47-9.892-7.666-19.441-12.527-28.584
		c-0.549-0.03-1.1-0.048-1.656-0.048C403.549,126.988,391.456,137.338,388.744,151.023z"/>
	<path style="fill:#88928F;" d="M150.005,126.536c1.71,0.287,3.372,0.716,4.974,1.274l41.907-59.413
		c-13.867-8.178-29.824-13.189-46.881-14.026V126.536z"/>
	<path style="fill:#88928F;" d="M114.703,161.839H42.537c0.723,14.736,4.56,28.652,10.864,41.108h3.013v5.521
		c3.58,6.11,7.771,11.819,12.496,17.036l51.03-51.03C117.313,170.786,115.484,166.492,114.703,161.839z"/>
	<path style="fill:#88928F;" d="M150.005,186.932v16.016h29.763v32.292h-29.763v23.859c24.456-1.2,46.658-10.971,63.667-26.373
		l-51.03-51.03C158.952,184.322,154.658,186.151,150.005,186.932z"/>
	<path style="fill:#88928F;" d="M210.666,78.132L197.22,97.196l16.452-16.452C212.688,79.853,211.684,78.985,210.666,78.132z"/>
	<path style="fill:#88928F;" d="M135.495,235.239v-32.292h4.3v-16.016c-4.653-0.781-8.947-2.61-12.637-5.238l-51.03,51.03
		c17.009,15.403,39.211,25.174,63.667,26.374v-23.859H135.495z"/>
	<path style="fill:#88928F;" d="M119.94,138.993L74.743,93.796c-13.332,16.465-24.201,35.004-32.035,55.067
		c-0.07,0.919-0.126,1.841-0.171,2.767h72.166C115.483,146.977,117.313,142.683,119.94,138.993z"/>
	<path style="fill:#88928F;" d="M428.776,168.344c-2.819,2.636-6.594,4.261-10.758,4.261c-3.014,0-5.82-0.862-8.213-2.331
		l-2.493,2.334c5.16,4.529,9.775,9.311,12.863,13.987c7.183-0.517,13.669-3.582,18.555-8.3c0.414,1.826,0.802,3.663,1.166,5.507
		c-1.327-6.701-2.978-13.285-4.933-19.737c0.44,1.447,0.865,2.901,1.273,4.362L428.776,168.344z"/>
	<path style="fill:#88928F;" d="M424.141,197.948c-0.121,2.855-4.576,3.711-11.459,3.129l-0.767,1.871h14.564v3.444
		c5.732-0.979,11.143-2.909,16.044-5.656c-0.431-3.803-0.963-7.575-1.597-11.313c-4.916,3.466-10.644,5.851-16.839,6.805
		C424.144,196.808,424.164,197.382,424.141,197.948z"/>
	<path style="fill:#88928F;" d="M81.381,85.997l45.778,45.778c3.69-2.627,7.984-4.457,12.637-5.238V54.371
		c-11.244,0.552-22.011,2.918-32.016,6.807C98.272,68.671,89.442,76.983,81.381,85.997z"/>
	<path style="fill:#88928F;" d="M169.86,138.993c2.052,2.882,3.617,6.132,4.576,9.635l72.693,0.812
		c-1.659-23.59-11.298-44.978-26.239-61.477L169.86,138.993z"/>
	<path style="fill:#88928F;" d="M397.032,93.041c0.008-0.003,0.015-0.005,0.023-0.008c0.48,0.588,0.948,1.186,1.422,1.779
		c0.34,0.424,0.681,0.846,1.018,1.273c0.894,1.136,1.775,2.283,2.646,3.438c0.209,0.277,0.427,0.547,0.635,0.825
		c-5.264-7.058-10.971-13.764-17.07-20.09c3.348,3.474,6.576,7.064,9.678,10.763C395.942,91.686,396.481,92.368,397.032,93.041z"/>
	<path style="fill:#88928F;" d="M220.891,225.506c14.458-15.965,23.948-36.508,26.051-59.194l-72.692-0.812
		c-0.97,3.253-2.466,6.276-4.39,8.976L220.891,225.506z"/>
	<rect x="150.005" y="202.948" style="fill:#FFFFFF;" width="29.763" height="32.292"/>
	<rect x="135.495" y="202.948" style="fill:#FFFFFF;" width="4.3" height="32.292"/>
	<path style="fill:#FFFFFF;" d="M53.401,202.948c0.949,1.875,1.955,3.715,3.013,5.521v-5.521H53.401z"/>
	<path style="fill:#FFFFFF;" d="M403.899,222.495l-1.442,3.516l-20.254-8.305v17.534h44.273v-11.788
		c-2.773,0.351-5.593,0.553-8.46,0.553C413.174,224.004,408.455,223.474,403.899,222.495z"/>
	<path style="fill:#FFFFFF;" d="M418.018,207.132c2.886,0,5.707-0.269,8.46-0.74v-3.444h-14.564l-1.477,3.602
		C412.911,206.926,415.44,207.132,418.018,207.132z"/>
	<path style="fill:#FFFFFF;" d="M303.123,235.239v-32.292h-20.851c-3.858,11.474-9.115,22.304-15.566,32.292H303.123z"/>
	<path style="fill:#88928F;" d="M426.421,304.814c0-8.656-124.994-15.992-216.581-18.521c-19.535,9.811-41.59,15.342-64.94,15.342
		c-22.323,0-43.464-5.053-62.35-14.069c-16.247,1.115-30.727,2.611-42.746,4.399c0,0-0.001,0-0.001,0
		c0.074,0.214,0.152,0.426,0.227,0.641c0.615,1.768,1.254,3.524,1.915,5.271c0.189,0.501,0.377,1.002,0.57,1.501
		c0.311,0.803,0.628,1.604,0.949,2.402c0.241,0.599,0.486,1.196,0.732,1.792c0.303,0.735,0.604,1.471,0.916,2.201
		c0.509,1.194,1.029,2.381,1.559,3.563c0.273,0.608,0.554,1.211,0.833,1.815c0.352,0.764,0.706,1.526,1.067,2.284
		c0.285,0.6,0.572,1.198,0.863,1.795c0.411,0.843,0.829,1.681,1.251,2.518c0.244,0.484,0.483,0.971,0.731,1.454
		c0.002,0.004,0.004,0.008,0.006,0.012c0,0,0,0,0,0c26.423,3.146,61.532,5.061,100.065,5.061
		C233.648,324.275,426.421,315.562,426.421,304.814z"/>
	<path style="opacity:0.36;fill:#575D5B;" d="M426.421,304.814c0-8.656-124.994-15.992-216.581-18.521
		c-19.535,9.811-41.59,15.342-64.94,15.342c-22.323,0-43.464-5.053-62.35-14.069c-16.247,1.115-30.727,2.611-42.746,4.399
		c0,0-0.001,0-0.001,0c0.074,0.214,0.152,0.426,0.227,0.641c0.615,1.768,1.254,3.524,1.915,5.271
		c0.189,0.501,0.377,1.002,0.57,1.501c0.311,0.803,0.628,1.604,0.949,2.402c0.241,0.599,0.486,1.196,0.732,1.792
		c0.303,0.735,0.604,1.471,0.916,2.201c0.509,1.194,1.029,2.381,1.559,3.563c0.273,0.608,0.554,1.211,0.833,1.815
		c0.352,0.764,0.706,1.526,1.067,2.284c0.285,0.6,0.572,1.198,0.863,1.795c0.411,0.843,0.829,1.681,1.251,2.518
		c0.244,0.484,0.483,0.971,0.731,1.454c0.002,0.004,0.004,0.008,0.006,0.012c0,0,0,0,0,0c26.423,3.146,61.532,5.061,100.065,5.061
		C233.648,324.275,426.421,315.562,426.421,304.814z"/>
	<path style="fill:#6F7981;" d="M114.271,156.735c0-1.74,0.153-3.444,0.432-5.105H42.537c-0.083,1.691-0.127,3.393-0.127,5.105
		s0.044,3.414,0.127,5.105h72.166C114.424,160.179,114.271,158.475,114.271,156.735z"/>
	<path style="fill:#6F7981;" d="M144.9,126.105c1.74,0,3.444,0.153,5.105,0.432V54.371c-1.691-0.083-3.393-0.127-5.105-0.127
		s-3.414,0.044-5.105,0.127v72.165C141.456,126.258,143.16,126.105,144.9,126.105z"/>
	<path style="fill:#6F7981;" d="M150.005,202.948v-16.016c-1.661,0.279-3.365,0.432-5.105,0.432s-3.444-0.153-5.105-0.432v16.016
		v32.292v23.859c1.691,0.083,3.393,0.127,5.105,0.127s3.414-0.044,5.105-0.127v-23.859V202.948z"/>
	<path style="fill:#6F7981;" d="M220.89,87.963c-2.286-2.524-4.695-4.933-7.219-7.219L197.22,97.196l-28.457,40.345
		c0.38,0.473,0.745,0.958,1.098,1.453L220.89,87.963z"/>
	<path style="fill:#6F7981;" d="M119.94,174.475l-51.03,51.03c2.286,2.524,4.695,4.933,7.219,7.219l51.03-51.03
		C124.368,179.707,121.927,177.266,119.94,174.475z"/>
	<path style="fill:#6F7981;" d="M119.94,138.993c1.987-2.79,4.428-5.232,7.219-7.219L81.381,85.997l-5.252-5.252
		c-2.524,2.285-4.933,4.695-7.219,7.219l5.833,5.833L119.94,138.993z"/>
	<path style="fill:#6F7981;" d="M162.641,181.694l51.03,51.03c2.524-2.286,4.933-4.695,7.219-7.219l-51.03-51.03
		C167.873,177.266,165.432,179.707,162.641,181.694z"/>
	<path style="fill:#505B66;" d="M144.9,126.105c-1.74,0-3.444,0.153-5.105,0.432c-4.653,0.781-8.947,2.61-12.637,5.238
		c-2.79,1.987-5.232,4.428-7.219,7.219c-2.627,3.69-4.457,7.984-5.237,12.637c-0.279,1.661-0.432,3.365-0.432,5.105
		c0,1.74,0.153,3.444,0.432,5.105c0.781,4.652,2.61,8.946,5.237,12.636c1.987,2.79,4.428,5.232,7.219,7.219
		c3.69,2.627,7.984,4.457,12.637,5.238c1.661,0.279,3.365,0.432,5.105,0.432s3.444-0.153,5.105-0.432
		c4.653-0.781,8.947-2.61,12.636-5.238c2.79-1.987,5.232-4.428,7.219-7.219c1.923-2.701,3.42-5.724,4.39-8.976l-29.444-0.329
		c-0.357-0.004-0.707-0.037-1.052-0.085c-0.095-0.013-0.188-0.03-0.282-0.046c-0.332-0.057-0.657-0.13-0.975-0.224
		c-0.046-0.014-0.093-0.023-0.139-0.038c-0.368-0.116-0.722-0.262-1.067-0.426c-0.071-0.034-0.141-0.069-0.211-0.105
		c-0.354-0.181-0.697-0.38-1.02-0.606c-0.007-0.005-0.014-0.008-0.021-0.012c-0.068-0.048-0.128-0.103-0.194-0.152
		c-0.146-0.109-0.292-0.219-0.43-0.337c-0.108-0.092-0.207-0.191-0.31-0.288c-0.094-0.09-0.191-0.177-0.281-0.27
		c-0.113-0.117-0.217-0.24-0.322-0.363c-0.072-0.083-0.145-0.165-0.213-0.251c-0.101-0.128-0.194-0.26-0.287-0.393
		c-0.065-0.092-0.131-0.183-0.193-0.278c-0.081-0.126-0.154-0.255-0.228-0.384c-0.064-0.111-0.129-0.222-0.187-0.337
		c-0.06-0.117-0.112-0.236-0.166-0.355c-0.061-0.134-0.122-0.267-0.176-0.404c-0.042-0.107-0.077-0.217-0.115-0.326
		c-0.052-0.151-0.105-0.302-0.148-0.456c-0.031-0.108-0.054-0.218-0.08-0.327c-0.037-0.155-0.075-0.309-0.104-0.467
		c-0.023-0.13-0.038-0.26-0.055-0.391c-0.018-0.138-0.04-0.276-0.052-0.416c-0.015-0.18-0.018-0.361-0.021-0.541
		c-0.001-0.084-0.011-0.167-0.01-0.251c0-0.011,0.002-0.022,0.002-0.033c0.003-0.229,0.02-0.458,0.042-0.687
		c0.005-0.049,0.005-0.099,0.01-0.147c0.027-0.24,0.069-0.48,0.117-0.719c0.007-0.035,0.01-0.071,0.018-0.106
		c0.037-0.17,0.088-0.338,0.135-0.506c0.028-0.099,0.049-0.2,0.08-0.298c0.018-0.055,0.043-0.109,0.062-0.164
		c0.072-0.208,0.146-0.415,0.233-0.615c0.016-0.038,0.038-0.074,0.055-0.112c0.098-0.217,0.202-0.43,0.318-0.637
		c0.029-0.052,0.064-0.101,0.094-0.152c0.111-0.189,0.226-0.376,0.351-0.555c0.009-0.013,0.016-0.026,0.025-0.039l16.972-24.062
		c-1.602-0.558-3.263-0.987-4.974-1.274C148.344,126.258,146.641,126.105,144.9,126.105z"/>
	<path style="fill:#505B66;" d="M168.762,137.54l-7.715,10.938l13.39,0.15c-0.959-3.503-2.524-6.753-4.576-9.635
		C169.508,138.498,169.143,138.013,168.762,137.54z"/>
	<path style="fill:#505B66;" d="M235.17,43.392l-12.247,17.362c26.162,21.294,43.451,53.066,45.468,88.924l21.245,0.237
		C287.639,106.804,266.803,68.618,235.17,43.392z"/>
	<path style="fill:#505B66;" d="M82.55,287.566c18.886,9.017,40.027,14.069,62.35,14.069c23.35,0,45.405-5.531,64.94-15.342
		c23.211-11.657,42.857-29.362,56.867-51.054c6.45-9.988,11.707-20.818,15.566-32.292c3.86-11.478,6.315-23.601,7.176-36.161
		l-21.239-0.237C263.206,230.276,209.912,280.43,144.9,280.43c-68.316,0-123.696-55.38-123.696-123.695S76.585,33.039,144.9,33.039
		c23.528,0,45.522,6.57,64.247,17.974l12.242-17.356c-8.239-5.131-17.026-9.462-26.261-12.875
		c-15.65-5.784-32.569-8.947-50.229-8.947C64.874,11.834,0,76.708,0,156.735c0,32.937,10.996,63.301,29.508,87.638
		C43.428,262.672,61.597,277.562,82.55,287.566z"/>
	<path style="fill:#E96660;" d="M220.891,225.506c-2.286,2.524-4.695,4.933-7.219,7.219c-17.009,15.402-39.211,25.174-63.667,26.373
		c-1.691,0.083-3.393,0.127-5.105,0.127s-3.414-0.044-5.105-0.127c-24.456-1.2-46.658-10.971-63.667-26.374
		c-2.524-2.286-4.933-4.695-7.219-7.219c-4.725-5.217-8.915-10.926-12.496-17.036c-1.058-1.806-2.064-3.647-3.013-5.521
		c-6.304-12.457-10.141-26.373-10.864-41.108c-0.083-1.691-0.127-3.393-0.127-5.105s0.044-3.414,0.127-5.105
		c0.045-0.925,0.101-1.848,0.171-2.767c1.774-23.362,11.383-44.535,26.202-60.9c2.285-2.524,4.695-4.933,7.219-7.219
		c9.188-8.321,19.894-14.995,31.65-19.566c10.006-3.89,20.772-6.256,32.016-6.807c1.691-0.083,3.393-0.127,5.105-0.127
		s3.414,0.044,5.105,0.127c17.057,0.837,33.014,5.847,46.881,14.026l12.262-17.384c-18.726-11.404-40.719-17.974-64.247-17.974
		c-68.316,0-123.696,55.38-123.696,123.696S76.585,280.43,144.9,280.43c65.012,0,118.306-50.154,123.308-113.881l-21.267-0.238
		C244.839,188.997,235.348,209.54,220.891,225.506z"/>
	<path style="fill:#E96660;" d="M222.924,60.754l-12.257,17.378c1.018,0.853,2.022,1.721,3.005,2.612
		c2.524,2.286,4.933,4.695,7.219,7.219c14.941,16.499,24.58,37.887,26.239,61.477l21.262,0.238
		C266.374,113.82,249.086,82.048,222.924,60.754z"/>
	<path style="fill:#6F7981;" d="M397.032,93.041c0.483,0.589,0.969,1.176,1.445,1.771c-0.474-0.593-0.942-1.191-1.422-1.779
		C397.047,93.035,397.04,93.038,397.032,93.041z"/>
	<path style="fill:#6F7981;" d="M402.776,100.362c-2.593,4.02-5.13,7.92-7.585,11.667c3.966-2.03,8.234-3.552,12.72-4.471
		C406.251,105.121,404.537,102.723,402.776,100.362z"/>
	<path style="fill:#6F7981;" d="M402.141,99.522c-0.871-1.155-1.752-2.302-2.646-3.438C400.39,97.219,401.269,98.367,402.141,99.522
		z"/>
	<path style="fill:#6F7981;" d="M418.018,207.132c-2.578,0-5.107-0.206-7.581-0.582l-6.538,15.945
		c4.555,0.979,9.275,1.509,14.119,1.509c2.867,0,5.687-0.201,8.46-0.553c6.056-0.767,11.87-2.326,17.318-4.598l0,0
		c-0.041-1.566-0.101-3.126-0.178-4.683c-0.057-1.148-0.13-2.292-0.205-3.435c-0.026-0.396-0.047-0.793-0.075-1.188
		c-0.098-1.36-0.209-2.717-0.332-4.07c-0.012-0.127-0.022-0.254-0.034-0.38c-0.135-1.457-0.284-2.91-0.448-4.359
		c0,0,0-0.001,0-0.002l0,0c-4.902,2.747-10.313,4.677-16.044,5.656C423.725,206.863,420.904,207.132,418.018,207.132z"/>
	<path style="fill:#6F7981;" d="M420.175,186.595c2.184,3.307,3.605,6.56,3.912,9.632c6.195-0.953,11.923-3.339,16.839-6.805l0,0
		c0-0.002-0.001-0.004-0.001-0.006c-0.313-1.846-0.65-3.684-1.01-5.514c-0.007-0.034-0.013-0.068-0.019-0.101
		c-0.364-1.845-0.752-3.681-1.166-5.507C433.843,183.013,427.358,186.078,420.175,186.595z"/>
	<path style="fill:#6F7981;" d="M378.602,150.91l10.142,0.113c2.712-13.685,14.805-24.035,29.274-24.035
		c0.556,0,1.108,0.018,1.656,0.048h0c0-0.001-0.001-0.001-0.001-0.002c-0.869-1.634-1.759-3.256-2.668-4.866
		c-0.028-0.05-0.056-0.101-0.084-0.151c-0.923-1.629-1.866-3.245-2.833-4.846C395.911,118.959,381.282,133.005,378.602,150.91z"/>
	<path style="fill:#F4F5E6;" d="M428.776,168.344l7.46,0.083c-0.408-1.461-0.833-2.915-1.273-4.362
		c-0.012-0.041-0.024-0.082-0.037-0.123c-0.447-1.467-0.909-2.928-1.387-4.382c-0.001-0.002-0.001-0.003-0.002-0.005
		C432.938,163,431.224,166.054,428.776,168.344z"/>
	<path style="fill:#F7EFE6;" d="M385.126,153.298c1.36,0.136,1.373,2.28,0,2.141c-0.325-0.032-0.651-0.034-0.978-0.019
		c2.175,1.41,4.552,2.995,7.026,4.715c0.864-0.213,1.748-0.385,2.67-0.467c0.261-0.023,0.455,0.053,0.617,0.163
		c2.557-1.666,5.213-3.406,7.964-5.219c0.173-1.188,0.464-2.338,0.882-3.428l-14.564-0.163l-10.142-0.113l-1.688-0.019
		c1.295,0.782,2.845,1.734,4.584,2.833C382.684,153.349,383.904,153.176,385.126,153.298z"/>
	<path style="fill:#F7EFE6;" d="M209.148,51.013l-12.262,17.384l-41.907,59.413l-16.972,24.062
		c-0.009,0.013-0.016,0.026-0.025,0.039c-0.125,0.179-0.24,0.366-0.351,0.555c-0.03,0.051-0.065,0.101-0.094,0.152
		c-0.116,0.206-0.22,0.42-0.318,0.637c-0.017,0.038-0.038,0.074-0.055,0.112c-0.087,0.2-0.162,0.407-0.233,0.615
		c-0.019,0.055-0.044,0.108-0.062,0.164c-0.031,0.097-0.052,0.199-0.08,0.298c-0.048,0.168-0.099,0.336-0.135,0.506
		c-0.007,0.035-0.011,0.071-0.018,0.106c-0.048,0.239-0.09,0.478-0.117,0.719c-0.006,0.048-0.005,0.098-0.01,0.147
		c-0.022,0.229-0.039,0.458-0.042,0.687c0,0.011-0.002,0.022-0.002,0.033c-0.001,0.085,0.008,0.167,0.01,0.251
		c0.004,0.181,0.006,0.361,0.021,0.541c0.011,0.141,0.033,0.278,0.052,0.416c0.017,0.131,0.032,0.261,0.055,0.391
		c0.029,0.158,0.067,0.312,0.104,0.467c0.026,0.109,0.05,0.219,0.08,0.327c0.044,0.155,0.096,0.305,0.148,0.456
		c0.038,0.109,0.073,0.218,0.115,0.326c0.054,0.137,0.115,0.27,0.176,0.404c0.054,0.119,0.106,0.238,0.166,0.355
		c0.059,0.115,0.123,0.225,0.187,0.337c0.074,0.129,0.147,0.259,0.228,0.384c0.061,0.095,0.128,0.186,0.193,0.278
		c0.093,0.133,0.186,0.265,0.287,0.393c0.068,0.086,0.142,0.168,0.213,0.251c0.105,0.123,0.209,0.246,0.322,0.363
		c0.09,0.094,0.187,0.181,0.281,0.27c0.102,0.097,0.202,0.196,0.31,0.288c0.138,0.119,0.284,0.228,0.43,0.337
		c0.066,0.049,0.126,0.104,0.194,0.152c0.007,0.005,0.014,0.008,0.021,0.012c0.323,0.227,0.666,0.426,1.02,0.606
		c0.07,0.036,0.14,0.071,0.211,0.105c0.344,0.164,0.698,0.31,1.067,0.426c0.046,0.015,0.093,0.024,0.139,0.038
		c0.317,0.094,0.643,0.167,0.975,0.224c0.094,0.016,0.188,0.033,0.282,0.046c0.345,0.047,0.695,0.081,1.052,0.085l29.444,0.329
		l72.692,0.812l21.267,0.238l21.239,0.237l43.464,0.486c-1.844-4.419-1.354-10.755-0.048-16.874l-43.228-0.483l-21.245-0.237
		l-21.262-0.238l-72.693-0.812l-13.39-0.15l7.715-10.938l28.457-40.345l13.447-19.064l12.257-17.378l12.247-17.362l18.311-25.96
		c-1.203-0.099-2.41-0.183-3.619-0.262c-0.407-0.027-0.813-0.053-1.22-0.077c-1.025-0.061-2.052-0.115-3.081-0.161
		c-0.745-0.034-1.493-0.059-2.24-0.085c-0.774-0.027-1.547-0.056-2.323-0.074c-1.594-0.037-3.191-0.061-4.793-0.061
		c-0.966,0-1.926,0.023-2.888,0.036l0,0L221.39,33.657L209.148,51.013z"/>
	<path style="fill:#E96660;" d="M418.018,141.064c-6.716,0-12.437,4.206-14.711,10.122c-0.419,1.089-0.71,2.239-0.882,3.428
		c-2.751,1.812-5.408,3.553-7.964,5.219c0.69,0.473,0.489,1.881-0.617,1.979c-0.082,0.007-0.159,0.027-0.241,0.036
		c1.917,1.369,3.871,2.81,5.817,4.305c1.135-0.321,2.3-0.49,3.478-0.446c1.376,0.053,1.381,2.194,0,2.141
		c-0.415-0.016-0.828,0.009-1.24,0.052c1.924,1.527,3.821,3.102,5.652,4.709l2.493-2.334c2.394,1.469,5.199,2.331,8.213,2.331
		c4.164,0,7.939-1.625,10.758-4.261c2.448-2.289,4.162-5.344,4.762-8.788c0-0.001-0.001-0.002-0.001-0.003
		c-0.405-1.234-0.822-2.463-1.25-3.687c-0.029-0.082-0.058-0.163-0.086-0.245c-1.302-3.715-2.705-7.383-4.21-10.998
		C425.274,142.4,421.803,141.064,418.018,141.064z"/>
	<path style="fill:#F4B7A9;" d="M352.88,136.283c0,0-1.403,3.148-2.927,7.63c4.541,1.285,10.494,1.925,21.841,2.895
		c5.449-7.81,13.782-20.103,23.398-34.78c2.455-3.747,4.992-7.647,7.585-11.667c0.002-0.002,0.003-0.005,0.005-0.007c0,0,0,0,0,0
		c-0.002-0.003-0.004-0.005-0.006-0.007c-0.208-0.278-0.426-0.548-0.635-0.825c-0.871-1.155-1.75-2.303-2.646-3.438
		c-0.336-0.427-0.678-0.849-1.018-1.273c-0.477-0.595-0.962-1.181-1.445-1.771c-0.551-0.672-1.09-1.354-1.649-2.02
		c-3.102-3.699-6.33-7.289-9.678-10.763c-0.014-0.014-0.027-0.028-0.041-0.042c-1.097-1.138-2.207-2.263-3.329-3.375
		c-0.053-0.053-0.108-0.105-0.161-0.158c-1.087-1.075-2.184-2.138-3.294-3.189c-0.094-0.089-0.189-0.175-0.283-0.263
		c-1.076-1.015-2.162-2.021-3.26-3.013c-0.124-0.112-0.251-0.221-0.375-0.333c-1.078-0.97-2.164-1.931-3.263-2.878
		c-0.105-0.09-0.212-0.178-0.317-0.268c-1.127-0.968-2.263-1.927-3.411-2.871C358.342,102.612,352.88,136.283,352.88,136.283z"/>
	<path style="fill:#F4B7A9;" d="M337.248,137.649c0.103,0.015,0.205,0.045,0.3,0.104c5.103,3.169,8.13,4.951,12.405,6.16
		c1.523-4.482,2.927-7.63,2.927-7.63s5.462-33.671,15.092-72.416c-1.869-1.536-3.771-3.034-5.695-4.504
		c-0.211-0.161-0.42-0.324-0.631-0.484c-1.969-1.493-3.962-2.957-5.984-4.381c0,0-0.001-0.001-0.001-0.001v0
		c-10.694,41.512-16.809,79.201-16.809,79.201S338.172,135.22,337.248,137.649z"/>
	<path style="opacity:0.41;fill:#F89BA0;" d="M337.248,137.649c0.103,0.015,0.205,0.045,0.3,0.104
		c5.103,3.169,8.13,4.951,12.405,6.16c1.523-4.482,2.927-7.63,2.927-7.63s5.462-33.671,15.092-72.416
		c-1.869-1.536-3.771-3.034-5.695-4.504c-0.211-0.161-0.42-0.324-0.631-0.484c-1.969-1.493-3.962-2.957-5.984-4.381
		c0,0-0.001-0.001-0.001-0.001v0c-10.694,41.512-16.809,79.201-16.809,79.201S338.172,135.22,337.248,137.649z"/>
	<path style="fill:#505B66;" d="M403.899,222.495l6.538-15.945l1.477-3.602l0.767-1.871c-22.151-1.873-69.487-18.663-78.728-31.835
		c-0.313-0.446-0.589-0.925-0.831-1.432l-0.147-0.06l-10.45,25.485l59.679,24.471l20.254,8.305L403.899,222.495z"/>
	<path style="fill:#AFEBFF;" d="M412.681,201.077c6.883,0.582,11.338-0.274,11.459-3.129c0.024-0.566,0.004-1.14-0.054-1.721
		c-0.307-3.072-1.728-6.325-3.912-9.632c-3.088-4.676-7.704-9.459-12.863-13.987c-1.831-1.607-3.729-3.182-5.652-4.709
		c-4.091,0.425-7.983,3.582-10.243,6.795c-0.788,1.12-2.646,0.052-1.849-1.079c2.269-3.226,5.864-6.334,9.854-7.463
		c-1.947-1.495-3.901-2.937-5.817-4.305c-4.648,0.486-8.376,3.003-10.572,7.147c-0.646,1.221-2.495,0.14-1.848-1.079
		c2.166-4.091,5.699-6.722,9.991-7.779c-2.474-1.72-4.851-3.306-7.026-4.715c-4.37,0.209-8.815,4.536-10.399,8.287
		c-0.528,1.252-2.601,0.703-2.064-0.568c1.608-3.813,5.472-8.044,9.812-9.415c-1.739-1.099-3.289-2.051-4.584-2.833
		c-1.544-0.933-2.727-1.623-3.426-2.027c-0.387-0.224-0.499-0.73-0.242-1.096c0.181-0.258,0.691-0.493,0.553-0.789
		c-0.688-0.058-1.354-0.115-2.006-0.17c-11.346-0.97-17.3-1.61-21.841-2.895c-4.275-1.21-7.302-2.991-12.405-6.16
		c-0.095-0.059-0.198-0.09-0.3-0.104c-0.342-0.049-0.691,0.131-0.817,0.482c-1.213,3.38-2.604,7.761-3.566,12.268
		c-1.306,6.118-1.796,12.455,0.048,16.874c0.074,0.176,0.129,0.367,0.211,0.538c0.242,0.507,0.518,0.986,0.831,1.432
		C343.195,182.414,390.53,199.204,412.681,201.077z M352.262,151.506c11.047,0,11.047,17.13,0,17.13
		C341.215,168.636,341.215,151.506,352.262,151.506z"/>
	<path style="fill:#505B66;" d="M385.126,155.439c1.373,0.138,1.36-2.005,0-2.141c-1.222-0.122-2.442,0.051-3.629,0.426
		c-4.34,1.371-8.204,5.602-9.812,9.415c-0.537,1.271,1.536,1.821,2.064,0.568c1.584-3.751,6.029-8.078,10.399-8.287
		C384.475,155.405,384.801,155.407,385.126,155.439z"/>
	<path style="fill:#505B66;" d="M391.174,160.136c-4.292,1.057-7.825,3.689-9.991,7.779c-0.647,1.219,1.202,2.3,1.848,1.079
		c2.196-4.145,5.924-6.661,10.572-7.147c0.082-0.009,0.158-0.028,0.241-0.036c1.106-0.098,1.307-1.507,0.617-1.979
		c-0.161-0.11-0.356-0.186-0.617-0.163C392.923,159.751,392.039,159.923,391.174,160.136z"/>
	<path style="fill:#505B66;" d="M389.567,173.615c-0.797,1.131,1.061,2.2,1.849,1.079c2.26-3.213,6.152-6.37,10.243-6.795
		c0.412-0.043,0.826-0.067,1.24-0.052c1.381,0.053,1.376-2.089,0-2.141c-1.178-0.044-2.343,0.125-3.478,0.446
		C395.431,167.28,391.836,170.388,389.567,173.615z"/>
	<path style="fill:#00B5AE;" d="M352.262,168.636c11.047,0,11.047-17.13,0-17.13C341.215,151.506,341.215,168.636,352.262,168.636z"
		/>
</g>
<g>
</g>
<g>
</g>
<g>
</g>
<g>
</g>
<g>
</g>
<g>
</g>
<g>
</g>
<g>
</g>
<g>
</g>
<g>
</g>
<g>
</g>
<g>
</g>
<g>
</g>
<g>
</g>
<g>
</g>
</svg>
