<?xml version="1.0" encoding="iso-8859-1"?>
<!-- Generator: Adobe Illustrator 19.0.0, SVG Export Plug-In . SVG Version: 6.00 Build 0)  -->
<svg version="1.1" id="Layer_1" xmlns="http://www.w3.org/2000/svg" xmlns:xlink="http://www.w3.org/1999/xlink" x="0px" y="0px"
	 viewBox="0 0 512 512" style="enable-background:new 0 0 512 512;" xml:space="preserve">
<path style="fill:#D19B3F;" d="M500.87,402.452L500.87,402.452c0,1.756-0.549,3.469-1.571,4.9l-54.082,75.715H100.174v-89.043
	H492.44C497.095,394.023,500.87,397.796,500.87,402.452z"/>
<path style="fill:#96712C;" d="M469.069,449.675l-23.851,33.391H100.174v-33.391H469.069z"/>
<path style="fill:#323030;" d="M512,491.967L512,491.967c0,11.064-8.969,20.033-20.033,20.033H20.033C8.969,512,0,503.031,0,491.967
	l0,0c0-11.064,8.969-20.033,20.033-20.033h471.936C503.031,471.936,512,480.904,512,491.967z"/>
<path style="fill:#D19B3F;" d="M130.402,52.191c7.933,13.697,5.665,31.016-5.527,42.209l0,0c-13.641,13.641-35.76,13.641-49.402,0
	l0,0c-11.192-11.192-13.46-28.512-5.526-42.209L100.174,0L130.402,52.191z"/>
<path style="fill:#E9B84C;" d="M124.875,94.399c-13.641,13.641-35.76,13.641-49.402,0c-6.236-6.236-9.693-14.377-10.168-22.732
	c13.677,10.173,33.085,9.094,45.497-3.318l0,0c9.334-9.334,12.435-22.922,8.615-35.123l10.985,18.965
	C138.336,65.888,136.067,83.207,124.875,94.399z"/>
<path style="fill:#92393C;" d="M166.957,132.458v345.043c0,3.073-2.492,5.565-5.565,5.565H38.957c-3.073,0-5.565-2.492-5.565-5.565
	V132.458c0-3.073,2.492-5.565,5.565-5.565h55.652v-5.565c0-3.073,2.492-5.565,5.565-5.565c3.073,0,5.565,2.492,5.565,5.565v5.565
	h55.652C164.464,126.893,166.957,129.383,166.957,132.458z"/>
<path style="fill:#DB6D53;" d="M111.304,126.893v44.522c0,6.147-4.983,11.13-11.13,11.13c-6.147,0-11.13-4.983-11.13-11.13v55.652
	c0,6.147-4.983,11.13-11.13,11.13s-11.13-4.983-11.13-11.13V126.893h22.261C89.043,126.893,111.304,126.893,111.304,126.893z"/>
<path style="fill:#9EA3AA;" d="M245.458,367.518v93.288h22.85c6.147,0,11.13,4.983,11.13,11.13c0,6.147-4.983,11.13-11.13,11.13
	h-67.96c-6.147,0-11.13-4.983-11.13-11.13c0-6.147,4.983-11.13,11.13-11.13h22.85v-93.287
	c-50.143-6.407-83.76-50.259-76.285-102.971l11.865-83.719h151.1l11.866,83.719C329.216,317.259,295.602,361.111,245.458,367.518z"
	/>
<path style="fill:#C5CAD1;" d="M296.247,180.827l9.049,63.839c6.111,43.104-23.805,78.444-66.657,79.128
	c-42.853-0.685-72.771-36.025-66.658-79.128l9.048-63.839L296.247,180.827L296.247,180.827z"/>
<path style="fill:#EFF4F4;" d="M248.278,296.487c-0.097,6.085-5.061,10.952-11.125,10.952c-0.061,0-0.121,0-0.183-0.001
	c-28.823-0.461-51.2-22.348-52.048-50.911c-0.183-6.145,4.65-11.273,10.795-11.455c6.168-0.174,11.273,4.651,11.455,10.795
	c0.496,16.713,13.177,29.042,30.153,29.313C243.474,285.279,248.377,290.341,248.278,296.487z M200.326,221.157
	c0.531,0.075,1.056,0.112,1.577,0.112c5.454,0,10.218-4.013,11.006-9.569l0.139-0.981c0.863-6.086-3.37-11.72-9.458-12.583
	c-6.089-0.864-11.72,3.37-12.583,9.458l-0.139,0.981C190.005,214.66,194.239,220.294,200.326,221.157z"/>
<path style="fill:#CEB896;" d="M498.062,266.88c0,23.369-19.012,42.381-42.38,42.381h-57.129c-11.094,0-20.119,9.026-20.119,20.119
	v31.251c0,6.147-4.983,11.13-11.13,11.13c-6.147,0-11.13-4.983-11.13-11.13v-31.251c0-23.368,19.012-42.38,42.38-42.38h57.129
	c11.094,0,20.119-9.026,20.119-20.12c0-11.094-9.026-20.119-20.119-20.119h-49.532c-23.368,0-42.379-19.013-42.379-42.381
	s19.011-42.38,42.379-42.38h33.5c11.094,0,20.119-9.025,20.119-20.118c0-6.147,4.983-11.13,11.13-11.13
	c6.147,0,11.13,4.983,11.13,11.13c0,23.368-19.012,42.379-42.38,42.379h-33.5c-11.093,0-20.118,9.026-20.118,20.119
	c0,11.095,9.025,20.12,20.118,20.12h49.532C479.052,224.5,498.062,243.511,498.062,266.88z"/>
<g>
</g>
<g>
</g>
<g>
</g>
<g>
</g>
<g>
</g>
<g>
</g>
<g>
</g>
<g>
</g>
<g>
</g>
<g>
</g>
<g>
</g>
<g>
</g>
<g>
</g>
<g>
</g>
<g>
</g>
</svg>
