<?xml version="1.0" encoding="iso-8859-1"?>
<!-- Generator: Adobe Illustrator 19.0.0, SVG Export Plug-In . SVG Version: 6.00 Build 0)  -->
<svg version="1.1" id="Layer_1" xmlns="http://www.w3.org/2000/svg" xmlns:xlink="http://www.w3.org/1999/xlink" x="0px" y="0px"
	 viewBox="0 0 512 512" style="enable-background:new 0 0 512 512;" xml:space="preserve">
<path style="fill:#9ED368;" d="M512,256.006C512,397.402,397.394,512.004,256.004,512C114.606,512.004,0,397.402,0,256.006
	C-0.007,114.61,114.606,0,256.004,0C397.394,0,512,114.614,512,256.006z"/>
<path style="fill:#8BC052;" d="M511.963,257.497c-0.197-0.196-0.391-0.395-0.59-0.59c-0.5-0.509-164.796-164.804-165.308-165.308
	C323.117,68.262,291.235,53.74,256,53.74c-69.703,0-126.413,56.709-126.413,126.413c0,34.069,13.605,64.946,35.605,87.665
	c0.489,0.523,1.019,1.003,1.517,1.517c0.49,0.523,80.701,80.723,80.863,80.895v32.185h-42.138c-4.654,0-8.428,3.774-8.428,8.427
	c0,2.721,1.374,5.029,3.376,6.571c0.445,0.577,47.123,47.194,47.189,47.275v5.148c0,2.72,1.373,5.028,3.374,6.57
	c0.446,0.579,49.469,49.601,50.048,50.048c0.382,0.495,0.825,0.905,1.299,1.298C421.097,486.044,511.246,382.407,511.963,257.497z"
	/>
<path style="fill:#F4F6F9;" d="M382.413,180.153C382.413,110.45,325.705,53.74,256,53.74s-126.413,56.708-126.413,126.413
	c0,66.86,52.212,121.616,117.985,125.986v76.274h-42.138c-4.654,0-8.428,3.774-8.428,8.428s3.774,8.428,8.428,8.428h42.138v50.565
	c0,4.654,3.774,8.428,8.428,8.428s8.428-3.774,8.428-8.428v-50.565h42.138c4.654,0,8.428-3.774,8.428-8.428
	s-3.774-8.428-8.428-8.428h-42.138v-76.274C330.201,301.769,382.413,247.012,382.413,180.153z M146.443,180.153
	c0-60.412,49.146-109.557,109.557-109.557s109.557,49.146,109.557,109.557S316.412,289.71,256,289.71
	S146.443,240.564,146.443,180.153z"/>
<g>
</g>
<g>
</g>
<g>
</g>
<g>
</g>
<g>
</g>
<g>
</g>
<g>
</g>
<g>
</g>
<g>
</g>
<g>
</g>
<g>
</g>
<g>
</g>
<g>
</g>
<g>
</g>
<g>
</g>
</svg>
