<?xml version="1.0" encoding="iso-8859-1"?>
<!-- Generator: Adobe Illustrator 19.0.0, SVG Export Plug-In . SVG Version: 6.00 Build 0)  -->
<svg version="1.1" id="Layer_1" xmlns="http://www.w3.org/2000/svg" xmlns:xlink="http://www.w3.org/1999/xlink" x="0px" y="0px"
	 viewBox="0 0 512 512" style="enable-background:new 0 0 512 512;" xml:space="preserve">
<path style="fill:#FBAE2E;" d="M187.069,337.485c-10.357-3.699-11.703-7.669-8.001-18.028c3.214-9,15.89-9.699,24.997-8.499
	c-7.806-4.838-18.444-13.617-15.229-22.614c3.7-10.362,15.095-15.759,25.454-12.059c0.754,0.269,1.472,0.591,2.174,0.939
	l3.645-67.802H25.059L44.09,454.418l38.541-30.774c-11.248,0-20.366-9.12-20.366-20.364v-15.314
	c0-11.248,9.119-20.366,20.366-20.366h125.398l3.425-45.077C206.648,330.43,196.128,340.718,187.069,337.485z"/>
<path style="fill:#DCE0E2;" d="M167.706,125.409c-0.704,0-1.419-0.09-2.132-0.279c-4.438-1.173-7.084-5.723-5.91-10.162
	L188.345,6.52c0.563-2.131,1.951-3.951,3.857-5.06c1.906-1.109,4.176-1.414,6.306-0.85l56.438,14.944
	c4.438,1.175,7.084,5.725,5.908,10.164c-1.175,4.437-5.726,7.082-10.164,5.908L202.291,18.81l-26.554,100.408
	C174.75,122.945,171.386,125.409,167.706,125.409z"/>
<path style="fill:#C0C9CC;" d="M475.679,459.948c-1.052-1.289-2.63-2.038-4.295-2.038H40.616c-1.665,0-3.241,0.749-4.293,2.038
	c-1.053,1.29-1.47,2.985-1.136,4.616l8.746,42.673c0.53,2.578,2.798,4.429,5.429,4.429h413.276c2.632,0,4.901-1.851,5.429-4.429
	l8.746-42.673C477.147,462.932,476.731,461.238,475.679,459.948z"/>
<path style="opacity:0.15;fill:#202020;enable-background:new    ;" d="M62.03,507.237l-8.746-42.673
	c-0.334-1.632,0.083-3.326,1.136-4.616c1.052-1.289,2.628-2.038,4.293-2.038H40.616c-1.665,0-3.241,0.749-4.293,2.038
	c-1.053,1.29-1.47,2.985-1.136,4.616l8.746,42.673c0.53,2.578,2.798,4.429,5.429,4.429H67.46
	C64.827,511.666,62.559,509.815,62.03,507.237z"/>
<path style="fill:#DCE0E2;" d="M512,451.081c0,11.364-9.209,20.577-20.578,20.577H20.577C9.214,471.657,0,462.445,0,451.081v-6.859
	c0-11.364,9.214-20.576,20.577-20.576h470.845c11.37,0,20.578,9.213,20.578,20.576V451.081z"/>
<path style="opacity:0.15;fill:#202020;enable-background:new    ;" d="M17.734,451.081v-6.859c0-11.364,9.214-20.576,20.576-20.576
	H20.576C9.214,423.645,0,432.857,0,444.221v6.859c0,11.364,9.214,20.577,20.577,20.577h17.734
	C26.948,471.657,17.734,462.445,17.734,451.081z"/>
<path style="fill:#FFFFFF;" d="M62.266,387.966c0-11.248,9.119-20.366,20.366-20.366h148.77c11.247,0,20.365,9.119,20.365,20.366
	v15.314c0,11.244-9.119,20.364-20.365,20.364H82.632c-11.248,0-20.366-9.12-20.366-20.364V387.966z"/>
<path style="opacity:0.15;fill:#202020;enable-background:new    ;" d="M80,403.281v-15.314c0-11.248,9.119-20.366,20.366-20.366
	H82.632c-11.248,0-20.366,9.119-20.366,20.366v15.314c0,11.244,9.119,20.364,20.366,20.364h17.734
	C89.117,423.645,80,414.525,80,403.281z"/>
<path style="fill:#FBAE2E;" d="M220.243,140.511H24.927c-3.061,0-5.542,2.481-5.542,5.542v36.761c0,3.061,2.481,5.542,5.542,5.542
	h195.316c3.061,0,5.542-2.481,5.542-5.542v-36.761C225.785,142.992,223.304,140.511,220.243,140.511z"/>
<path style="opacity:0.15;fill:#202020;enable-background:new    ;" d="M37.119,182.814v-36.761c0-3.061,2.481-5.542,5.542-5.542
	H24.927c-3.061,0-5.542,2.481-5.542,5.542v36.761c0,3.061,2.481,5.542,5.542,5.542h17.734
	C39.601,188.356,37.119,185.875,37.119,182.814z"/>
<rect x="135.531" y="114.672" style="fill:#9A6560;" width="54.058" height="25.837"/>
<path style="fill:#FFF1CE;" d="M187.728,282.804c-3.214,8.997,0.446,18.771,8.252,23.61c-9.107-1.2-18.13,4.044-21.345,13.045
	c-3.702,10.359,1.699,21.754,12.056,25.453c10.361,3.698,21.756-1.698,25.456-12.056l54.559,19.486l13.091-36.656l-54.559-19.487
	c3.702-10.358-1.699-21.754-12.056-25.454C202.823,267.045,191.428,272.441,187.728,282.804z"/>
<path style="fill:#8C5549;" d="M449.891,353.375c-8.91-29.844-36.864-50.686-67.981-50.686c-6.856,0-13.696,1.003-20.33,2.984
	c-5.905,1.762-11.565,4.29-16.821,7.513l-56.919-5.193c-3.024-0.277-5.844,1.53-6.866,4.386l-15.338,42.942
	c-1.02,2.857,0.022,6.043,2.535,7.744l45.714,30.948c3.035,10.147,8.4,19.642,15.519,27.459c1.26,1.383,3.046,2.172,4.918,2.172
	h95.125c1.873,0,3.66-0.79,4.919-2.176C451.018,403.162,456.964,377.07,449.891,353.375z"/>
<polygon style="opacity:0.15;fill:#202020;enable-background:new    ;" points="25.059,209.422 41.421,423.645 59.339,423.645 
	42.977,209.422 "/>
<path style="fill:#8C5549;" d="M0,188.22c0-8.78,7.122-15.904,15.903-15.904h213.368c8.782,0,15.901,7.123,15.901,15.904v5.3
	c0,8.785-7.119,15.903-15.901,15.903H15.903C7.122,209.422,0,202.305,0,193.52V188.22z"/>
<g>
	<path style="opacity:0.15;fill:#202020;enable-background:new    ;" d="M17.734,193.52v-5.3c0-8.78,7.122-15.904,15.903-15.904
		H15.903C7.122,172.316,0,179.439,0,188.22v5.3c0,8.785,7.122,15.903,15.903,15.903h17.734
		C24.856,209.422,17.734,202.305,17.734,193.52z"/>
	<path style="opacity:0.15;fill:#202020;enable-background:new    ;" d="M336.382,401.705c-2.224-4.167-3.978-8.499-5.294-12.92
		c-0.145-0.36-0.284-0.822-0.41-1.408c-0.026-0.112-0.055-0.213-0.081-0.323c-0.081-0.299-0.159-0.597-0.236-0.898
		c-0.38-1.275-0.877-2.358-1.41-3.284l-39.628-26.828c-2.513-1.701-3.555-4.887-2.535-7.744l13.975-39.129l-12.922-1.179
		c-3.024-0.277-5.844,1.53-6.866,4.386l-15.338,42.942c-1.02,2.857,0.022,6.043,2.535,7.744l45.714,30.948
		c3.035,10.147,8.4,19.643,15.519,27.459c1.26,1.383,3.046,2.172,4.918,2.172h20.354
		C347.245,417.711,340.964,410.289,336.382,401.705z"/>
</g>
<g>
</g>
<g>
</g>
<g>
</g>
<g>
</g>
<g>
</g>
<g>
</g>
<g>
</g>
<g>
</g>
<g>
</g>
<g>
</g>
<g>
</g>
<g>
</g>
<g>
</g>
<g>
</g>
<g>
</g>
</svg>
