<?xml version="1.0" encoding="iso-8859-1"?>
<!-- Generator: Adobe Illustrator 19.0.0, SVG Export Plug-In . SVG Version: 6.00 Build 0)  -->
<svg version="1.1" id="Layer_1" xmlns="http://www.w3.org/2000/svg" xmlns:xlink="http://www.w3.org/1999/xlink" x="0px" y="0px"
	 viewBox="0 0 512.001 512.001" style="enable-background:new 0 0 512.001 512.001;" xml:space="preserve">
<g>
	<polygon style="fill:#F7C02D;" points="170.64,228.588 89.165,60.535 78.708,105.885 89.165,132.391 142.433,242.264 	"/>
	<polygon style="fill:#F7C02D;" points="504.31,228.588 422.836,60.535 412.378,105.885 422.836,132.391 476.103,242.264 	"/>
</g>
<g>
	<polygon style="fill:#FBE27B;" points="89.164,60.534 7.69,228.588 35.897,242.264 89.164,132.391 89.165,132.391 89.165,60.535 	
		"/>
	<polygon style="fill:#FBE27B;" points="422.835,60.534 341.361,228.588 369.567,242.264 422.835,132.391 422.836,132.391 
		422.836,60.535 	"/>
</g>
<path style="fill:#F39624;" d="M278.081,22.076c0-12.191-9.883-22.073-22.073-22.073l0,0L245.551,482.8l32.53-20.914V22.076z"/>
<path style="fill:#F7C02D;" d="M233.934,22.076v439.809l22.073,20.914V0.003C243.816,0.003,233.934,9.885,233.934,22.076z"/>
<path style="fill:#E9751C;" d="M386.991,511.997L386.991,511.997c0-27.676-22.436-50.112-50.113-50.112h-80.87l-20.914,26.426
	l20.914,23.687h130.983V511.997z"/>
<path style="fill:#F39624;" d="M125.024,511.997L125.024,511.997h130.984v-50.112h-80.871
	C147.46,461.885,125.024,484.32,125.024,511.997z"/>
<polygon style="fill:#E9751C;" points="484.912,58.151 256.008,58.151 245.551,73.824 256.008,89.497 484.912,89.497 "/>
<g>
	<rect x="27.089" y="58.151" style="fill:#F39624;" width="228.914" height="31.347"/>
	<path style="fill:#F39624;" d="M89.165,222.336l-20.914,46.55l20.914,59.426c49.244,0,89.165-39.921,89.165-89.164v-16.81H89.165
		V222.336z"/>
</g>
<path style="fill:#F7C02D;" d="M0,222.336v16.81c0,49.244,39.921,89.164,89.165,89.164V222.336H0z"/>
<path style="fill:#F39624;" d="M422.836,222.336l-20.914,44.46l20.914,61.515c49.245,0,89.165-39.921,89.165-89.164v-16.81H422.836z
	"/>
<path style="fill:#F7C02D;" d="M333.67,222.336v16.81c0,49.244,39.921,89.164,89.165,89.164V222.336H333.67z"/>
<g>
</g>
<g>
</g>
<g>
</g>
<g>
</g>
<g>
</g>
<g>
</g>
<g>
</g>
<g>
</g>
<g>
</g>
<g>
</g>
<g>
</g>
<g>
</g>
<g>
</g>
<g>
</g>
<g>
</g>
</svg>
