<?xml version="1.0" encoding="UTF-8" standalone="no"?>
<svg
   style="enable-background:new"
   height="512"
   viewBox="0 0 512.40002 512"
   width="512.4"
   version="1.1"
   id="svg986"
   sodipodi:docname="logo.svg"
   inkscape:version="1.1 (a430696def, 2021-08-31)"
   xmlns:inkscape="http://www.inkscape.org/namespaces/inkscape"
   xmlns:sodipodi="http://sodipodi.sourceforge.net/DTD/sodipodi-0.dtd"
   xmlns="http://www.w3.org/2000/svg"
   xmlns:svg="http://www.w3.org/2000/svg">
  <sodipodi:namedview
     id="namedview988"
     pagecolor="#505050"
     bordercolor="#eeeeee"
     borderopacity="1"
     inkscape:pageshadow="0"
     inkscape:pageopacity="0"
     inkscape:pagecheckerboard="0"
     showgrid="false"
     inkscape:zoom="0.53999756"
     inkscape:cx="-193.51939"
     inkscape:cy="424.07599"
     inkscape:window-width="1679"
     inkscape:window-height="909"
     inkscape:window-x="26"
     inkscape:window-y="23"
     inkscape:window-maximized="0"
     inkscape:current-layer="svg986" />
  <defs
     id="defs958">
    <linearGradient
       id="a"
       y2="494"
       gradientUnits="userSpaceOnUse"
       x2="256"
       gradientTransform="matrix(1 0 0 1.076 0 -19.36)"
       y1="18"
       x1="256">
      <stop
         style="stop-color:#eaeaea"
         offset="0"
         id="stop953" />
      <stop
         style="stop-color:#f4f4f4"
         offset="1"
         id="stop955" />
    </linearGradient>
  </defs>
  <rect
     style="color:#000000;enable-background:accumulate;fill:#0000ef;fill-opacity:0.9561913"
     height="512"
     width="512"
     y="0"
     x="0"
     id="rect960" />
  <g
     transform="translate(0,18)"
     id="g968">
    <path
       style="color:#000000;opacity:0.3;fill:#ffffff;enable-background:accumulate"
       d="M 256,256 108.2,512 H 512 V 256 H 389.3 Z"
       transform="translate(0,-18)"
       id="path964" />
    <path
       style="color:#000000;opacity:0.15;fill:#ffffff;enable-background:accumulate"
       d="M 0,0 V 512 H 108.2 L 184.6,379.7 256,256 187.1,136 186.9,136.3 108.2,0 Z"
       transform="translate(0,-18)"
       id="path966" />
  </g>
  <path
     d="m-208.3 605.6c-7.842 0-14.55 5.029-17.32 12.19-0.0612-0.00067-0.1208 0-0.1823 0-7.088 0-12.83 6.002-12.83 13.41 0 7.404 5.746 13.41 12.83 13.41h17.5 16.33c5.155 0 9.333-4.365 9.333-9.75 0-4.543-2.974-8.363-7-9.445 0.001-0.1029 0-0.2015 0-0.3047 0-10.77-8.357-19.5-18.67-19.5z"
     style="stroke-width:4;color:#000000;stroke:#ccc;enable-background:accumulate;display:none;fill:#fff"
     id="path970" />
  <path
     style="stroke-width:4;color:#000000;stroke:#ccc;enable-background:accumulate;display:none;fill:none"
     d="m288.9 828.1c-6.349 0-11.78 4.072-14.02 9.867-0.0496-0.00055-0.0978 0-0.1476 0-5.738 0-10.39 4.86-10.39 10.85 0 5.995 4.652 10.85 10.39 10.85h14.17 13.22c4.173 0 7.557-3.534 7.557-7.894 0-3.678-2.408-6.771-5.667-7.647 0.001-0.0833 0-0.1632 0-0.2467 0-8.719-6.766-15.79-15.11-15.79z"
     id="path972" />
  <g
     style="display:none"
     transform="translate(0 -558.4)"
     id="g984">
    <path
       d="m166.1 576.4h179.9c145.3 0 166.1 20.74 166.1 165.9v144.2c0 145.2-20.76 165.9-166.1 165.9h-179.9c-145.3 0-166.1-20-166.1-165.5v-144.2c0-145.2 20.76-165.9 166.1-165.9z"
       style="stroke:#00f;fill:#00f;display:inline;fill-opacity:.08118"
       id="path974" />
    <circle
       style="stroke-width:.8333;fill-opacity:.08118;color:#000000;stroke:#00f;enable-background:accumulate;display:inline;fill:#00f"
       cx="256"
       transform="matrix(1.2 0 0 1.2 -51.2 528.8)"
       cy="238"
       r="120"
       id="circle976" />
    <rect
       style="stroke-linejoin:round;fill-opacity:.08118;color:#000000;stroke:#00f;stroke-linecap:round;enable-background:accumulate;display:inline;fill:#00f"
       height="272"
       width="272"
       y="678.4"
       x="120"
       id="rect978" />
    <rect
       style="stroke-linejoin:round;fill-opacity:.08118;color:#000000;stroke:#00f;stroke-linecap:round;enable-background:accumulate;display:inline;fill:#00f"
       height="240"
       width="304"
       y="694.4"
       x="104"
       id="rect980" />
    <rect
       style="stroke-linejoin:round;fill-opacity:.08118;color:#000000;stroke:#00f;stroke-linecap:round;enable-background:accumulate;display:inline;fill:#00f"
       height="304"
       width="240"
       y="662.4"
       x="136"
       id="rect982" />
  </g>
  <path
     id="path28"
     d="m 259.00781,109.10742 c -43.41,0 -84.33251,10.21005 -115.22851,28.74805 -32.096,19.258 -49.771488,45.27195 -49.771488,73.25195 0,16.465 10.260748,30.56925 24.718748,36.28125 -4.098,5.309 -6.54297,11.95602 -6.54297,19.16602 0,8.255 3.20869,15.76586 8.42969,21.38086 -7.624,5.171 -12.64648,13.90501 -12.64648,23.79101 0,5.553 1.59493,10.73375 4.33593,15.13282 -8.957,2.314 -18.294917,8.44517 -18.294918,24.70117 0,19.826 14.352138,35.95507 31.994138,35.95507 h 266.01172 c 17.642,0 31.99414,-16.12907 31.99414,-35.95507 0,-16.257 -9.33792,-22.38722 -18.29492,-24.70117 2.74,-4.39901 4.33396,-9.57982 4.33399,-15.13282 0,-9.884 -5.01963,-18.61611 -12.64063,-23.78711 5.221,-5.615 8.42578,-13.12976 8.42578,-21.38476 0,-7.21 -2.44497,-13.85702 -6.54297,-19.16602 14.459,-5.712 24.71875,-19.81625 24.71875,-36.28125 0,-27.98 -17.67648,-53.99395 -49.77148,-73.25195 -30.896,-18.538 -71.82052,-28.74805 -115.22852,-28.74805 z m 0,15 c 40.729,0 78.90977,9.45038 107.50977,26.60938 27.4,16.439 42.49023,37.88662 42.49023,60.39062 0,13.234 -10.767,24.00196 -24,24.00196 h -252 c -13.234,0 -24,-10.76696 -24,-24.00196 0,-22.504 15.08928,-43.95062 42.48828,-60.39062 28.599,-17.159 66.78072,-26.60938 107.51172,-26.60938 z m -115.3789,126.00196 h 230.75586 c 9.067,0 16.44531,7.37831 16.44531,16.44531 0,1.711 -0.264,3.36011 -0.75,4.91211 -0.11427,-0.0154 -0.20979,-0.0457 -0.32227,-0.0625 -0.004,0.0396 -0.008,0.0805 -0.0117,0.11914 -0.006,0.0998 -0.005,0.0601 -0.008,0.0898 0.0195,0.0846 0.0225,0.17422 0.01,0.25977 -0.0308,0.19129 -0.0829,0.37727 -0.125,0.5664 -0.70665,0.80817 -0.23543,0.44873 -1.02735,0.80469 0.0619,0.0135 0.10967,-0.0469 0.16797,-0.0449 0.0481,0.002 -0.0276,0.10502 -0.0996,0.23242 -0.18158,0.26741 -0.31348,0.56563 -0.51172,0.82227 -0.0405,0.0524 -0.0862,0.10141 -0.13086,0.15039 0.0317,-0.0151 -0.0394,0.0584 -0.0586,0.0879 -0.14968,0.39292 -0.3519,0.76737 -0.63086,1.08593 -0.13832,0.15799 -0.303,0.29307 -0.44336,0.44922 0.0219,-0.006 0.0684,-0.0422 0.0664,-0.0195 -0.005,0.0668 -0.0479,0.12575 -0.0781,0.18555 -0.17907,0.35451 -0.22592,0.39269 -0.55468,0.72461 -0.50043,0.50516 -0.27595,0.16146 -0.48633,0.51953 -0.22534,0.49631 -0.65368,0.86135 -0.97852,1.29102 0.0193,0.0543 0.0568,-0.0514 0.0488,-0.0332 -0.0467,0.10236 -0.0515,0.24149 -0.14453,0.30469 -0.32859,0.22328 -0.72653,0.3258 -1.07227,0.52148 -0.0413,0.0229 0.0956,0.01 0.14258,0.004 0.0698,-0.009 0.13678,-0.0338 0.20508,-0.0508 0.0212,-0.008 0.0446,-0.0393 0.0625,-0.0254 0.0154,0.0118 -0.0172,0.0353 -0.0312,0.0488 -0.11607,0.11154 -0.23661,0.21979 -0.35742,0.32617 -0.0948,0.0835 -0.19327,0.16184 -0.28906,0.24414 -0.0719,0.0617 -0.13485,0.1367 -0.21485,0.1875 -0.16372,0.10396 -0.34061,0.18214 -0.51172,0.27344 -0.26309,0.12879 -0.53577,0.25315 -0.82422,0.31445 -0.005,9.9e-4 -0.0108,0.005 -0.0156,0.006 -0.47378,0.38089 -0.9809,0.66381 -1.25391,0.83594 -0.0804,0.0325 -0.1663,0.0558 -0.24218,0.0977 -0.01,0.006 0.0124,0.0262 0.004,0.0332 -0.0802,0.0605 -0.17321,0.1041 -0.25781,0.1582 -0.0322,0.0206 -0.0606,0.0482 -0.0937,0.0664 -0.13868,0.0748 -0.2793,0.14373 -0.41992,0.21484 -0.0515,0.0368 -0.25947,0.15795 -0.78907,0.44922 -0.32694,0.1416 -0.17922,0.0649 -0.44335,0.22265 -0.0364,0.0305 -0.0706,0.0644 -0.10938,0.0918 -0.0524,0.0371 -0.1076,0.0695 -0.16211,0.10352 -0.0177,0.011 -0.0354,0.0217 -0.0527,0.0332 -0.009,0.006 -0.0344,0.0275 -0.0254,0.0215 -0.0892,0.0709 -0.17355,0.14997 -0.27735,0.19532 -0.16426,0.0718 -0.34781,0.0884 -0.52148,0.13281 -0.11717,-0.005 -0.23436,-0.0216 -0.35156,-0.0176 -0.017,6e-4 0.0576,0.0183 0.043,0.0273 -0.0141,0.008 -0.27901,0.0585 -0.29101,0.0605 -0.95717,0.18383 -1.56521,-0.14968 -1.75586,-0.60937 -0.1577,0.006 -0.30972,0.0332 -0.46875,0.0332 h -50.39258 c -0.24931,0.1537 -0.58129,0.26411 -1,0.29883 -0.69121,0.0573 -1.38409,0.0537 -2.07617,0.0293 -0.35755,0.003 -0.7147,0.005 -1.07227,0.004 -0.40013,-10e-4 -0.80104,-1.1e-4 -1.20117,0 -0.2141,0.01 -0.4357,-0.0345 -0.63867,-0.11914 -0.0437,-0.005 -0.0921,-0.0134 -0.12109,-0.0117 -0.42324,0.0339 -0.82961,0.0435 -1.2461,-0.0644 -0.54344,-0.19428 -0.30824,-0.13135 -0.69726,-0.21875 -0.23248,-0.0748 -0.45305,-0.1149 -0.69336,-0.0957 -0.0822,0.007 -0.1642,0.0285 -0.2461,0.0195 -0.29062,-0.0336 -0.43209,-0.091 -0.5957,-0.13282 h -0.78125 -1.99609 -1.16211 -0.95703 c -0.76488,0 -1.53004,10e-6 -2.29493,0 -0.49124,0 -0.98141,3e-5 -1.47265,0 -0.34906,-6e-5 -0.69977,-3.5e-4 -1.04883,0 -0.45101,-3e-5 -0.90056,-0.002 -1.35156,0 -0.33239,0.008 -0.66618,0.006 -0.99805,-0.0156 -0.15772,-0.003 -0.30194,0.0289 -0.45898,0.0469 -0.34782,0.0398 -0.32733,0.0333 -0.66211,0.0274 -0.0918,-0.001 -0.18359,-0.006 -0.27539,-0.008 -0.10694,-0.003 -0.2134,-0.0138 -0.32032,-0.01 -0.10928,0.004 -0.18806,0.028 -0.30273,0.043 -0.34253,0.0449 -0.28255,0.0332 -0.63281,0.0332 h -1.20703 -1.33985 -1.54101 -2.49414 -0.8125 -1.50196 -1.14258 c -0.0405,0.005 -0.0811,0.009 -0.12109,0.0176 -0.33755,0.0741 -0.66807,0.19254 -1.02148,0.14844 h -0.79493 -0.9707 -0.0586 c 0.006,0.003 0.0112,0.007 0.0176,0.01 h -54.14257 c -0.0852,0.0355 -0.18905,0.0586 -0.31641,0.0586 h -0.55664 c -0.0109,0 -0.0221,-0.001 -0.0332,0.002 -0.15589,0.0568 -0.25696,0.0487 -0.41797,0.0312 -0.0113,-10e-4 0.0247,0.002 0.0351,0.006 0.006,0.003 -0.0145,-3.4e-4 -0.0215,0 -0.0413,0.0176 -0.0915,-0.0148 -0.13281,0.002 -0.009,0.004 0.0314,0.0116 0.0234,0.0176 -0.0253,0.0208 -0.0592,0.0256 -0.0898,0.0371 -0.13457,0.0505 -0.1042,0.0352 -0.28906,0.0527 -0.18944,-0.027 -0.37997,-0.0284 -0.57031,-0.0234 -0.12972,0.004 -0.25897,-3e-5 -0.38868,0 -0.1649,5e-4 -0.32925,7e-5 -0.49414,0 -0.1649,-4e-5 -0.33119,0 -0.49609,0 -0.1409,-10e-6 -0.28081,0 -0.42188,0 H 228 227.34375 c -0.14551,-0.0101 -0.28042,-0.0424 -0.41211,-0.10352 -0.0264,-0.0122 -0.0524,-0.0273 -0.0781,-0.041 -0.19843,0.0338 -0.40289,0.0294 -0.60352,0.0234 -0.16193,0.0174 -0.31665,-0.0487 -0.47656,-0.0547 -0.0397,-10e-4 -0.0794,0.01 -0.11914,0.0117 -0.26125,0.012 -0.52184,0.01 -0.78321,0.008 -0.13135,9.5e-4 -0.26316,0.002 -0.39453,0.002 -0.22272,-2.1e-4 -0.44525,-2e-5 -0.66797,0 h -0.79492 -0.46484 -0.73047 -1.05274 -0.45117 -0.80859 -0.42969 -1.09961 -0.32812 -0.61719 -0.69922 -0.69531 -0.71289 -0.79492 -0.50391 -0.75195 -0.65625 -0.95118 -0.80078 -0.74609 -0.31445 -0.60547 -0.67188 -0.64843 -0.4336 -0.58398 -0.51953 -0.49805 -0.53906 -0.9043 -0.39258 -0.32226 -0.38477 -0.54297 -0.60351 -0.40821 -0.0391 c -0.13075,0 -0.21556,-0.0337 -0.29492,-0.0723 -0.049,0.0194 -0.10316,0.0346 -0.16406,0.0469 -0.0703,0.0142 -0.14044,0.0317 -0.21094,0.0449 -0.0291,0.005 -0.0587,0.009 -0.0879,0.0137 v 0.0117 c 10e-4,0.007 -0.0195,0.01 -0.0215,0.004 v -0.004 c -0.007,0.001 -0.013,0.005 -0.0195,0.006 v 0.008 c 2.7e-4,0.001 -0.003,2.4e-4 -0.006,0 0.002,-3.3e-4 0.004,-0.008 0.006,-0.008 -0.006,-0.0392 -0.0146,-0.0781 -0.0215,-0.11719 -0.0149,-0.0421 -0.0281,-0.0848 -0.043,-0.12695 6.3e-4,0.0822 -0.001,0.16398 0.002,0.24609 -0.0928,0.0148 -0.19756,4.2e-4 -0.28906,0.0117 -0.0166,0.002 -0.0329,0.009 -0.0488,0.0137 -0.0368,0.0117 -0.0726,0.0255 -0.10937,0.0371 -0.16614,0.0467 -0.33559,0.0677 -0.50782,0.0547 -0.0735,-0.005 -0.13949,-0.0207 -0.21289,-0.0215 -0.15154,0.009 -0.30336,0.007 -0.45507,0.006 -0.12522,-10e-4 -0.24978,-0.002 -0.375,-0.002 -0.19453,-10e-5 -0.38946,-2e-5 -0.58399,0 -0.11753,2e-5 -0.23599,0 -0.35351,0 h -0.54297 -0.32813 -0.24609 c -0.21968,0 -0.37643,-0.0638 -0.4707,-0.15429 h -52.29102 c -0.20518,0 -0.4008,-0.0356 -0.60352,-0.0449 -0.001,0.0887 -0.006,0.17693 -0.0156,0.26562 -0.002,0.0224 -0.35212,0.0718 -0.6875,0.12891 -0.0457,0.38416 -0.0807,0.49214 -0.0996,0.0176 -0.26693,0.0475 -0.50098,0.0985 -0.50586,0.14454 -0.13551,1.27752 -1.06924,0.52642 -1.38281,-0.42774 -0.41108,-0.0293 -0.43395,0.003 -0.81641,-0.13867 -0.107,-0.0395 -0.25725,-0.0362 -0.31445,-0.13477 -0.002,-0.004 0.001,-0.007 -0.002,-0.01 -0.27851,0.0313 -0.51531,0.0347 -0.79687,-0.0293 -0.16213,-0.0368 -0.1968,-0.0582 -0.17578,-0.0703 -0.22603,0.0395 -0.18393,0.0837 -0.79492,-0.0664 -0.0852,-0.0209 -0.15527,-0.0837 -0.23047,-0.1289 -0.004,-0.003 -0.0129,-0.008 -0.0195,-0.0117 -0.0989,0.0139 -0.19936,0.0242 -0.29883,0.0215 -0.38447,-0.009 -0.7511,-0.16152 -1.07813,-0.35156 -0.25391,-0.14407 -0.40397,-0.22612 -0.70507,-0.42969 -0.0253,-0.0171 -0.078,-0.1039 -0.10547,-0.1289 -0.0841,-0.0767 -0.36185,-0.2759 -0.40625,-0.3086 -0.63687,-0.50468 -1.26609,-1.07968 -1.54883,-1.86328 0.0241,0.0262 0.0452,0.0549 0.0723,0.0781 0.006,0.005 0.001,-0.0174 -0.006,-0.0234 -0.0795,-0.10279 -0.1727,-0.19353 -0.2461,-0.30078 -0.0778,-0.11363 -0.13803,-0.2402 -0.20703,-0.35938 0.0124,0.009 0.0431,0.041 0.0371,0.0274 -0.0195,-0.0436 -0.0518,-0.0812 -0.0781,-0.1211 -0.067,-0.0874 -0.13627,-0.17283 -0.20117,-0.26172 -0.009,-0.0121 -0.0185,-0.026 -0.0195,-0.041 -5e-4,-0.006 0.0196,-0.008 0.0156,-0.0117 -0.21108,-0.22629 -0.45432,-0.42381 -0.61133,-0.69727 -0.31729,-0.6389 -0.30578,-0.11099 -0.56445,-0.96875 -0.2256,-0.19828 -0.42703,-0.41555 -0.58985,-0.68359 -0.22382,-0.36847 -0.26844,-0.2565 -0.18164,-0.42188 -0.14037,-0.21015 0.0159,0.0116 -0.30273,-0.33398 -0.12795,-0.13877 -0.29475,-0.35464 -0.4043,-0.50391 -0.12045,-0.16421 -0.11138,-0.10017 -0.10938,-0.21484 -0.36217,-0.23537 -0.1853,-0.0623 -0.0195,-0.13672 0.0402,-0.0183 -0.0963,0.0203 -0.13281,-0.0117 -1.0428,-0.70828 -0.97484,-0.43312 -1.15039,-1.07617 0.0219,0.0274 0.082,0.11205 0.0664,0.0801 -0.0835,-0.16823 -0.22286,-0.30582 -0.28516,-0.48633 -0.1692,-0.34581 0.38456,0.4084 -0.22461,-0.40039 -0.12027,-0.15968 -0.25416,-0.30827 -0.38086,-0.46289 v -0.004 c -0.82318,-1.00461 -0.56626,-1.92442 0.0664,-2.14648 -0.23638,-1.1074 -0.40235,-2.2404 -0.40235,-3.41797 0,-9.067 7.37732,-16.44534 16.44532,-16.44531 z m 83.22461,32.93164 c -0.008,-0.004 -0.0168,-0.01 -0.0254,-0.0137 -0.008,-0.004 -0.0334,-0.01 -0.0254,-0.008 0.0165,0.009 0.0335,0.0135 0.0508,0.0215 z m 138.23632,-25.33204 c -0.0276,0.006 -0.0537,0.0172 -0.0801,0.0274 0.0499,-0.0219 0.11088,-0.034 0.0801,-0.0274 z m -88.91211,0.92188 c -0.23538,0.008 -0.51166,0.0107 -0.37304,0.0566 0.32082,0.10613 0.65614,0.1642 0.98828,0.23242 -0.20476,-0.0963 -0.40973,-0.19422 -0.61524,-0.28906 z m 59.92774,0.375 c -0.16863,0.0966 -0.32633,0.1827 -0.49024,0.27539 -0.006,0.0319 -0.0116,0.0638 -0.0176,0.0957 0.17049,-0.0984 0.26595,-0.087 0.45507,-0.21484 0.0179,-0.052 0.0347,-0.10431 0.0527,-0.15625 z m -153.64258,0.24805 c 0.0308,0.003 -0.57386,-0.0656 0.56836,0.0898 h 1.01172 c -0.0217,-0.015 -0.10917,-0.0804 -0.12109,-0.0898 -0.1649,3.8e-4 -0.32402,-0.001 -0.60352,0.002 -0.28517,6.3e-4 -0.57031,-0.002 -0.85547,-0.002 z m 157.69141,7.1289 c -0.0436,0.0104 -0.0886,0.0165 -0.13086,0.0312 0.0463,-0.006 0.0906,-0.0119 0.13672,-0.0176 -0.001,-0.005 -0.005,-0.009 -0.006,-0.0137 z m 16.3125,4.26758 c -0.11031,0.0368 -0.25062,0.0797 -0.3711,0.11914 0.0868,0.0225 0.174,0.045 0.25977,0.0684 0.0377,-0.0623 0.0711,-0.12689 0.11133,-0.1875 z m -225.08985,6.24219 c 0.0405,0.0834 0.10649,0.15094 0.23438,0.18164 -0.081,-0.0591 -0.158,-0.12002 -0.23438,-0.18164 z m 250.78321,1.36523 c -0.2696,0.0902 -0.44694,0.14337 -0.69727,0.34375 -0.009,0.007 -0.002,0.0202 0.002,0.0332 0.11151,-0.0261 0.1802,-0.0121 0.40625,-0.14258 -0.0376,0.0373 -0.15508,0.14383 -0.11328,0.11133 0.13952,-0.10852 0.26888,-0.22965 0.40235,-0.34571 z m -7.77735,0.9668 c -0.004,0.002 -0.008,0.002 -0.0117,0.004 -0.0486,0.0209 -0.0413,0.0197 -0.006,0.01 0.007,-0.005 0.0107,-0.008 0.0176,-0.0137 z m -184.05078,0.0684 c 0.0192,0.0133 0.041,0.0257 0.0606,0.0391 -0.01,-0.0117 -0.0191,-0.0247 -0.0293,-0.0351 -0.0106,-0.002 -0.0209,-0.003 -0.0312,-0.004 z m 4.10352,2.49609 c -0.0111,10e-4 -0.0222,0.003 -0.0332,0.004 0.0188,0.0113 0.0398,0.0219 0.0586,0.0332 -0.01,-0.0118 -0.0176,-0.0246 -0.0254,-0.0371 z m -52,0.4668 c -0.0289,2.8e-4 -0.0567,0.002 -0.0859,0.002 h -0.20117 c 0.005,0.0618 0.0103,0.12377 0.0156,0.18555 0.0868,-0.0538 0.17856,-0.10604 0.26953,-0.1582 8.8e-4,-0.01 -0.001,-0.0196 0.002,-0.0293 z m 88.84179,0.14258 c -0.002,7.5e-4 -0.003,-0.001 -0.006,0.002 -0.0521,0.11427 -0.25165,0.42535 -0.15625,0.34375 0.0999,-0.0854 0.12354,-0.23282 0.19141,-0.3457 -0.01,-2e-5 -0.0195,3e-5 -0.0293,0 z m -0.45312,0.0156 c -0.0639,-0.001 -0.12753,0.007 -0.19141,0.006 0.0429,0.004 0.0861,0.003 0.12891,0.01 -0.0147,0.006 -0.0313,0.009 -0.043,0.0195 -0.009,0.008 0.022,-0.006 0.0332,-0.01 0.0235,-0.009 0.0485,-0.0161 0.0723,-0.0254 z m -93.32227,0.0117 c -0.0329,3.6e-4 -0.1262,0.0487 -0.17187,0.0547 -0.008,10e-4 -0.0156,0.003 -0.0234,0.004 0.006,9.9e-4 0.0131,0.003 0.0195,0.004 0.0613,-0.0143 0.1571,0.0141 0.1836,-0.043 0.006,-0.0139 0.003,-0.0197 -0.008,-0.0195 z m 4.69727,0.4707 c 0.008,0.11659 0.0164,0.23333 0.0195,0.34961 0.001,0.0536 0.004,0.0797 0.006,0.12305 0.0331,-0.006 0.0658,-0.0118 0.0996,-0.0176 0.0146,-0.12282 0.0304,-0.27703 0.0469,-0.4414 -0.0571,-0.005 -0.11493,-0.008 -0.17187,-0.0137 z m -5.50195,15.10547 h 244.62109 c 7.57,0 13.72831,6.15657 13.72852,13.72657 0,7.57 -6.15752,13.72851 -13.72852,13.72851 H 136.69727 c -7.57,0 -13.73047,-6.15751 -13.73047,-13.72851 0,-7.57 6.16047,-13.72657 13.73047,-13.72657 z m -10.69532,42.45313 h 266.01172 c 15.811,0 16.99414,4.39747 16.99414,11.10547 0,11.555 -7.62414,20.95534 -16.99414,20.95507 H 126.00195 c -9.371,0 -16.99414,-9.40007 -16.99414,-20.95507 0,-6.708 1.18314,-11.10547 16.99414,-11.10547 z"
     style="fill:#e6e6e6" />
</svg>
