<?xml version="1.0" encoding="UTF-8" standalone="no"?>
<svg
   style="enable-background:new"
   height="512"
   viewBox="0 0 512.40002 512"
   width="512.4"
   version="1.1"
   id="svg35"
   sodipodi:docname="logo.svg"
   inkscape:version="1.2 (0838b55d0b, 2022-06-10, custom)"
   xmlns:inkscape="http://www.inkscape.org/namespaces/inkscape"
   xmlns:sodipodi="http://sodipodi.sourceforge.net/DTD/sodipodi-0.dtd"
   xmlns="http://www.w3.org/2000/svg"
   xmlns:svg="http://www.w3.org/2000/svg">
  <sodipodi:namedview
     id="namedview37"
     pagecolor="#ffffff"
     bordercolor="#999999"
     borderopacity="1"
     inkscape:pageshadow="0"
     inkscape:pageopacity="0"
     inkscape:pagecheckerboard="0"
     showgrid="false"
     showguides="false"
     inkscape:zoom="1.0799951"
     inkscape:cx="136.11172"
     inkscape:cy="209.2602"
     inkscape:window-width="1920"
     inkscape:window-height="949"
     inkscape:window-x="0"
     inkscape:window-y="0"
     inkscape:window-maximized="1"
     inkscape:current-layer="svg35"
     inkscape:showpageshadow="0"
     inkscape:deskcolor="#d1d1d1" />
  <defs
     id="defs7">
    <linearGradient
       id="a"
       y2="494"
       gradientUnits="userSpaceOnUse"
       x2="256"
       gradientTransform="matrix(1,0,0,1.076,248.78662,-26.829421)"
       y1="18"
       x1="256">
      <stop
         style="stop-color:#eaeaea"
         offset="0"
         id="stop5042" />
      <stop
         style="stop-color:#f4f4f4"
         offset="1"
         id="stop5044" />
    </linearGradient>
    <linearGradient
       id="a-6"
       y2="494"
       gradientUnits="userSpaceOnUse"
       x2="256"
       gradientTransform="matrix(1,0,0,1.076,248.78662,-26.829421)"
       y1="18"
       x1="256">
      <stop
         style="stop-color:#eaeaea"
         offset="0"
         id="stop2" />
      <stop
         style="stop-color:#f4f4f4"
         offset="1"
         id="stop4" />
    </linearGradient>
  </defs>
  <path
     d="m-208.3 605.6c-7.842 0-14.55 5.029-17.32 12.19-0.0612-0.00067-0.1208 0-0.1823 0-7.088 0-12.83 6.002-12.83 13.41 0 7.404 5.746 13.41 12.83 13.41h17.5 16.33c5.155 0 9.333-4.365 9.333-9.75 0-4.543-2.974-8.363-7-9.445 0.001-0.1029 0-0.2015 0-0.3047 0-10.77-8.357-19.5-18.67-19.5z"
     style="stroke-width:4;color:#000000;stroke:#ccc;enable-background:accumulate;display:none;fill:#fff"
     id="path19" />
  <path
     style="stroke-width:4;color:#000000;stroke:#ccc;enable-background:accumulate;display:none;fill:none"
     d="m288.9 828.1c-6.349 0-11.78 4.072-14.02 9.867-0.0496-0.00055-0.0978 0-0.1476 0-5.738 0-10.39 4.86-10.39 10.85 0 5.995 4.652 10.85 10.39 10.85h14.17 13.22c4.173 0 7.557-3.534 7.557-7.894 0-3.678-2.408-6.771-5.667-7.647 0.001-0.0833 0-0.1632 0-0.2467 0-8.719-6.766-15.79-15.11-15.79z"
     id="path21" />
  <g
     style="display:none"
     transform="translate(0 -558.4)"
     id="g33">
    <path
       d="m166.1 576.4h179.9c145.3 0 166.1 20.74 166.1 165.9v144.2c0 145.2-20.76 165.9-166.1 165.9h-179.9c-145.3 0-166.1-20-166.1-165.5v-144.2c0-145.2 20.76-165.9 166.1-165.9z"
       style="stroke:#00f;fill:#00f;display:inline;fill-opacity:.08118"
       id="path23" />
    <circle
       style="stroke-width:.8333;fill-opacity:.08118;color:#000000;stroke:#00f;enable-background:accumulate;display:inline;fill:#00f"
       cx="256"
       transform="matrix(1.2 0 0 1.2 -51.2 528.8)"
       cy="238"
       r="120"
       id="circle25" />
    <rect
       style="stroke-linejoin:round;fill-opacity:.08118;color:#000000;stroke:#00f;stroke-linecap:round;enable-background:accumulate;display:inline;fill:#00f"
       height="272"
       width="272"
       y="678.4"
       x="120"
       id="rect27" />
    <rect
       style="stroke-linejoin:round;fill-opacity:.08118;color:#000000;stroke:#00f;stroke-linecap:round;enable-background:accumulate;display:inline;fill:#00f"
       height="240"
       width="304"
       y="694.4"
       x="104"
       id="rect29" />
    <rect
       style="stroke-linejoin:round;fill-opacity:.08118;color:#000000;stroke:#00f;stroke-linecap:round;enable-background:accumulate;display:inline;fill:#00f"
       height="304"
       width="240"
       y="662.4"
       x="136"
       id="rect31" />
  </g>
  <path
     style="fill:#b27214;stroke-width:1"
     d="m 250.75654,134.55764 c -3.41218,0 -6.17863,-2.8769 -6.17863,-6.4253 v -19.38718 c 0,-22.802315 10.85987,-44.044225 29.04986,-56.821725 2.82804,-1.98672 6.66884,-1.21299 8.57866,1.72795 1.91045,2.94094 1.16642,6.93508 -1.66161,8.92115 -14.78341,10.38515 -23.60904,27.645869 -23.60904,46.173275 v 19.38717 c -6.2e-4,3.54776 -2.76707,6.42466 -6.17924,6.42466 z"
     id="path2" />
  <path
     style="fill:#9ad14b;stroke-width:1"
     d="m 250.38577,97.779064 c -37.83008,0 -68.50111,-31.895549 -68.50111,-71.235949 18.91473,0 36.04218,7.97599 48.44049,20.86928 12.39084,12.88554 20.06062,30.69614 20.06062,50.366669 z"
     id="path4" />
  <path
     style="fill:#f95428;stroke-width:1"
     d="m 274.08688,115.62396 c 68.0644,0 115.4915,70.25909 92.36707,136.83456 l -21.02424,60.4924 c -1.73813,5.00335 -3.98762,9.71494 -6.67319,14.06748 -3.67408,5.93687 -8.17243,11.22292 -13.28852,15.69514 h -0.008 c -4.62961,4.05237 -9.77059,7.43645 -15.28171,10.07528 -12.86798,6.13418 -27.58981,6.51975 -40.91938,1.61085 -3.15526,-1.15671 -6.37645,-2.00483 -9.63871,-2.56184 -2.93254,-0.49684 -5.90677,-0.73685 -8.8642,-0.73685 -6.26136,0 -12.51401,1.09655 -18.5029,3.29804 -4.4405,1.62768 -9.02096,2.68153 -13.64249,3.12726 -9.27602,0.89082 -18.69264,-0.6424 -27.2769,-4.73746 -16.073,-7.66741 -28.98205,-21.78599 -35.25959,-39.83725 L 135.0585,252.45917 C 111.92536,185.8837 159.35308,115.62461 227.41749,115.62461 h 23.33905 z"
     id="path6" />
  <path
     style="fill:#e54728;stroke-width:1"
     d="m 212.0941,312.95092 -21.01553,-60.4924 c -22.59939,-65.03901 22.14712,-133.5805 87.68333,-136.71099 -1.54776,-0.0737 -3.10424,-0.12422 -4.67502,-0.12422 h -23.33097 -23.33905 c -68.0644,0 -115.4915,70.25909 -92.35898,136.83457 l 21.01553,60.4924 c 6.27754,18.05126 19.18658,32.16984 35.25959,39.83724 8.58426,4.09507 18.00025,5.62893 27.2769,4.73747 4.62152,-0.44574 9.20199,-1.49894 13.64249,-3.12726 4.06289,-1.49311 8.24895,-2.46545 12.47545,-2.94547 -14.84625,-7.90806 -26.70209,-21.4457 -32.63374,-38.50134 z"
     id="path8" />
  <rect
     style="fill:#000000;fill-opacity:1;fill-rule:evenodd;stroke-width:0.999997"
     id="rect846-7"
     width="4.6130252"
     height="91.523102"
     x="212.76672"
     y="400.02179"
     rx="0"
     ry="0" />
  <rect
     style="fill:#000000;fill-opacity:1;fill-rule:evenodd;stroke-width:0.999997"
     id="rect846-7-3"
     width="4.6130252"
     height="78.787788"
     x="223.32082"
     y="400.02179"
     rx="0"
     ry="0" />
  <rect
     style="fill:#000000;fill-opacity:1;fill-rule:evenodd;stroke-width:0.999997"
     id="rect846-7-3-6"
     width="4.6130252"
     height="78.825249"
     x="230.30241"
     y="400.02179"
     rx="0"
     ry="0" />
  <rect
     style="fill:#000000;fill-opacity:1;fill-rule:evenodd;stroke-width:0.999997"
     id="rect846-7-3-6-0"
     width="4.6130252"
     height="78.825249"
     x="237.15735"
     y="400.02179"
     rx="0"
     ry="0" />
  <rect
     style="fill:#000000;fill-opacity:1;fill-rule:evenodd;stroke-width:0.999997"
     id="rect846-7-3-2"
     width="4.6130252"
     height="78.787788"
     x="291.63885"
     y="400.02179"
     rx="0"
     ry="0" />
  <rect
     style="fill:#000000;fill-opacity:1;fill-rule:evenodd;stroke-width:0.999997"
     id="rect846-7-3-6-6"
     width="4.6130252"
     height="78.825249"
     x="298.62054"
     y="400.02179"
     rx="0"
     ry="0" />
  <rect
     style="fill:#000000;fill-opacity:1;fill-rule:evenodd;stroke-width:0.999997"
     id="rect846-7-3-2-8"
     width="4.6130252"
     height="78.787788"
     x="270.67279"
     y="400.02179"
     rx="0"
     ry="0" />
  <rect
     style="fill:#000000;fill-opacity:1;fill-rule:evenodd;stroke-width:0.999997"
     id="rect846-7-3-6-6-7"
     width="4.6130252"
     height="78.825249"
     x="277.65439"
     y="400.02179"
     rx="0"
     ry="0" />
  <rect
     style="fill:#000000;fill-opacity:1;fill-rule:evenodd;stroke-width:0.999997"
     id="rect846-7-3-2-8-9"
     width="4.6130252"
     height="78.787788"
     x="251.29425"
     y="400.02179"
     rx="0"
     ry="0" />
  <rect
     style="fill:#000000;fill-opacity:1;fill-rule:evenodd;stroke-width:0.999997"
     id="rect846-7-3-6-6-7-2"
     width="4.6130252"
     height="78.825249"
     x="258.27591"
     y="400.02179"
     rx="0"
     ry="0" />
  <rect
     style="fill:#000000;fill-opacity:1;fill-rule:evenodd;stroke-width:0.999997"
     id="rect846-7-3-6-0-1"
     width="4.6130252"
     height="78.825249"
     x="305.47546"
     y="400.02179"
     rx="0"
     ry="0" />
  <path
     style="fill:#90bc42;stroke-width:1"
     d="m 250.38577,97.779064 c -37.83008,0 -68.50111,-31.895549 -68.50111,-71.235949 z"
     id="path10" />
  <path
     style="fill:#cdd6e0;stroke-width:1"
     d="m 358.05257,386.78515 v 0 c -4.00047,0 -7.60085,-5.79895 -8.60106,-13.6687 -3.2003,-25.2662 -2.20028,-56.7452 -2.20028,-56.7452 h -2.80041 -2.8004 c 0,0 1.00021,31.479 -2.20028,56.7452 -1.00002,8.28399 -4.6006,13.6687 -8.60107,13.6687 v 0 c -2.60036,0 -4.6006,4.142 -4.6006,9.52671 h 36.40413 c 3.8e-4,-5.38471 -1.99985,-9.52671 -4.60003,-9.52671 z"
     id="path2-3" />
  <path
     style="fill:#f2f2f2;stroke-width:1"
     d="m 319.44798,197.49652 c -4.60041,19.46726 -7.20077,42.66227 -7.20077,63.78648 0,49.28969 14.40173,69.99967 32.2038,69.99967 17.80208,0 32.20381,-21.12422 32.20381,-69.99967 0,-21.53845 -2.80041,-44.31922 -7.20077,-63.78648 z"
     id="path4-6" />
  <path
     style="fill:#84dbff;stroke-width:1"
     d="m 316.24768,240.15879 c -0.60013,7.04127 -0.80017,14.08294 -0.80017,21.12421 0,40.59147 10.6013,63.78648 29.20336,63.78648 18.60205,0 29.20335,-23.19501 29.20335,-63.78648 0,-6.62703 -0.40008,-14.08294 -0.80017,-21.12421 1.9e-4,0 -56.80637,0 -56.80637,0 z"
     id="path6-7" />
  <path
     style="fill:#54c0eb;stroke-width:1"
     d="m 344.45101,312.64389 c 0,0 -0.60012,0 -1.60014,0.41424 -0.60013,0 -10.00118,1.65695 -16.60201,-12.84022 0,0 -2.60037,-6.2128 -3.60039,-13.25447 -1.80019,-11.18326 -1.20006,-25.68044 -1.20006,-25.68044 0,0 0.80017,12.84022 2.8004,24.43773 1.40011,7.45551 3.60039,12.01174 3.60039,12.01174 7.40062,15.7395 16.60181,14.91142 16.60181,14.91142 z"
     id="path8-5" />
  <rect
     style="fill:#000000;fill-opacity:1;fill-rule:evenodd;stroke-width:0.999997"
     id="rect846-7-9"
     width="4.6130252"
     height="91.523102"
     x="314.66095"
     y="400.02179"
     rx="0"
     ry="0" />
</svg>
