<?xml version="1.0" encoding="iso-8859-1"?>
<!-- Generator: Adobe Illustrator 19.0.0, SVG Export Plug-In . SVG Version: 6.00 Build 0)  -->
<svg version="1.1" id="Layer_1" xmlns="http://www.w3.org/2000/svg" xmlns:xlink="http://www.w3.org/1999/xlink" x="0px" y="0px"
	 viewBox="0 0 473.935 473.935" style="enable-background:new 0 0 473.935 473.935;" xml:space="preserve">
<circle style="fill:#357180;" cx="236.967" cy="236.967" r="236.967"/>
<g>
	<path style="fill:#4ABC96;" d="M283.19,189.084c-44.146-44.149-115.719-44.149-159.864,0c-44.153,44.157-44.153,115.726,0,159.875
		c44.146,44.142,115.719,44.142,159.864,0C327.339,304.806,327.339,233.237,283.19,189.084z M252.799,318.568
		c-27.356,27.364-71.723,27.364-99.09,0c-27.364-27.367-27.364-71.73,0-99.09c27.367-27.367,71.738-27.367,99.09,0
		C280.166,246.838,280.166,291.201,252.799,318.568z"/>
	<path style="fill:#4ABC96;" d="M252.732,218.835c16.685,16.67,35.573-10.9,46.024-21.343c9.987-9.987,34.847-34.844,44.842-44.845
		c0.924,10.458,2.746,50.937,4.277,61.287c2.443,16.445,22.817,22.582,30.316,8.105c0.778-1.029,1.272-2.324,1.478-3.843
		c0.344-1.388,0.348-2.683,0.079-3.832c-0.269-13.549-1.355-57.13-1.635-70.69c-0.254-13.197,1.53-27.562-3.308-39.97
		c-0.183-0.696-0.438-1.418-0.804-2.133c-0.98-1.957-3.398-3.746-5.74-4.266c-11.431-4.322-24.093-2.885-36.318-3.136
		c-15.188-0.303-60.205-0.681-75.382-0.984c-17.568-0.359-18.17,22.2-5.369,29.714c6.41,3.727,46.529,3.394,53.65,4.116
		c4.558,0.471,9.137,0.906,13.71,1.351c-9.923,9.923-34.709,34.713-44.643,44.643C263.474,183.437,236.107,202.199,252.732,218.835z
		"/>
</g>
<path style="fill:#3BAE85;" d="M368.256,97.301c-11.431-4.322-24.093-2.885-36.318-3.136c-15.188-0.303-60.205-0.681-75.382-0.984
	c-17.568-0.359-18.17,22.2-5.369,29.714c6.41,3.727,46.529,3.394,53.65,4.116c4.557,0.471,9.137,0.906,13.71,1.351
	c-9.923,9.923-34.709,34.713-44.643,44.643c-1.306,1.306-2.874,2.735-4.587,4.284c-44.183-31.906-106.218-27.985-145.993,11.79
	c-44.075,44.078-44.146,115.468-0.228,159.632l30.391-30.387c-27.132-27.382-27.068-71.565,0.217-98.851
	c27.293-27.293,71.479-27.356,98.851-0.213l0.307-0.307l30.091-30.095l89.358-89.354C371.163,98.465,369.715,97.623,368.256,97.301z
	"/>
<g>
</g>
<g>
</g>
<g>
</g>
<g>
</g>
<g>
</g>
<g>
</g>
<g>
</g>
<g>
</g>
<g>
</g>
<g>
</g>
<g>
</g>
<g>
</g>
<g>
</g>
<g>
</g>
<g>
</g>
</svg>
