<?xml version="1.0" encoding="UTF-8" standalone="no"?>
<!-- Generator: Adobe Illustrator 16.0.0, SVG Export Plug-In . SVG Version: 6.00 Build 0)  -->

<svg
   version="1.1"
   id="Capa_1"
   x="0px"
   y="0px"
   width="64"
   height="64"
   viewBox="0 0 63.999999 63.999999"
   xml:space="preserve"
   sodipodi:docname="magnifying-glass-svgrepo-com.svg"
   inkscape:version="1.1.2 (08b2f3d93c, 2022-04-05)"
   xmlns:inkscape="http://www.inkscape.org/namespaces/inkscape"
   xmlns:sodipodi="http://sodipodi.sourceforge.net/DTD/sodipodi-0.dtd"
   xmlns="http://www.w3.org/2000/svg"
   xmlns:svg="http://www.w3.org/2000/svg"><defs
   id="defs39" /><sodipodi:namedview
   id="namedview37"
   pagecolor="#ffffff"
   bordercolor="#999999"
   borderopacity="1"
   inkscape:pageshadow="0"
   inkscape:pageopacity="0"
   inkscape:pagecheckerboard="0"
   showgrid="false"
   inkscape:zoom="2.8284271"
   inkscape:cx="-83.261823"
   inkscape:cy="14.495689"
   inkscape:window-width="1920"
   inkscape:window-height="949"
   inkscape:window-x="0"
   inkscape:window-y="27"
   inkscape:window-maximized="1"
   inkscape:current-layer="g4" />
<g
   id="g4"
   transform="matrix(2.0455346,0,0,1.9376173,2.2396594,2.8467433)"
   style="stroke-width:0.5023">
	
<path
   style="opacity:0.99;fill:#808080;fill-opacity:1;fill-rule:evenodd;stroke-width:1.23653;stroke-linejoin:round"
   id="path1537"
   sodipodi:type="arc"
   sodipodi:cx="13.167632"
   sodipodi:cy="12.35565"
   sodipodi:rx="9.040432"
   sodipodi:ry="10.21689"
   sodipodi:start="4.5227764"
   sodipodi:end="4.5050613"
   sodipodi:open="true"
   sodipodi:arc-type="arc"
   d="M 11.463706,2.3218736 A 9.040432,10.21689 0 0 1 22.038402,10.385568 9.040432,10.21689 0 0 1 14.950131,22.371976 9.040432,10.21689 0 0 1 4.3126507,14.414451 9.040432,10.21689 0 0 1 11.3067,2.3575595" /><path
   id="path1433"
   style="opacity:0.99;fill:#ffffff;fill-rule:evenodd;stroke-width:0.718469;stroke-linejoin:round"
   d="M 13.671201,3.4161271 A 7.9091838,8.7880105 0 0 0 5.4807232,10.418727 7.9091838,8.7880105 0 0 0 11.599234,20.790075 l 0.137494,0.03024 A 7.9091838,8.7880105 0 0 0 20.988016,13.884244 7.9091838,8.7880105 0 0 0 14.78739,3.5743836 7.9091838,8.7880105 0 0 0 13.671201,3.4161271 Z" /><path
   id="rect3698"
   style="fill:#808080;fill-opacity:1;fill-rule:evenodd;stroke-width:0.252305"
   d="m 7.9837941,10.792549 c -0.457581,0 -0.8255149,0.118661 -0.8255149,0.266496 v 7.655724 c 2.609e-4,9.49e-4 4.825e-4,0.002 7.527e-4,0.0028 8.65e-5,2.49e-4 0.00105,0.0016 0.0015,0.0028 0.0016,3.26e-4 0.00308,0.0011 0.00528,0.0014 0.01978,0.0031 0.022315,-0.0024 0.039203,0.0285 0.00485,0.0089 0.00694,0.02203 0.010556,0.03277 0.00338,0.01004 0.00777,0.0247 0.012816,0.0342 0.00958,0.01575 0.00906,0.01504 0.015831,0.03563 0.00176,0.0054 0.00281,0.01145 0.00453,0.01711 h 7.527e-4 c 0.00103,-0.0014 0.00353,1.37e-4 0.00528,0.0014 0.00478,0.003 0.010174,0.0059 0.014323,0.01145 0.010114,0.01315 0.012415,0.02515 0.018094,0.04275 0.00583,0.0058 0.013669,0.02518 0.015832,0.03847 0.0015,0.003 0.00285,0.0064 0.00377,0.01004 0.00245,0.0098 0.00295,0.02095 0.00453,0.03136 0.0033,0.02169 0.00199,0.02999 -0.00226,0.02993 0.010436,0.01971 0.020115,0.03834 0.029402,0.05985 0.0018,-0.0038 0.00346,-0.0058 0.00603,-0.0057 0.010675,6.66e-4 0.027454,0.03409 0.043726,0.08408 6.524e-4,0.002 7.683e-4,0.0038 0.0015,0.0057 0.015336,0.03895 0.031687,0.07716 0.047496,0.115437 5.559e-4,0.0013 9.475e-4,0.003 0.0015,0.0042 l 7.528e-4,0.0014 c 0.00991,0.01357 0.019424,0.02804 0.029402,0.04133 0.00288,0.0016 0.00544,0.0038 0.00829,0.0057 8.764e-4,5.11e-4 0.00217,5.59e-4 0.00302,0.0014 0.00382,0.0034 0.00779,0.0069 0.011308,0.01145 0.00234,0.0024 0.00454,0.0045 0.00678,0.0072 v 0.0014 h 7.526e-4 c 0.00632,0.0048 0.00304,0.0017 0.00678,0.0057 0.00579,0.0045 0.011427,0.0065 0.017339,0.01145 0.00805,0.0065 0.015136,0.01574 0.022617,0.02422 0.00365,0.0035 0.00986,0.0089 0.012816,0.01286 0.00468,0.0062 0.00706,0.01752 0.012816,0.02138 0.01126,0.01287 0.022243,0.02753 0.033171,0.04133 0.0018,0.0023 0.00341,0.0037 0.00528,0.0057 0.00199,0.0023 0.00396,0.0052 0.00603,0.0072 0.00277,0.0017 0.00559,0.0023 0.00829,0.0042 0.00207,0.0016 0.00407,0.0037 0.00603,0.0057 0.00623,0.0064 0.011642,0.01315 0.015831,0.02422 0.0065,0.01244 0.015496,0.02006 0.021863,0.03277 5.69e-5,0.0035 0.00281,0.0045 0.00377,0.0057 0.00662,0.0081 0.013399,0.01623 0.018847,0.02707 0.00407,0.0061 0.00413,0.0064 0.0083,0.01145 0.00224,0.0028 0.00459,0.0042 0.00678,0.0072 0.0016,0.002 0.00295,0.0051 0.00453,0.0072 0.00826,0.01117 0.00392,0.004 0.00829,0.01145 l 7.528e-4,0.0014 c 0.00217,0.0028 0.00527,0.0041 0.00753,0.0057 0.00528,0.0037 0.00615,0.0042 0.010556,0.01004 0.00152,0.002 0.00304,0.0037 0.00453,0.0057 0.0021,0.0031 0.00401,0.0066 0.00603,0.01004 0.00228,0.0037 0.00226,0.0044 0.00453,0.0072 0.00405,0.0048 0.00822,0.0088 0.012063,0.01425 0.00209,0.003 0.00758,0.01046 0.00905,0.01287 0.00158,0.0025 0.00309,0.0042 0.00453,0.0072 v 0.0014 c 0.00108,6.76e-4 0.00192,0.0023 0.00301,0.0028 5.017e-4,-8.2e-5 0.00224,9.48e-4 0.00453,0.0014 0.00285,6.58e-4 0.00546,0.0017 0.0083,0.0028 0.00715,0.003 0.013783,0.01075 0.019601,0.01852 0.0015,0.0027 0.00297,0.0059 0.00453,0.0085 0.00127,0.0021 0.00185,0.0049 0.00301,0.0072 h 7.72e-4 c 5.404e-4,4.51e-4 9.633e-4,9.49e-4 0.0015,0.0014 0.00648,0.0055 0.00422,0.0027 0.00753,0.0072 0.00235,0.0023 0.00451,0.0048 0.00678,0.0072 0.00347,0.0035 0.00675,0.0065 0.0098,0.01145 h 7.72e-4 c 0.0057,0.003 0.00732,0.0037 0.012062,0.01145 6.563e-4,0.0011 8.528e-4,0.0018 0.0015,0.0028 0.00197,0.0048 0.00503,0.0047 0.00753,0.0085 3.86e-4,6.05e-4 -0.00197,0.0011 -0.0015,0.0014 0.00374,0.0028 0.00528,0.0054 0.00603,0.0057 9.633e-4,4.58e-4 0.0037,-4.7e-5 0.00753,0.0042 0.0015,0.003 0.00294,0.0058 0.00453,0.0085 -0.00135,5.36e-4 -0.00472,-6.04e-4 -0.00379,0 0.00147,8.75e-4 0.00297,0.0024 0.00453,0.0028 0.00204,6.04e-4 0.00412,0.0016 0.00603,0.0028 0.00396,0.0027 0.0074,0.01258 0.0098,0.01852 10e-4,0.003 0.00209,0.0069 0.00301,0.01004 6.948e-4,0.0024 8.528e-4,0.0048 0.0015,0.0072 h 7.72e-4 c 0.0029,0.0023 0.010054,0.01046 0.011308,0.01568 9.238e-4,5.49e-4 0.00216,0.0018 0.00301,0.0028 5.019e-4,5.55e-4 -0.0017,2.05e-4 -0.00227,0 7.333e-4,3.91e-4 0.00155,10e-4 0.00227,0.0014 9.633e-4,5.34e-4 0.00201,10e-4 0.00301,0.0014 0.00251,8.1e-5 0.00503,-7e-5 0.00753,0 0.00216,-2.37e-4 0.00398,-8.03e-4 0.00603,-0.0014 0.0058,-0.0018 0.010388,-8.77e-4 0.014324,0.0014 h 7.304e-4 c 0.01015,1.76e-4 0.019775,0.0014 0.030158,0.0014 0.457581,0 0.8262688,-0.11866 0.8262688,-0.266497 V 11.05885 c 0,-0.147843 -0.3686874,-0.266496 -0.8262688,-0.266496 z m -0.681521,8.192993 c -9.158e-4,0.0075 -0.00197,0.01513 -0.00226,0.0228 0,0 7.528e-4,0.0014 7.528e-4,0.0014 5.441e-4,2.61e-4 0.00199,-0.01216 0.00302,-0.01852 -4.17e-4,-0.0018 -0.00105,-0.0038 -0.0015,-0.0057 z" /><path
   id="rect3698-5"
   style="fill:#808080;fill-opacity:1;fill-rule:evenodd;stroke-width:0.252304"
   d="m 10.776837,12.292414 c -0.416821,0 -0.75198,0.118661 -0.75198,0.266496 v 7.655724 c 2.38e-4,9.49e-4 4.4e-4,0.002 6.87e-4,0.0028 7.9e-5,2.49e-4 9.56e-4,0.0016 0.0014,0.0028 0.0015,3.26e-4 0.0028,0.0011 0.0048,0.0014 0.01802,0.0031 0.02033,-0.0024 0.03571,0.0285 0.0044,0.0089 0.0063,0.02203 0.0096,0.03277 0.0031,0.01004 0.0071,0.0247 0.01167,0.0342 0.0087,0.01575 0.0082,0.01504 0.01442,0.03563 0.0016,0.0054 0.0026,0.01145 0.0041,0.01711 h 6.86e-4 c 9.4e-4,-0.0014 0.0032,1.37e-4 0.0048,0.0014 0.0043,0.003 0.0093,0.0059 0.01305,0.01145 0.0092,0.01315 0.01131,0.02515 0.01648,0.04275 0.0053,0.0058 0.01245,0.02518 0.01442,0.03847 0.0014,0.003 0.0026,0.0064 0.0034,0.01004 0.0022,0.0098 0.0027,0.02095 0.0041,0.03136 0.003,0.02169 0.0018,0.02999 -0.0021,0.02993 0.0095,0.01971 0.01832,0.03834 0.02678,0.05985 0.0016,-0.0038 0.0031,-0.0058 0.0055,-0.0057 0.0097,6.66e-4 0.02501,0.03409 0.03983,0.08408 5.97e-4,0.002 7.03e-4,0.0038 0.0014,0.0057 0.01397,0.03895 0.02886,0.07716 0.04326,0.115437 5.07e-4,0.0013 8.61e-4,0.003 0.0014,0.0042 l 6.87e-4,0.0014 c 0.009,0.01357 0.01769,0.02804 0.02678,0.04133 0.0026,0.0016 0.0049,0.0038 0.0076,0.0057 7.97e-4,5.11e-4 0.002,5.59e-4 0.0027,0.0014 0.0035,0.0034 0.0071,0.0069 0.0103,0.01145 0.0021,0.0024 0.0041,0.0045 0.0062,0.0072 v 0.0014 h 6.87e-4 c 0.0058,0.0048 0.0028,0.0017 0.0062,0.0057 0.0053,0.0045 0.01041,0.0065 0.01579,0.01145 0.0073,0.0065 0.01379,0.01574 0.0206,0.02422 0.0033,0.0035 0.009,0.0089 0.01167,0.01286 0.0043,0.0062 0.0064,0.01752 0.01168,0.02138 0.01026,0.01287 0.02026,0.02753 0.03022,0.04133 0.0016,0.0023 0.0031,0.0037 0.0048,0.0057 0.0018,0.0023 0.0036,0.0052 0.0055,0.0072 0.0025,0.0017 0.0051,0.0023 0.0076,0.0042 0.0019,0.0016 0.0037,0.0037 0.0055,0.0057 0.0057,0.0064 0.0106,0.01315 0.01442,0.02422 0.0059,0.01244 0.01412,0.02006 0.01991,0.03277 5.1e-5,0.0035 0.0026,0.0045 0.0034,0.0057 0.006,0.0081 0.01221,0.01623 0.01717,0.02707 0.0037,0.0061 0.0038,0.0064 0.0076,0.01145 0.002,0.0028 0.0042,0.0042 0.0062,0.0072 0.0015,0.002 0.0027,0.0051 0.0041,0.0072 0.0075,0.01117 0.0036,0.004 0.0076,0.01145 l 6.86e-4,0.0014 c 0.002,0.0028 0.0048,0.0041 0.0069,0.0057 0.0048,0.0037 0.0056,0.0042 0.0096,0.01004 0.0014,0.002 0.0028,0.0037 0.0041,0.0057 0.0019,0.0031 0.0037,0.0066 0.0055,0.01004 0.0021,0.0037 0.0021,0.0044 0.0041,0.0072 0.0037,0.0048 0.0075,0.0088 0.01099,0.01425 0.0019,0.003 0.0069,0.01046 0.0082,0.01287 0.0014,0.0025 0.0028,0.0042 0.0041,0.0072 v 0.0014 c 9.82e-4,6.76e-4 0.0017,0.0023 0.0027,0.0028 4.57e-4,-8.2e-5 0.002,9.48e-4 0.0041,0.0014 0.0026,6.58e-4 0.005,0.0017 0.0076,0.0028 0.0065,0.003 0.01256,0.01075 0.01786,0.01852 0.0014,0.0027 0.0027,0.0059 0.0041,0.0085 0.0012,0.0021 0.0017,0.0049 0.0027,0.0072 h 7.03e-4 c 4.92e-4,4.51e-4 8.76e-4,9.49e-4 0.0014,0.0014 0.0059,0.0055 0.0038,0.0027 0.0069,0.0072 0.0021,0.0023 0.0041,0.0048 0.0062,0.0072 0.0032,0.0035 0.0061,0.0065 0.0089,0.01145 h 7.02e-4 c 0.0052,0.003 0.0067,0.0037 0.01099,0.01145 5.97e-4,0.0011 7.76e-4,0.0018 0.0014,0.0028 0.0018,0.0048 0.0046,0.0047 0.0069,0.0085 3.52e-4,6.05e-4 -0.0018,0.0011 -0.0014,0.0014 0.0034,0.0028 0.0048,0.0054 0.0055,0.0057 8.77e-4,4.58e-4 0.0034,-4.7e-5 0.0069,0.0042 0.0014,0.003 0.0027,0.0058 0.0041,0.0085 -0.0012,5.36e-4 -0.0043,-6.04e-4 -0.0034,0 0.0013,8.75e-4 0.0027,0.0024 0.0041,0.0028 0.0019,6.04e-4 0.0038,0.0016 0.0055,0.0028 0.0036,0.0027 0.0067,0.01258 0.0089,0.01852 9.08e-4,0.003 0.0019,0.0069 0.0027,0.01004 6.34e-4,0.0024 7.76e-4,0.0048 0.0014,0.0072 h 7.02e-4 c 0.0026,0.0023 0.0092,0.01046 0.0103,0.01568 8.4e-4,5.49e-4 0.002,0.0018 0.0027,0.0028 4.58e-4,5.55e-4 -0.0015,2.05e-4 -0.0021,0 6.66e-4,3.91e-4 0.0014,0.001 0.0021,0.0014 8.77e-4,5.34e-4 0.0018,10e-4 0.0027,0.0014 0.0023,8.1e-5 0.0046,-7e-5 0.0069,0 0.002,-2.37e-4 0.0036,-8.03e-4 0.0055,-0.0014 0.0053,-0.0018 0.0095,-8.77e-4 0.01305,0.0014 h 6.66e-4 c 0.0092,1.76e-4 0.01801,0.0014 0.02747,0.0014 0.41682,0 0.752666,-0.11866 0.752666,-0.266497 v -8.561139 c 0,-0.147842 -0.335845,-0.266496 -0.752666,-0.266496 z m -0.620812,8.192993 c -8.35e-4,0.0075 -0.0018,0.01513 -0.0021,0.0228 0,0 6.86e-4,0.0014 6.86e-4,0.0014 4.96e-4,2.61e-4 0.0018,-0.01216 0.0028,-0.01852 -3.8e-4,-0.0018 -9.56e-4,-0.0038 -0.0014,-0.0057 z" /><path
   id="rect3698-5-3"
   style="fill:#808080;fill-opacity:1;fill-rule:evenodd;stroke-width:0.252305"
   d="m 13.732549,10.661996 c -0.406219,0.01527 -0.731631,0.182024 -0.730107,0.374474 l 0.07892,9.966169 c 2.34e-4,0.0012 4.57e-4,0.0026 6.76e-4,0.0036 7.9e-5,3.22e-4 9.72e-4,0.0022 0.0014,0.0036 0.0015,3.78e-4 0.0027,0.0013 0.0047,0.0017 0.01759,0.0035 0.01979,-0.0038 0.03509,0.03578 0.0044,0.01147 0.0064,0.02844 0.0097,0.04232 0.0031,0.01303 0.0072,0.03187 0.01174,0.04407 0.0087,0.02021 0.0082,0.01924 0.01441,0.04587 0.0016,0.0069 0.0026,0.01481 0.0042,0.02217 l 6.82e-4,-4.3e-5 c 8.82e-4,-0.0019 0.0031,1.2e-5 0.0047,0.0017 0.0043,0.0036 0.0091,0.0074 0.01283,0.01444 0.0091,0.01681 0.01129,0.0323 0.0165,0.05506 0.0052,0.0074 0.0124,0.03231 0.01445,0.04957 0.0014,0.0038 0.0026,0.0082 0.0034,0.013 0.0023,0.01263 0.0028,0.02718 0.0043,0.04068 0.0032,0.02812 0.0021,0.039 -0.0017,0.03904 0.0095,0.0253 0.01825,0.04925 0.02673,0.07692 0.0015,-0.005 0.003,-0.0077 0.0053,-0.0078 0.0095,5.09e-4 0.02472,0.04347 0.03969,0.10799 5.98e-4,0.0025 7.31e-4,0.0049 0.0014,0.0076 0.01401,0.05021 0.02892,0.09938 0.04335,0.148693 5.02e-4,0.0016 8.94e-4,0.0038 0.0014,0.0054 l 6.82e-4,0.0018 c 0.0089,0.01738 0.01753,0.03586 0.02653,0.0528 0.0026,0.0021 0.0049,0.0047 0.0074,0.0072 7.73e-4,6.54e-4 0.0019,6.38e-4 0.0027,0.0018 0.0034,0.0043 0.007,0.009 0.01016,0.01455 0.0021,0.0031 0.0041,0.0056 0.0061,0.0094 l 2.9e-5,0.0019 6.83e-4,-4.3e-5 c 0.0056,0.0062 0.0027,0.0021 0.0061,0.0074 0.0052,0.0056 0.01021,0.008 0.01551,0.01433 0.0072,0.0082 0.0136,0.01998 0.02032,0.03078 0.0033,0.0045 0.0088,0.01132 0.01151,0.0163 0.0042,0.0078 0.0065,0.0226 0.01159,0.02741 0.01014,0.01634 0.02003,0.03511 0.02987,0.05269 0.0016,0.0031 0.003,0.0047 0.0047,0.007 0.0018,0.003 0.0035,0.0067 0.0054,0.0094 0.0024,0.0022 0.005,0.0029 0.0074,0.0051 0.0018,0.0021 0.0036,0.0047 0.0054,0.0074 0.0056,0.0081 0.01048,0.01673 0.01432,0.03097 0.0059,0.01596 0.01396,0.02562 0.01975,0.04193 7.1e-5,0.0046 0.0026,0.0058 0.0034,0.0074 0.0059,0.01034 0.01206,0.0207 0.01701,0.03459 0.0037,0.0078 0.0037,0.0082 0.0075,0.01464 0.002,0.0035 0.0041,0.0053 0.0061,0.0094 0.0014,0.0027 0.0027,0.0064 0.0041,0.0095 0.0074,0.01428 0.0036,0.0052 0.0075,0.01464 l 6.82e-4,0.0018 c 0.002,0.0035 0.0047,0.0051 0.0067,0.0074 0.0047,0.0046 0.0055,0.0052 0.0095,0.01276 0.0014,0.0025 0.0028,0.0047 0.0041,0.0074 0.0019,0.0042 0.0036,0.0084 0.0055,0.01289 0.0021,0.0047 0.0021,0.0056 0.0041,0.0095 0.0037,0.0061 0.0074,0.01126 0.01085,0.01817 0.0019,0.0038 0.0068,0.01342 0.0082,0.01641 0.0014,0.0032 0.0028,0.0053 0.0041,0.0095 l 1e-6,0.0019 c 9.42e-4,8.23e-4 0.0018,0.003 0.0027,0.0036 4.45e-4,-1.21e-4 0.002,0.0012 0.0041,0.0018 0.0025,7.25e-4 0.0048,0.002 0.0074,0.0033 0.0064,0.0036 0.01235,0.01353 0.01759,0.02345 0.0014,0.0034 0.0027,0.0076 0.0041,0.011 0.0011,0.0027 0.0017,0.0063 0.0028,0.0095 l 6.82e-4,-3e-5 c 4.84e-4,5.67e-4 8.7e-4,0.0012 0.0014,0.0018 0.0058,0.0069 0.0038,0.0034 0.0068,0.0094 0.0021,0.0031 0.004,0.0063 0.0061,0.0094 0.0031,0.0045 0.0061,0.0082 0.0088,0.0146 l 6.82e-4,-2.9e-5 c 0.0051,0.0037 0.0065,0.0046 0.01083,0.01451 5.82e-4,0.0013 7.61e-4,0.0022 0.0014,0.0036 0.0018,0.0063 0.0045,0.006 0.0068,0.01087 3.49e-4,7.77e-4 -0.0017,0.0014 -0.0013,0.002 0.0033,0.0035 0.0047,0.0068 0.0054,0.0074 8.58e-4,5.39e-4 0.0033,-2.17e-4 0.0067,0.0052 0.0014,0.0038 0.0027,0.0075 0.0041,0.01086 -0.0012,7.21e-4 -0.0042,-6.65e-4 -0.0034,1.79e-4 0.0013,9.51e-4 0.0027,0.003 0.004,0.0034 0.0018,6.6e-4 0.0037,0.002 0.0054,0.0034 0.0036,0.0034 0.0067,0.01611 0.0089,0.02377 9.12e-4,0.0038 0.0019,0.0091 0.0028,0.01301 6.46e-4,0.0031 7.97e-4,0.0063 0.0014,0.0095 l 6.83e-4,-2.9e-5 c 0.0026,0.003 0.009,0.01334 0.01018,0.02004 8.39e-4,6.92e-4 0.0019,0.0022 0.0027,0.0035 4.51e-4,7.04e-4 -0.0015,3.83e-4 -0.002,2.8e-5 6.4e-4,4.41e-4 0.0014,0.0012 0.002,0.0018 8.39e-4,6.93e-4 0.0018,0.0011 0.0027,0.0018 0.0022,8.4e-5 0.0045,-2.33e-4 0.0067,-2.79e-4 0.0019,-4.06e-4 0.0035,-0.0012 0.0053,-0.0021 0.0051,-0.0025 0.0092,-0.0014 0.01273,0.0014 l 6.34e-4,-6e-6 c 0.009,-9.3e-5 0.01757,0.0013 0.02679,9.07e-4 0.406132,-0.01526 0.732213,-0.182035 0.730688,-0.37449 l -0.08835,-11.148989 c -0.0015,-0.192462 -0.330051,-0.334617 -0.736271,-0.319345 z m -0.520562,10.688327 c -7.18e-4,0.01002 -0.0016,0.01976 -0.0018,0.02973 0,0 6.83e-4,0.0018 6.83e-4,0.0018 4.85e-4,3.26e-4 0.0017,-0.0159 0.0025,-0.02422 -3.97e-4,-0.0022 -9.42e-4,-0.0048 -0.0014,-0.0076 z" /><path
   id="rect3698-5-3-5"
   style="fill:#808080;fill-opacity:1;fill-rule:evenodd;stroke-width:0.252304"
   d="m 16.435717,10.597384 c -0.461942,0.0147 -0.831992,0.175247 -0.83026,0.360531 l 0.08975,9.595092 c 2.66e-4,0.0012 5.19e-4,0.0025 7.67e-4,0.0035 9e-5,3.1e-4 0.0011,0.0021 0.0015,0.0035 0.0016,3.64e-4 0.0031,0.0013 0.0054,0.0016 0.02,0.0034 0.0225,-0.0037 0.0399,0.03445 0.005,0.01104 0.0073,0.02738 0.01105,0.04074 0.0035,0.01254 0.0081,0.03068 0.01336,0.04243 0.0099,0.01946 0.0093,0.01852 0.01639,0.04416 0.0018,0.0066 0.003,0.01426 0.0048,0.02135 l 7.78e-4,-4.2e-5 c 0.001,-0.0018 0.0036,1.2e-5 0.0054,0.0016 0.0049,0.0035 0.01034,0.0071 0.01459,0.0139 0.01037,0.01618 0.01284,0.0311 0.01877,0.05301 0.006,0.0071 0.0141,0.03111 0.01643,0.04772 0.0015,0.0037 0.003,0.0079 0.0039,0.01252 0.0026,0.01216 0.0032,0.02617 0.005,0.03917 0.0036,0.02707 0.0023,0.03755 -0.002,0.03759 0.01077,0.02436 0.02075,0.04742 0.03039,0.07406 0.0018,-0.0048 0.0034,-0.0074 0.006,-0.0075 0.01078,4.91e-4 0.02811,0.04185 0.04513,0.10397 6.79e-4,0.0024 8.31e-4,0.0047 0.0016,0.0073 0.01593,0.04834 0.03289,0.09568 0.04931,0.143156 5.7e-4,0.0015 10e-4,0.0037 0.0015,0.0052 l 7.78e-4,0.0017 c 0.01016,0.01673 0.01994,0.03453 0.03016,0.05083 0.0029,0.002 0.0056,0.0045 0.0085,0.0069 8.55e-4,6.3e-4 0.0022,6.14e-4 0.0031,0.0017 0.0038,0.0041 0.0079,0.0087 0.01155,0.01401 0.0024,0.003 0.0046,0.0054 0.0069,0.009 l 3.4e-5,0.0018 7.78e-4,-4.2e-5 c 0.0064,0.006 0.0031,0.002 0.0069,0.0071 0.0059,0.0054 0.01161,0.0077 0.01764,0.0138 0.0082,0.0079 0.01547,0.01924 0.02311,0.02963 0.0038,0.0043 0.01005,0.0109 0.01309,0.01569 0.0048,0.0075 0.0073,0.02176 0.01319,0.02639 0.01153,0.01573 0.02277,0.0338 0.03397,0.05073 0.0019,0.003 0.0035,0.0045 0.0054,0.0067 0.0021,0.0029 0.004,0.0065 0.0062,0.009 0.0028,0.0021 0.0056,0.0028 0.0085,0.0049 0.0021,0.002 0.0041,0.0045 0.0062,0.0071 0.0063,0.0078 0.01192,0.01611 0.01629,0.02982 0.0067,0.01536 0.01588,0.02467 0.02246,0.04037 8.1e-5,0.0044 0.0029,0.0056 0.0038,0.0071 0.0067,0.01 0.01371,0.01993 0.01935,0.0333 0.0042,0.0075 0.0043,0.0079 0.0085,0.0141 0.0023,0.0034 0.0047,0.0051 0.0069,0.009 0.0016,0.0026 0.0031,0.0062 0.0047,0.0091 0.0085,0.01375 0.004,0.005 0.0085,0.0141 l 7.78e-4,0.0017 c 0.0022,0.0034 0.0054,0.0049 0.0077,0.0071 0.0054,0.0044 0.0062,0.005 0.01079,0.01228 0.0015,0.0024 0.0032,0.0045 0.0046,0.0071 0.0021,0.004 0.0041,0.0081 0.0062,0.01241 0.0024,0.0045 0.0023,0.0054 0.0047,0.0091 0.0042,0.0059 0.0084,0.01084 0.01234,0.01749 0.0021,0.0037 0.0078,0.01292 0.0093,0.0158 0.0016,0.0031 0.0032,0.0051 0.0047,0.0091 l 1e-6,0.0018 c 0.0011,7.93e-4 0.002,0.0029 0.0031,0.0035 5.06e-4,-1.16e-4 0.0022,0.0012 0.0046,0.0017 0.0029,6.98e-4 0.0055,0.0019 0.0084,0.0032 0.0073,0.0035 0.01404,0.01303 0.02,0.02258 0.0015,0.0033 0.0031,0.0073 0.0047,0.01059 0.0013,0.0026 0.002,0.0061 0.0032,0.0091 l 7.79e-4,-2.9e-5 c 5.5e-4,5.46e-4 0.001,0.0012 0.0015,0.0017 0.0066,0.0066 0.0043,0.0033 0.0077,0.009 0.0024,0.003 0.0046,0.0061 0.0069,0.0091 0.0035,0.0043 0.0069,0.0079 0.01002,0.01406 l 7.79e-4,-2.8e-5 c 0.0058,0.0036 0.0074,0.0044 0.01231,0.01397 6.61e-4,0.0013 8.54e-4,0.0021 0.0015,0.0035 0.0021,0.0061 0.0051,0.0058 0.0077,0.01046 3.97e-4,7.48e-4 -0.002,0.0013 -0.0015,0.0019 0.0038,0.0034 0.0054,0.0065 0.0062,0.0071 9.4e-4,5.19e-4 0.0038,-2.09e-4 0.0077,0.005 0.0015,0.0037 0.0031,0.0072 0.0047,0.01046 -0.0014,6.95e-4 -0.0048,-6.4e-4 -0.0038,1.73e-4 0.0015,9.15e-4 0.003,0.0029 0.0046,0.0033 0.0021,6.36e-4 0.0042,0.0019 0.0062,0.0033 0.004,0.0033 0.0076,0.01551 0.01013,0.02288 0.001,0.0037 0.0021,0.0088 0.0032,0.01253 7.38e-4,0.003 9.4e-4,0.0061 0.0016,0.0091 l 7.78e-4,-2.8e-5 c 0.003,0.0029 0.01026,0.01284 0.01158,0.01929 9.4e-4,6.66e-4 0.0022,0.0021 0.0031,0.0034 5.13e-4,6.78e-4 -0.0017,3.69e-4 -0.0023,2.7e-5 7.25e-4,4.24e-4 0.0015,0.0012 0.0023,0.0017 9.4e-4,6.67e-4 0.0021,0.0011 0.0031,0.0017 0.0026,8.1e-5 0.005,-2.24e-4 0.0076,-2.69e-4 0.0021,-3.91e-4 0.004,-0.0012 0.0061,-0.002 0.0058,-0.0024 0.01047,-0.0013 0.01447,0.0013 l 7.2e-4,-5e-6 c 0.01025,-9e-5 0.01998,0.0013 0.03046,8.73e-4 0.461843,-0.01469 0.832654,-0.175257 0.83092,-0.360547 L 17.272928,10.904595 c -0.0017,-0.185296 -0.375326,-0.322158 -0.837269,-0.307455 z m -0.59197,10.290362 c -8.19e-4,0.0096 -0.0018,0.01902 -0.002,0.02862 0,0 7.8e-4,0.0017 7.8e-4,0.0017 5.52e-4,3.13e-4 0.0019,-0.01531 0.0028,-0.02332 -4.51e-4,-0.0021 -0.0011,-0.0046 -0.0016,-0.0073 z" /><path
   id="rect3698-5-3-5-6"
   style="fill:#808080;fill-opacity:1;fill-rule:evenodd;stroke-width:0.252304"
   d="m 18.798558,8.9746916 c -0.341849,0.01527 -0.615695,0.182024 -0.614414,0.3744736 l 0.06642,9.9661698 c 1.96e-4,0.0012 3.84e-4,0.0026 5.67e-4,0.0036 6.7e-5,3.22e-4 8.23e-4,0.0022 0.0011,0.0036 0.0012,3.78e-4 0.0023,0.0013 0.004,0.0017 0.0148,0.0035 0.01665,-0.0038 0.02953,0.03578 0.0037,0.01147 0.0054,0.02844 0.0082,0.04232 0.0026,0.01303 0.006,0.03187 0.0099,0.04407 0.0073,0.02021 0.0069,0.01924 0.01213,0.04587 0.0013,0.0069 0.0022,0.01481 0.0035,0.02217 l 5.77e-4,-4.3e-5 c 7.58e-4,-0.0019 0.0027,1.2e-5 0.004,0.0017 0.0036,0.0036 0.0077,0.0074 0.0108,0.01444 0.0077,0.01681 0.0095,0.0323 0.01389,0.05506 0.0044,0.0074 0.01043,0.03231 0.01216,0.04957 0.0011,0.0038 0.0022,0.0082 0.0029,0.013 0.0019,0.01263 0.0024,0.02718 0.0037,0.04068 0.0027,0.02812 0.0017,0.039 -0.0015,0.03904 0.008,0.0253 0.01535,0.04925 0.02249,0.07692 0.0013,-0.005 0.0025,-0.0077 0.0044,-0.0078 0.008,5.09e-4 0.0208,0.04347 0.03339,0.10799 5.03e-4,0.0025 6.16e-4,0.0049 0.0012,0.0076 0.01179,0.05021 0.02434,0.09938 0.03649,0.148693 4.23e-4,0.0016 7.59e-4,0.0038 0.0011,0.0054 l 5.77e-4,0.0018 c 0.0075,0.01738 0.01475,0.03586 0.02232,0.0528 0.0022,0.0021 0.0041,0.0047 0.0063,0.0072 6.32e-4,6.54e-4 0.0016,6.38e-4 0.0023,0.0018 0.0028,0.0043 0.0059,0.009 0.0085,0.01455 0.0018,0.0031 0.0034,0.0056 0.0051,0.0094 l 2.5e-5,0.0019 5.76e-4,-4.3e-5 c 0.0047,0.0062 0.0023,0.0021 0.0051,0.0074 0.0044,0.0056 0.0086,0.008 0.01306,0.01433 0.0061,0.0082 0.01145,0.01998 0.01711,0.03078 0.0028,0.0045 0.0074,0.01132 0.0097,0.0163 0.0035,0.0078 0.0054,0.0226 0.0098,0.02741 0.0085,0.01634 0.01685,0.03511 0.02514,0.05269 0.0014,0.0031 0.0026,0.0047 0.004,0.007 0.0015,0.003 0.003,0.0067 0.0046,0.0094 0.0021,0.0022 0.0042,0.0029 0.0063,0.0051 0.0015,0.0021 0.003,0.0047 0.0046,0.0074 0.0047,0.0081 0.0088,0.01673 0.01205,0.03097 0.005,0.01596 0.01175,0.02562 0.01662,0.04193 6e-5,0.0046 0.0022,0.0058 0.0028,0.0074 0.005,0.01034 0.01015,0.0207 0.01432,0.03459 0.0031,0.0078 0.0032,0.0082 0.0063,0.01464 0.0017,0.0035 0.0035,0.0053 0.0051,0.0094 0.0012,0.0027 0.0023,0.0064 0.0035,0.0095 0.0063,0.01428 0.003,0.0052 0.0063,0.01464 l 5.76e-4,0.0018 c 0.0016,0.0035 0.004,0.0051 0.0057,0.0074 0.004,0.0046 0.0046,0.0052 0.008,0.01276 0.0011,0.0025 0.0023,0.0047 0.0034,0.0074 0.0016,0.0042 0.003,0.0084 0.0046,0.01289 0.0018,0.0047 0.0017,0.0056 0.0035,0.0095 0.0031,0.0061 0.0062,0.01126 0.0091,0.01817 0.0016,0.0038 0.0058,0.01342 0.0069,0.01641 0.0012,0.0032 0.0023,0.0053 0.0035,0.0095 l 1e-6,0.0019 c 8.22e-4,8.23e-4 0.0015,0.003 0.0023,0.0036 3.75e-4,-1.21e-4 0.0016,0.0012 0.0034,0.0018 0.0022,7.25e-4 0.004,0.002 0.0062,0.0033 0.0054,0.0036 0.01039,0.01353 0.0148,0.02345 0.0011,0.0034 0.0023,0.0076 0.0035,0.011 9.49e-4,0.0027 0.0015,0.0063 0.0023,0.0095 l 5.77e-4,-3e-5 c 4.07e-4,5.67e-4 7.58e-4,0.0012 0.0011,0.0018 0.0049,0.0069 0.0032,0.0034 0.0057,0.0094 0.0018,0.0031 0.0034,0.0063 0.0051,0.0094 0.0026,0.0045 0.0051,0.0082 0.0074,0.0146 l 5.76e-4,-2.9e-5 c 0.0043,0.0037 0.0055,0.0046 0.0091,0.01451 4.89e-4,0.0013 6.32e-4,0.0022 0.0011,0.0036 0.0015,0.0063 0.0038,0.006 0.0057,0.01087 2.93e-4,7.77e-4 -0.0015,0.0014 -0.0011,0.002 0.0028,0.0035 0.004,0.0068 0.0046,0.0074 6.95e-4,5.39e-4 0.0028,-2.17e-4 0.0057,0.0052 0.0011,0.0038 0.0023,0.0075 0.0035,0.01086 -0.001,7.21e-4 -0.0035,-6.65e-4 -0.0028,1.79e-4 0.0011,9.51e-4 0.0022,0.003 0.0034,0.0034 0.0015,6.6e-4 0.0031,0.002 0.0046,0.0034 0.003,0.0034 0.0056,0.01611 0.0075,0.02377 7.59e-4,0.0038 0.0016,0.0091 0.0023,0.01301 5.45e-4,0.0031 6.95e-4,0.0063 0.0012,0.0095 l 5.76e-4,-2.9e-5 c 0.0022,0.003 0.0076,0.01334 0.0086,0.02004 6.96e-4,6.92e-4 0.0016,0.0022 0.0023,0.0035 3.79e-4,7.04e-4 -0.0013,3.83e-4 -0.0017,2.8e-5 5.36e-4,4.41e-4 0.0011,0.0012 0.0017,0.0018 6.95e-4,6.93e-4 0.0015,0.0011 0.0023,0.0018 0.0019,8.4e-5 0.0037,-2.33e-4 0.0056,-2.79e-4 0.0016,-4.06e-4 0.003,-0.0012 0.0045,-0.0021 0.0043,-0.0025 0.0077,-0.0014 0.01071,0.0014 l 5.33e-4,-6e-6 c 0.0076,-9.3e-5 0.01478,0.0013 0.02254,9.07e-4 0.341776,-0.01526 0.616186,-0.182035 0.614903,-0.37449 L 19.418116,9.2937838 C 19.416836,9.1013213 19.140366,8.9591665 18.798515,8.9744382 Z M 18.360485,19.663019 c -6.06e-4,0.01002 -0.0013,0.01976 -0.0015,0.02973 0,0 5.76e-4,0.0018 5.76e-4,0.0018 4.09e-4,3.26e-4 0.0014,-0.0159 0.0021,-0.02422 -3.34e-4,-0.0022 -8.22e-4,-0.0048 -0.0012,-0.0076 z" /><rect
   style="fill:#808080;fill-opacity:1;fill-rule:evenodd;stroke-width:0.252818"
   id="rect1956"
   width="3.9604151"
   height="5.7815008"
   x="0.99327248"
   y="26.85817"
   rx="8.7762251"
   ry="0.21072143"
   transform="matrix(0.76629993,-0.64248301,0.57090556,0.82101574,0,0)" /><rect
   style="fill:#808080;fill-opacity:1;fill-rule:evenodd;stroke-width:0.252305"
   id="rect1956-7"
   width="5.2700996"
   height="4.7761207"
   x="-0.12105188"
   y="31.185644"
   rx="9.2731342"
   ry="0.20088534"
   transform="matrix(0.81257969,-0.58285011,0.5813914,0.81362402,0,0)" /></g>
<g
   id="g6">
</g>
<g
   id="g8">
</g>
<g
   id="g10">
</g>
<g
   id="g12">
</g>
<g
   id="g14">
</g>
<g
   id="g16">
</g>
<g
   id="g18">
</g>
<g
   id="g20">
</g>
<g
   id="g22">
</g>
<g
   id="g24">
</g>
<g
   id="g26">
</g>
<g
   id="g28">
</g>
<g
   id="g30">
</g>
<g
   id="g32">
</g>
<g
   id="g34">
</g>
</svg>
