<?xml version="1.0" encoding="UTF-8" standalone="no"?>
<!-- Generator: Adobe Illustrator 19.0.0, SVG Export Plug-In . SVG Version: 6.00 Build 0)  -->

<svg
   version="1.1"
   id="Layer_1"
   x="0px"
   y="0px"
   viewBox="0 0 63.999998 63.999998"
   xml:space="preserve"
   sodipodi:docname="meal-svgrepo-com.svg"
   width="64"
   height="64"
   inkscape:version="1.1.2 (08b2f3d93c, 2022-04-05)"
   xmlns:inkscape="http://www.inkscape.org/namespaces/inkscape"
   xmlns:sodipodi="http://sodipodi.sourceforge.net/DTD/sodipodi-0.dtd"
   xmlns="http://www.w3.org/2000/svg"
   xmlns:svg="http://www.w3.org/2000/svg"><defs
   id="defs53" /><sodipodi:namedview
   id="namedview51"
   pagecolor="#ffffff"
   bordercolor="#999999"
   borderopacity="1"
   inkscape:pageshadow="0"
   inkscape:pageopacity="0"
   inkscape:pagecheckerboard="0"
   showgrid="false"
   inkscape:zoom="6.0702886"
   inkscape:cx="4.3655255"
   inkscape:cy="23.886838"
   inkscape:window-width="1920"
   inkscape:window-height="949"
   inkscape:window-x="0"
   inkscape:window-y="27"
   inkscape:window-maximized="1"
   inkscape:current-layer="g16" />
<g
   id="g18"
   transform="matrix(0.10710219,0,0,0.15247185,5.7838629,-8.3559464)"
   style="stroke-width:7.8254;fill:#999999">
	<g
   id="g16"
   style="stroke-width:7.8254;fill:#666666">
		<g
   id="g14"
   style="stroke-width:7.8254;fill:#808080;fill-opacity:1">
			<path
   d="m 243.654,188.633 c -4.215,2.108 -5.931,7.228 -3.823,11.443 1.502,2.995 4.514,4.719 7.646,4.719 1.28,0 2.586,-0.29 3.806,-0.896 0.887,-0.452 21.786,-11.153 21.786,-33.237 0,-12.066 -6.374,-18.449 -11.034,-23.1 -4.181,-4.181 -6.033,-6.238 -6.033,-11.034 0,-4.796 1.852,-6.852 6.033,-11.034 4.659,-4.651 11.034,-11.034 11.034,-23.1 0,-22.084 -20.898,-32.785 -21.786,-33.229 -4.173,-2.082 -9.267,-0.401 -11.392,3.772 -2.133,4.19 -0.452,9.31 3.712,11.469 0.119,0.06 12.399,6.536 12.399,17.988 0,4.796 -1.852,6.852 -6.033,11.034 -4.659,4.651 -11.034,11.034 -11.034,23.1 0,12.066 6.374,18.449 11.034,23.1 4.181,4.181 6.033,6.238 6.033,11.034 0,11.452 -12.279,17.928 -12.348,17.971 z"
   id="path2"
   style="stroke-width:7.8254;fill:#808080;fill-opacity:1" />
			<path
   d="m 187.735,187.729 c 0,11.375 -12.109,17.835 -12.399,17.988 -4.173,2.125 -5.871,7.228 -3.772,11.426 1.502,2.995 4.514,4.719 7.646,4.719 1.28,0 2.586,-0.29 3.806,-0.896 0.887,-0.452 21.786,-11.153 21.786,-33.237 0,-12.066 -6.374,-18.449 -11.034,-23.1 -4.181,-4.181 -6.033,-6.238 -6.033,-11.034 0,-11.452 12.271,-17.929 12.348,-17.963 4.215,-2.108 5.931,-7.236 3.814,-11.452 -2.099,-4.215 -7.219,-5.939 -11.443,-3.814 -0.887,0.444 -21.786,11.145 -21.786,33.229 0,12.066 6.374,18.449 11.034,23.1 4.182,4.181 6.033,6.238 6.033,11.034 z"
   id="path4"
   style="stroke-width:7.8254;fill:#808080;fill-opacity:1" />
			<path
   d="m 324.269,187.729 c 0,11.375 -12.1,17.835 -12.39,17.988 -4.181,2.125 -5.879,7.228 -3.78,11.426 1.502,2.995 4.514,4.719 7.646,4.719 1.28,0 2.586,-0.29 3.806,-0.896 0.896,-0.452 21.786,-11.153 21.786,-33.237 0,-12.066 -6.374,-18.449 -11.034,-23.1 -4.181,-4.181 -6.033,-6.238 -6.033,-11.034 0,-11.452 12.271,-17.929 12.348,-17.963 4.215,-2.108 5.931,-7.236 3.814,-11.452 -2.116,-4.215 -7.236,-5.922 -11.443,-3.814 -0.896,0.444 -21.786,11.145 -21.786,33.229 0,12.066 6.374,18.449 11.034,23.1 4.18,4.181 6.032,6.238 6.032,11.034 z"
   id="path6"
   style="stroke-width:7.8254;fill:#808080;fill-opacity:1" />
			<path
   d="m 119.469,273.062 c 5.837,0 11.204,2.987 14.379,7.987 2.432,3.831 7.441,5.086 11.418,2.85 6.69,-3.789 14.464,-2.671 19.806,2.244 2.423,2.219 5.897,2.842 8.943,1.638 3.038,-1.22 5.12,-4.07 5.342,-7.347 0.614,-8.917 8.038,-15.906 16.913,-15.906 5.726,0 11.042,2.867 14.217,7.663 3.166,4.779 11.068,4.779 14.225,0 5.82,-8.764 19.396,-9.993 26.692,-2.142 2.022,2.176 5.018,3.157 7.936,2.56 2.901,-0.58 5.308,-2.628 6.332,-5.41 2.466,-6.707 8.866,-11.204 15.932,-11.204 9.404,0 17.067,7.654 17.058,16.853 -0.026,0.179 -0.119,0.998 -0.137,1.178 -0.222,2.884 1.033,5.692 3.345,7.441 2.295,1.758 5.35,2.227 8.064,1.237 7.381,-2.662 13.688,-0.538 18.27,4.412 2.022,2.176 5.026,3.149 7.936,2.56 2.901,-0.58 5.308,-2.628 6.332,-5.41 2.466,-6.707 8.866,-11.204 15.932,-11.204 7.629,0 14.37,5.197 16.384,12.638 0.631,2.355 2.253,4.326 4.429,5.41 2.176,1.092 4.719,1.186 6.989,0.282 7.765,-3.132 16.393,-0.102 20.71,6.716 2.423,3.84 7.441,5.111 11.409,2.859 7.33,-4.13 15.923,-2.338 21.043,3.362 1.681,1.877 4.019,2.833 6.349,2.833 2.039,0 4.079,-0.717 5.7,-2.184 3.507,-3.149 3.806,-8.542 0.657,-12.049 -8.747,-9.737 -22.912,-13.739 -35.379,-9.779 -7.373,-7.467 -18.099,-11.247 -28.663,-9.779 -5.948,-10.53 -17.195,-17.374 -29.628,-17.374 -10.402,0 -20.087,4.838 -26.453,12.698 -5.265,-2.876 -11.247,-4.36 -17.289,-4.147 -3.789,-14.712 -17.178,-25.617 -33.058,-25.617 -10.394,0 -20.062,4.821 -26.428,12.663 -11.631,-6.374 -27.221,-4.949 -37.572,3.371 -5.973,-4.804 -13.457,-7.501 -21.333,-7.501 -13.355,0 -25.071,7.851 -30.618,19.302 -6.955,-2.671 -14.822,-2.97 -22.024,-0.691 -6.34,-6.4 -14.95,-10.078 -24.158,-10.078 -4.71,0 -8.533,3.823 -8.533,8.533 0,4.71 3.82,8.532 8.531,8.532 z"
   id="path8"
   style="stroke-width:7.8254;fill:#808080;fill-opacity:1" />
			<path
   d="M 503.469,324.262 H 8.535 c -4.71,0 -8.533,3.823 -8.533,8.533 0,23.526 19.14,42.667 42.667,42.667 h 9.003 c 4.258,38.349 36.864,68.267 76.331,68.267 h 256 c 39.467,0 72.064,-29.918 76.322,-68.267 h 9.011 c 23.526,0 42.667,-19.14 42.667,-42.667 -0.001,-4.71 -3.815,-8.533 -8.534,-8.533 z m -34.134,34.133 h -17.067 c -4.719,0 -8.533,3.823 -8.533,8.533 0,32.939 -26.803,59.733 -59.733,59.733 h -256 c -30.046,0 -54.972,-22.289 -59.127,-51.2 h 349.261 c 4.719,0 8.533,-3.823 8.533,-8.533 0,-4.71 -3.814,-8.533 -8.533,-8.533 H 42.669 c -11.128,0 -20.617,-7.134 -24.141,-17.067 h 474.948 c -3.524,9.933 -13.013,17.067 -24.141,17.067 z"
   id="path10"
   style="stroke-width:7.8254;fill:#808080;fill-opacity:1" />
			<path
   d="m 5.173,255.304 119.467,51.2 c 1.092,0.469 2.236,0.7 3.354,0.7 3.319,0 6.468,-1.946 7.851,-5.18 1.86,-4.335 -0.154,-9.353 -4.48,-11.204 L 11.898,239.62 c -4.335,-1.86 -9.361,0.154 -11.204,4.48 -1.861,4.335 0.153,9.352 4.479,11.204 z"
   id="path12"
   style="stroke-width:7.8254;fill:#808080;fill-opacity:1" />
		</g>
	</g>
</g>
<g
   id="g20">
</g>
<g
   id="g22">
</g>
<g
   id="g24">
</g>
<g
   id="g26">
</g>
<g
   id="g28">
</g>
<g
   id="g30">
</g>
<g
   id="g32">
</g>
<g
   id="g34">
</g>
<g
   id="g36">
</g>
<g
   id="g38">
</g>
<g
   id="g40">
</g>
<g
   id="g42">
</g>
<g
   id="g44">
</g>
<g
   id="g46">
</g>
<g
   id="g48">
</g>
</svg>
