<?xml version="1.0" encoding="iso-8859-1"?>
<!-- Generator: Adobe Illustrator 19.0.0, SVG Export Plug-In . SVG Version: 6.00 Build 0)  -->
<svg version="1.1" id="Layer_1" xmlns="http://www.w3.org/2000/svg" xmlns:xlink="http://www.w3.org/1999/xlink" x="0px" y="0px"
	 viewBox="0 0 512 512" style="enable-background:new 0 0 512 512;" xml:space="preserve">
<circle style="fill:#31BAFD;" cx="256" cy="256" r="256"/>
<path style="fill:#2B9ED8;" d="M169.139,374.443l133.335,133.335c98.457-18.058,177.214-92.436,201.638-188.513L284.443,99.597
	L169.139,374.443z"/>
<path style="fill:#90DFAA;" d="M309.72,231.352c-21.595,21.59-29.339,51.767-23.285,79.541c27.776,6.06,57.956-1.679,79.55-23.269
	c21.595-21.59,29.339-51.767,23.285-79.541C361.494,202.023,331.314,209.761,309.72,231.352z"/>
<path style="fill:#85D39C;" d="M286.436,310.893c27.776,6.06,57.956-1.679,79.55-23.269c21.595-21.59,29.339-51.767,23.285-79.541
	L286.436,310.893z"/>
<path style="fill:#B4E57F;" d="M343.297,269.641c-30.513,1.16-56.704,18.034-71.139,42.524
	c16.256,23.323,43.654,38.157,74.169,36.995c30.513-1.16,56.704-18.034,71.139-42.524
	C401.21,283.314,373.81,268.479,343.297,269.641z"/>
<path style="fill:#A2CE6A;" d="M272.158,312.165c16.256,23.323,43.654,38.157,74.169,36.995
	c30.513-1.16,56.704-18.034,71.139-42.524L272.158,312.165z"/>
<path style="fill:#FFFFFF;" d="M291.338,237.575V112.959c0-9.068-7.352-16.42-16.42-16.42h-37.84c-9.068,0-16.42,7.352-16.42,16.42
	v124.616c-35.835,20.732-61.199,61.297-61.199,102.14c0,53.317,43.222,58.508,96.539,58.508s96.539-5.191,96.539-58.508
	C352.537,298.87,327.173,258.305,291.338,237.575z"/>
<path style="fill:#E6F3FF;" d="M291.338,237.575V112.959c0-9.068-7.352-16.42-16.42-16.42h-19.063v301.683c0.048,0,0.095,0,0.143,0
	c53.317,0,96.539-5.191,96.539-58.508C352.537,298.87,327.173,258.305,291.338,237.575z"/>
<path style="fill:#CFDBE6;" d="M255.998,287.03c-1.427,0-2.586-1.157-2.586-2.586v-56.889c0-1.429,1.158-2.586,2.586-2.586
	s2.586,1.157,2.586,2.586v56.889C258.584,285.872,257.426,287.03,255.998,287.03z"/>
<path style="fill:#B8C9D9;" d="M255.998,224.97c-0.048,0-0.095,0.012-0.143,0.014v62.031c0.048,0.002,0.095,0.014,0.143,0.014
	c1.427,0,2.586-1.157,2.586-2.586v-56.889C258.584,226.126,257.426,224.97,255.998,224.97z"/>
<g>
	<path style="fill:#CFDBE6;" d="M204.069,287.03c-0.126,0-0.252-0.009-0.381-0.028c-1.414-0.209-2.389-1.522-2.182-2.936
		c4.515-30.587,28.079-57.123,29.079-58.239c0.953-1.064,2.586-1.15,3.651-0.197c1.062,0.953,1.15,2.588,0.197,3.651
		c-0.234,0.262-23.526,26.519-27.81,55.539C206.434,286.106,205.331,287.03,204.069,287.03z"/>
	<path style="fill:#CFDBE6;" d="M220.877,287.03c-0.126,0-0.252-0.009-0.381-0.028c-1.414-0.209-2.389-1.522-2.182-2.936
		c4.515-30.587,28.079-57.123,29.079-58.239c0.955-1.064,2.588-1.15,3.651-0.197c1.062,0.953,1.15,2.588,0.197,3.651
		c-0.234,0.262-23.526,26.519-27.81,55.539C223.242,286.106,222.139,287.03,220.877,287.03z"/>
</g>
<g>
	<path style="fill:#B8C9D9;" d="M307.927,287.03c-1.26,0-2.365-0.924-2.555-2.208c-4.282-29.02-27.576-55.277-27.81-55.539
		c-0.953-1.064-0.865-2.698,0.197-3.651c1.065-0.953,2.698-0.865,3.651,0.197c1,1.114,24.564,27.651,29.079,58.239
		c0.207,1.414-0.767,2.727-2.182,2.936C308.181,287.022,308.055,287.03,307.927,287.03z"/>
	<path style="fill:#B8C9D9;" d="M291.119,287.03c-1.26,0-2.365-0.924-2.555-2.208c-4.282-29.02-27.576-55.277-27.81-55.539
		c-0.953-1.064-0.865-2.698,0.197-3.651c1.064-0.953,2.696-0.865,3.651,0.197c1,1.114,24.564,27.651,29.079,58.239
		c0.207,1.414-0.767,2.727-2.182,2.936C291.373,287.022,291.247,287.03,291.119,287.03z"/>
</g>
<rect x="218.936" y="137.051" style="fill:#CFDBE6;" width="74.128" height="99.987"/>
<g>
	<rect x="255.862" y="137.051" style="fill:#B8C9D9;" width="37.207" height="99.987"/>
	<rect x="218.936" y="143.946" style="fill:#B8C9D9;" width="74.128" height="10.343"/>
	<rect x="218.936" y="163.547" style="fill:#B8C9D9;" width="74.128" height="10.343"/>
	<rect x="218.936" y="183.165" style="fill:#B8C9D9;" width="74.128" height="10.343"/>
	<rect x="218.936" y="222.384" style="fill:#B8C9D9;" width="74.128" height="10.343"/>
	<rect x="218.936" y="202.766" style="fill:#B8C9D9;" width="74.128" height="10.343"/>
</g>
<g>
	<rect x="255.862" y="143.946" style="fill:#99AEBF;" width="37.207" height="10.343"/>
	<rect x="255.862" y="163.547" style="fill:#99AEBF;" width="37.207" height="10.343"/>
	<rect x="255.862" y="183.165" style="fill:#99AEBF;" width="37.207" height="10.343"/>
	<rect x="255.862" y="222.384" style="fill:#99AEBF;" width="37.207" height="10.343"/>
	<rect x="255.862" y="202.766" style="fill:#99AEBF;" width="37.207" height="10.343"/>
</g>
<g>
</g>
<g>
</g>
<g>
</g>
<g>
</g>
<g>
</g>
<g>
</g>
<g>
</g>
<g>
</g>
<g>
</g>
<g>
</g>
<g>
</g>
<g>
</g>
<g>
</g>
<g>
</g>
<g>
</g>
</svg>
