<?xml version="1.0" encoding="iso-8859-1"?>
<!-- Generator: Adobe Illustrator 19.0.0, SVG Export Plug-In . SVG Version: 6.00 Build 0)  -->
<svg version="1.1" id="Layer_1" xmlns="http://www.w3.org/2000/svg" xmlns:xlink="http://www.w3.org/1999/xlink" x="0px" y="0px"
	 viewBox="0 0 512.001 512.001" style="enable-background:new 0 0 512.001 512.001;" xml:space="preserve">
<g>
	<path style="fill:#787780;" d="M441.764,352.5l-0.027,13.503c-0.018,9.073,7.3,16.442,16.344,16.46l0,0
		c9.045,0.018,16.392-7.322,16.411-16.396l0.027-13.503"/>
	<path style="fill:#787780;" d="M315.189,355.551l-0.027,13.503c-0.018,9.073,7.3,16.442,16.344,16.461l0,0
		c9.045,0.018,16.392-7.322,16.411-16.396l0.027-13.503"/>
	<path style="fill:#787780;" d="M378.55,355.689l-0.027,13.503c-0.018,9.073,7.3,16.442,16.344,16.461l0,0
		c9.045,0.018,16.392-7.322,16.411-16.396l0.027-13.503"/>
	<path style="fill:#787780;" d="M71.009,355.061l-0.027,13.503c-0.018,9.073,7.3,16.442,16.345,16.461l0,0
		c9.045,0.018,16.392-7.322,16.411-16.396l0.027-13.503"/>
	<path style="fill:#787780;" d="M139.882,355.199l-0.027,13.503c-0.018,9.073,7.3,16.442,16.344,16.461l0,0
		c9.045,0.018,16.392-7.322,16.411-16.396l0.027-13.503"/>
</g>
<g>
	<polyline style="fill:#FF633E;" points="226.61,157.497 194.627,126.346 173.051,148.363 204.622,180.542 	"/>
	<path style="fill:#FF633E;" d="M477.03,345.453c-4.797,1.458-10.051,2.916-15.795,4.33c-16.351,4.007-33.136,6.011-49.955,5.977
		l-283.313-0.568h-1.981l-22.429-0.045c-23.43-0.045-38.023-0.078-38.023-0.078c-39.414-6.834-64.793-45.314-55.086-83.904
		l2.694-10.686l3.606-14.348l16.941-67.431l45.814,0.089l6.267,15.572c14.537,36.142,61.364,45.336,88.412,17.353l52.426-54.218
		c0,0,103.684,106.945,241.517,114.069c4.608,0.245,9.072,1.358,13.201,3.217c4.13,1.859,7.936,4.475,11.209,7.736
		c6.278,6.278,9.784,13.947,10.797,21.783C505.591,321.611,495.752,339.743,477.03,345.453z"/>
</g>
<path style="fill:#FF3100;" d="M125.986,355.193l-22.429-0.045c-23.43-0.045-38.023-0.078-38.023-0.078
	c-39.414-6.834-64.793-45.314-55.086-83.904l2.694-10.686l3.606-14.348l10.953,2.66c47.874,17.598,84.427,57.157,98.274,106.377
	L125.986,355.193z"/>
<path style="fill:#FFFFFF;" d="M477.03,345.453c-4.797,1.458-10.051,2.916-15.795,4.33c-16.351,4.007-33.136,6.011-49.955,5.977
	l-283.313-0.568c-7.447-20.948-15.316-34.862-15.316-34.862h102.481c60.34-1.302,155.475,3.295,215.593-2.148
	c24.499-2.182,48.987-6.578,72.606-13.88C505.591,321.611,495.752,339.743,477.03,345.453z"/>
<path style="fill:#3C3A41;" d="M511.648,303.523c-0.002-0.023-0.006-0.047-0.008-0.069c-1.256-9.999-5.776-19.419-13.21-26.85
	c-3.973-3.959-8.571-7.134-13.685-9.443c-5.149-2.311-10.593-3.632-16.188-3.927c-44.836-2.319-85.944-15.74-119.795-31.581
	c1.444-3.065,0.931-6.831-1.578-9.394c-3.223-3.294-8.509-3.353-11.804-0.127l-1.98,1.938c-8.642-4.498-16.683-9.073-24.074-13.552
	c0.492-2.617-0.273-5.423-2.296-7.449c-2.953-2.955-7.567-3.226-10.834-0.827c-7.758-5.085-14.914-10.116-21.413-14.924
	c1.823-3.187,1.384-7.316-1.337-10.038c-3.249-3.251-8.513-3.262-11.775-0.032c-18.407-14.676-28.903-25.398-29.065-25.564
	c-0.04-0.041-0.085-0.076-0.125-0.116c-0.016-0.016-0.029-0.033-0.046-0.049l-31.982-31.151c-3.294-3.209-8.566-3.149-11.788,0.137
	l-21.576,22.017c-3.182,3.247-3.18,8.444,0.003,11.69l25.726,26.222l-24.636,25.478c-8.632,8.929-20.149,13.846-32.431,13.846
	c-18.691,0-35.271-11.192-42.243-28.514l-6.263-15.564c-1.27-3.154-4.327-5.224-7.727-5.231l-45.812-0.092c-0.006,0-0.011,0-0.017,0
	c-3.827,0-7.164,2.601-8.097,6.313L2.351,269.132c-5.229,20.791-1.671,42.147,10.019,60.133
	c11.391,17.529,29.657,29.746,50.273,33.735l-0.011,5.546c-0.027,13.661,11.043,24.797,24.676,24.825c0.018,0,0.035,0,0.051,0
	c6.589,0,12.788-2.567,17.456-7.231c4.674-4.669,7.255-10.883,7.268-17.495l0.01-5.136l19.421,0.039l-0.01,5.136
	c-0.013,6.613,2.543,12.837,7.198,17.525c4.662,4.695,10.869,7.287,17.479,7.301c0.018,0,0.035,0,0.051,0
	c6.589,0,12.787-2.567,17.455-7.231c4.674-4.669,7.255-10.883,7.268-17.497l0.01-5.136l125.855,0.252l-0.01,5.136
	c-0.013,6.613,2.542,12.837,7.198,17.525c4.662,4.694,10.87,7.287,17.478,7.301c0.018,0,0.035,0,0.052,0
	c6.591,0,12.787-2.567,17.456-7.231c4.674-4.669,7.255-10.883,7.267-17.495l0.01-5.136l13.91,0.028l-0.01,5.147
	c-0.013,6.613,2.542,12.837,7.198,17.525c4.662,4.695,10.869,7.287,17.478,7.301c0.018,0,0.035,0,0.052,0
	c6.591,0,12.787-2.567,17.456-7.231c4.674-4.669,7.255-10.883,7.267-17.495l0.011-5.326c4.596-0.169,9.184-0.489,13.757-0.949
	l-0.006,2.989c-0.026,13.661,11.044,24.797,24.676,24.825c0.018,0,0.035,0,0.052,0c6.591,0,12.788-2.567,17.456-7.231
	c4.674-4.668,7.256-10.883,7.268-17.495l0.027-13.503c0-0.114-0.012-0.224-0.017-0.336c13.84-5.408,24.097-17.017,27.755-31.678
	C512.027,314.868,512.34,309.108,511.648,303.523z M184.743,148.36l10.021-10.227l20.061,19.539l-10.397,10.752L184.743,148.36z
	 M95.388,368.613c-0.004,2.163-0.847,4.194-2.372,5.718c-1.515,1.513-3.523,2.345-5.657,2.345c-0.006,0-0.011,0-0.017,0
	c-4.428-0.009-8.022-3.641-8.013-8.095l0.01-5.136l16.06,0.032L95.388,368.613z M104.158,346.799c-0.126-0.006-0.25-0.02-0.377-0.02
	c-0.124,0-0.244,0.013-0.366,0.018l-32.008-0.065c-0.127-0.006-0.253-0.02-0.382-0.02c-0.006,0-0.011,0-0.018,0
	c-0.124,0-0.244,0.013-0.366,0.019l-4.358-0.009c-16.608-3.067-30.763-12.477-39.913-26.555
	c-9.131-14.049-11.91-30.727-7.826-46.962l4.347-17.291l1.927,0.708c41.727,15.337,74.577,48.615,89.688,90.195L104.158,346.799z
	 M164.263,368.751c-0.004,2.163-0.847,4.194-2.372,5.718c-1.515,1.513-3.523,2.345-5.658,2.345c-0.006,0-0.011,0-0.017,0
	c-2.139-0.004-4.151-0.846-5.663-2.369c-1.519-1.531-2.354-3.564-2.35-5.728l0.01-5.136l16.06,0.032L164.263,368.751z
	 M339.569,369.103c-0.004,2.163-0.847,4.193-2.372,5.717c-1.515,1.513-3.523,2.345-5.657,2.345c-0.006,0-0.012,0-0.018,0
	c-2.139-0.004-4.151-0.846-5.664-2.369c-1.518-1.53-2.353-3.564-2.349-5.727l0.01-5.136l16.06,0.032L339.569,369.103z
	 M402.931,369.241c-0.004,2.163-0.847,4.193-2.372,5.717c-1.515,1.513-3.523,2.345-5.657,2.345c-0.006,0-0.012,0-0.018,0
	c-2.139-0.004-4.151-0.846-5.664-2.369c-1.518-1.53-2.353-3.564-2.349-5.727l0.01-5.147l16.06,0.032L402.931,369.241z
	 M466.145,366.052c-0.004,2.163-0.847,4.194-2.373,5.718c-1.514,1.513-3.523,2.345-5.657,2.345c-0.006,0-0.012,0-0.018,0
	c-4.428-0.009-8.022-3.641-8.013-8.095l0.011-5.347c4.406-0.794,8.787-1.719,13.132-2.785c0.987-0.243,1.96-0.493,2.935-0.742
	L466.145,366.052z M474.602,337.467c-4.845,1.476-10.014,2.892-15.361,4.209c-15.521,3.808-31.516,5.74-47.543,5.74h-0.23
	c-0.049-0.001-0.097-0.008-0.147-0.008c-0.006,0-0.011,0-0.017,0c-0.047,0-0.094,0.007-0.14,0.007l-32.449-0.065
	c-0.051-0.001-0.1-0.008-0.15-0.008c-0.006,0-0.011,0-0.017,0c-0.049,0-0.096,0.007-0.145,0.008l-30.077-0.06
	c-0.124-0.006-0.244-0.019-0.368-0.019c-0.006,0-0.011,0-0.017,0c-0.119,0-0.236,0.013-0.354,0.018l-32.012-0.065
	c-0.125-0.006-0.247-0.019-0.373-0.02c-0.006,0-0.011,0-0.017,0c-0.121,0-0.238,0.013-0.358,0.018l-141.803-0.284
	c-0.125-0.006-0.247-0.019-0.373-0.02c-0.006,0-0.011,0-0.017,0c-0.121,0-0.239,0.013-0.358,0.018l-32.002-0.065
	c-0.126-0.006-0.25-0.02-0.377-0.02c-0.006,0-0.011,0-0.018,0c-0.122,0-0.242,0.013-0.363,0.018l-7.351-0.014
	c-2.047-6.34-4.46-12.518-7.217-18.511c21.257-0.135,42.874-0.063,64.478,0.242c0.04,0.001,0.08,0.001,0.12,0.001
	c4.556,0,8.28-3.661,8.345-8.23c0.066-4.61-3.619-8.4-8.229-8.465c-24.67-0.349-49.373-0.403-73.519-0.18
	c-19.493-32.265-49.557-57.523-85.568-70.759l-3.594-1.321l13.213-52.568l33.662,0.068l4.163,10.344
	c9.528,23.677,32.188,38.977,57.731,38.977c16.848,0,32.629-6.725,44.433-18.937l28.975-29.965c0.461-0.299,0.9-0.649,1.308-1.049
	c0.506-0.498,0.927-1.047,1.28-1.627l15.049-15.563c4.924,4.617,12.692,11.583,22.963,19.832l-13.817,13.803
	c-3.261,3.258-3.265,8.544-0.006,11.805c1.63,1.632,3.768,2.448,5.906,2.448c2.135,0,4.27-0.814,5.9-2.442l15.328-15.314
	c6.36,4.743,13.366,9.721,20.974,14.786l-14.519,14.506c-3.262,3.258-3.265,8.544-0.006,11.805c1.631,1.632,3.768,2.448,5.906,2.448
	c2.135,0,4.271-0.814,5.9-2.442l17.119-17.103c6.916,4.245,14.405,8.586,22.425,12.888l-11.449,11.206
	c-3.295,3.225-3.351,8.511-0.126,11.805c1.635,1.671,3.799,2.509,5.966,2.509c2.106,0,4.214-0.793,5.838-2.382l15.464-15.137
	c36.435,17.656,81.523,33.011,131.12,35.575c3.522,0.186,6.961,1.022,10.206,2.479c3.261,1.473,6.207,3.506,8.744,6.036
	c2.955,2.954,5.18,6.406,6.642,10.13c-19.722,5.524-40.968,9.33-63.302,11.316c-37.592,3.405-80.686,2.832-122.366,2.28
	c-24.904-0.331-48.428-0.643-70.743-0.159c-4.61,0.099-8.266,3.917-8.166,8.527c0.099,4.61,3.955,8.305,8.527,8.164
	c22.029-0.475,45.409-0.166,70.16,0.163c15.784,0.209,31.764,0.422,47.608,0.422c26.417,0,52.441-0.59,76.472-2.766
	c22.167-1.97,43.347-5.685,63.164-11.021c-0.075,0.351-0.139,0.701-0.227,1.051C491.889,326.621,484.483,334.449,474.602,337.467z"
	/>
<g>
</g>
<g>
</g>
<g>
</g>
<g>
</g>
<g>
</g>
<g>
</g>
<g>
</g>
<g>
</g>
<g>
</g>
<g>
</g>
<g>
</g>
<g>
</g>
<g>
</g>
<g>
</g>
<g>
</g>
</svg>
