<?xml version="1.0" encoding="iso-8859-1"?>
<!-- Generator: Adobe Illustrator 19.0.0, SVG Export Plug-In . SVG Version: 6.00 Build 0)  -->
<svg version="1.1" id="Layer_1" xmlns="http://www.w3.org/2000/svg" xmlns:xlink="http://www.w3.org/1999/xlink" x="0px" y="0px"
	 viewBox="0 0 512 512" style="enable-background:new 0 0 512 512;" xml:space="preserve">
<path style="fill:#47A7DD;" d="M487.586,113.565H206.511l30.351,387.964h200.905c10.99,0,20.131-8.454,20.989-19.411
	L487.586,113.565z"/>
<polygon style="fill:#3D98C1;" points="206.511,113.565 236.862,501.529 298.96,501.529 273.57,113.565 "/>
<path style="fill:#DD852C;" d="M282.395,359.011L165.61,318.103L48.825,359.011c-16.762,0-30.351,13.588-30.351,30.351l0,0
	c0,16.762,13.588,30.351,30.351,30.351l109.395,30.949l124.176-30.95c16.762,0,30.351-13.588,30.351-30.351l0,0
	C312.746,372.6,299.158,359.011,282.395,359.011z"/>
<path style="fill:#C16D21;" d="M79.176,389.361L79.176,389.361c0-16.763,13.589-30.351,30.351-30.351H48.826
	c-16.762,0-30.351,13.588-30.351,30.351l0,0c0,16.763,13.589,30.351,30.351,30.351h60.702
	C92.765,419.712,79.176,406.124,79.176,389.361z"/>
<g>
	<polygon style="fill:#F2F2F2;" points="495.238,51.461 198.859,51.461 182.098,114.802 512,114.802 	"/>
	<polygon style="fill:#F2F2F2;" points="463.857,10.471 230.241,10.471 224.985,52.699 469.113,52.699 	"/>
</g>
<polyline style="fill:#E6E6E6;" points="273.81,10.471 230.241,10.471 224.985,52.699 198.859,52.699 182.098,116.04 
	272.491,116.04 281.309,52.699 273.81,51.379 "/>
<path style="fill:#FFCA6C;" d="M331.221,419.712H0v38.645c0,23.843,19.328,43.171,43.171,43.171h244.88
	c23.843,0,43.171-19.328,43.171-43.171V419.712z"/>
<path style="fill:#E2AE5A;" d="M59.383,458.358v-38.645H0v38.645c0,23.843,19.328,43.171,43.171,43.171h59.383
	C78.71,501.529,59.383,482.2,59.383,458.358z"/>
<path style="fill:#FFCA6C;" d="M0,359.011h331.221v-38.645c0-23.843-19.328-43.171-43.171-43.171H43.171
	C19.328,277.195,0,296.523,0,320.366V359.011z"/>
<path style="fill:#E2AE5A;" d="M59.383,320.366v38.645H0v-38.645c0-23.843,19.328-43.171,43.171-43.171h59.383
	C78.71,277.195,59.383,296.523,59.383,320.366z"/>
<g>
</g>
<g>
</g>
<g>
</g>
<g>
</g>
<g>
</g>
<g>
</g>
<g>
</g>
<g>
</g>
<g>
</g>
<g>
</g>
<g>
</g>
<g>
</g>
<g>
</g>
<g>
</g>
<g>
</g>
</svg>
