<?xml version="1.0" encoding="iso-8859-1"?>
<!-- Generator: Adobe Illustrator 19.0.0, SVG Export Plug-In . SVG Version: 6.00 Build 0)  -->
<svg version="1.1" id="Layer_1" xmlns="http://www.w3.org/2000/svg" xmlns:xlink="http://www.w3.org/1999/xlink" x="0px" y="0px"
	 viewBox="0 0 496.2 496.2" style="enable-background:new 0 0 496.2 496.2;" xml:space="preserve">
<path style="fill:#65A844;" d="M0,248.1C0,111.1,111.1,0,248.1,0s248.1,111.1,248.1,248.1S385.1,496.2,248.1,496.2S0,385.1,0,248.1z
	"/>
<path style="fill:#E0E0E0;" d="M378.5,137.2c-31.3-36.6-77.8-59.8-129.7-59.8c-94.3,0-170.7,76.4-170.7,170.7
	c0,53.4,24.6,101.1,63,132.4c29.4,23.9,66.9,38.3,107.7,38.3c94.3,0,170.7-76.4,170.7-170.7C419.4,205.7,404,167,378.5,137.2z"/>
<path style="fill:#FFFFFF;" d="M327.4,328.1c53.6-53.6,71.1-128.4,51-190.9c-31.3-36.6-77.8-59.8-129.7-59.8
	C154.4,77.4,78,153.8,78,248.1c0,53.4,24.6,101.1,63,132.4C202.6,398.3,275.1,380.4,327.4,328.1z"/>
<g>
	<path style="fill:#3A3A39;" d="M365.7,250.8c11.4-13.6,14.1-58.5,14.4-64.3l28.9,2.3c0,0-17.4-57.2-76.4-89.1v32
		c-18.1,0.1-57.4,7.5-65.1,9.1c-26.9-21.4-51.3-22.4-56.6-22.4l-1.3-31.8l14.4-7.4c0,0-17.2,1.9-32.2,7.3l16.1,0.6l1.3,31.6
		c-28,8-49.1,37.4-52.9,42.9c-23.8-0.2-41.6,9.7-47.5,13.5v-25.9c0,0-27.1,31.9-31.9,94.6h8.2c0.2,6.3,2.4,35,27.9,60.1
		c0.4,32.6,17.1,55.9,20.5,60.3l-5.4,4.9l1.2,1.3l5.5-4.9c16.3,13,46.6,17.7,52.9,18.6c2.9,3,24.2,24.4,51.6,32.1l-0.3,2.7
		c47.7,2.9,81.4-15.4,81.4-15.4l-6.4-5.6c5.5-8.1,15.2-36.8,16.5-40.7c20.9-8.9,44.2-38.6,48.5-44.3l27.2,2.2l0.8-2l-27.3-1.9
		C379.3,279.1,368.4,256.1,365.7,250.8z M252.4,203.4l50.9,55.3L280,326.9c-11.2,5.8-63.4,13.4-74.3,15
		c-18.3-14.8-41.6-46.3-46.1-52.6c2.1-7.6,17-60,24.1-68.9C191.6,217.7,245.4,205,252.4,203.4z M87,243.6c0,0,2.9-39.9,20.6-65.9
		v0.1c0.2-0.2,19.7-14.7,48.2-14.6c5.5,25.3,22.3,50.8,26.1,56.4c-7.4,10-21.6,59.9-24.1,68.9l-43.7,13.8
		c-24.9-24.6-27.1-52.5-27.3-58.7L87,243.6L87,243.6z M240.8,414.4c-26.7-7-47.8-27.6-51.6-31.6l16.4-39.2
		c10.7-1.5,63.2-9.1,75.1-15.1l47.6,28.5c-2,6-11.4,33.2-16.3,39.8C294.8,406.5,249.6,413.2,240.8,414.4z M304.4,257.3l-50.7-55.2
		c3.7-8.3,12.6-51.8,14.2-59.7c7.8-1.5,48.3-9.3,65.5-9c5.7,4.4,37.3,29.5,45.3,52.4h-0.3c0,0.5-2.5,50.2-14.1,63.9L304.4,257.3z"/>
	<path style="fill:#3A3A39;" d="M108.7,149c0,0-27.1,31.9-31.9,94.6h1.3C79,209,90.2,177,108.7,150.5V149z"/>
	<path style="fill:#3A3A39;" d="M223.9,79c0,0-17.2,1.9-32.2,7.3l2,0.1c9.6-3.3,19.6-5.7,29.9-7.2L223.9,79z"/>
	<path style="fill:#3A3A39;" d="M127.9,368.8l1.2,1.3l0.2-0.1C128.8,369.5,128.4,369.1,127.9,368.8L127.9,368.8z"/>
</g>
<g>
	<path style="fill:#212121;" d="M371.1,263.6c-9.9,23.2-24.5,45.2-43.7,64.5c-6.1,6.1-12.5,11.8-19.2,17l20.1,12
		c-2,6-11.4,33.2-16.3,39.8c-17.3,9.6-62.4,16.3-71.3,17.5c-21.2-5.6-38.9-19.7-47.2-27.3c-0.9,0-1.7,0-2.6,0
		c7.6,7.1,25.8,22.4,48.1,28.7l-0.3,2.7c47.7,2.9,81.4-15.4,81.4-15.4l-6.4-5.6c5.5-8.1,15.2-36.8,16.5-40.7
		c20.9-8.9,44.2-38.6,48.5-44.3l27.2,2.2l0.8-2l-27.3-1.9C379.3,290.9,375,274.4,371.1,263.6z"/>
	<path style="fill:#212121;" d="M378.5,137.2c5.1,16,7.8,32.8,8,49.8l22.5,1.8c0,0-15-49-63.9-81.6
		C357.4,115.6,368.7,125.7,378.5,137.2z"/>
</g>
<g>
</g>
<g>
</g>
<g>
</g>
<g>
</g>
<g>
</g>
<g>
</g>
<g>
</g>
<g>
</g>
<g>
</g>
<g>
</g>
<g>
</g>
<g>
</g>
<g>
</g>
<g>
</g>
<g>
</g>
</svg>
