<?xml version="1.0" encoding="iso-8859-1"?>
<!-- Generator: Adobe Illustrator 19.0.0, SVG Export Plug-In . SVG Version: 6.00 Build 0)  -->
<svg version="1.1" id="Layer_1" xmlns="http://www.w3.org/2000/svg" xmlns:xlink="http://www.w3.org/1999/xlink" x="0px" y="0px"
	 viewBox="0 0 496.158 496.158" style="enable-background:new 0 0 496.158 496.158;" xml:space="preserve">
<path style="fill:#D8DBBA;" d="M248.075,0C111.07,0,0,111.062,0,248.083c0,137.005,111.07,248.075,248.075,248.075
	c137.013,0,248.083-111.07,248.083-248.075C496.158,111.062,385.088,0,248.075,0z"/>
<g>
	<path style="fill:#826A4D;" d="M421.351,190.26c-1.71-11.422-67.642-30.786-73.37-38.979c-5.729-8.19-12.363-53.619-18.394-55.13
		c-6.03-1.507-16.583,52.766-22.877,66.598c-4.437,9.747-15.217,25.006-19.809,31.214l59.081,44.943
		c2.701-5.696,9.726-18.491,13.461-18.839c4.984-0.467,22.911,5.742,38.979,4.59C414.487,223.502,423.059,201.69,421.351,190.26z"/>
	<path style="fill:#826A4D;" d="M340.317,269.726l-68.585-52.49c0,0-110.995,9.326-117.135,6.641
		c-6.136-2.693-43.614-56.862-50.442-52.742c-6.828,4.124,34.341,77.293,34.341,77.293s9.854,39.951,8.67,64.823
		c-0.566,11.874-11.474,35.996-10.343,46.737c1.501,14.237,3.112,55.122,6.574,58.044c3.463,2.922,17.737,1.882,19.788,0
		c2.054-1.882,1.317-53.523,1.317-53.523s22.615-48.998,37.692-56.537c15.077-7.536,93.474,3.771,98.37,10.936
		c4.898,7.161,14.7,92.246,16.961,94.603s17.527,3.014,20.496,0.666C340.995,411.827,340.317,269.726,340.317,269.726z"/>
</g>
<polygon style="fill:#493E30;" points="120.784,73.919 107.968,81.455 341.272,261.05 344.099,246.916 "/>
<g>
</g>
<g>
</g>
<g>
</g>
<g>
</g>
<g>
</g>
<g>
</g>
<g>
</g>
<g>
</g>
<g>
</g>
<g>
</g>
<g>
</g>
<g>
</g>
<g>
</g>
<g>
</g>
<g>
</g>
</svg>
