<?xml version="1.0" encoding="UTF-8" standalone="no"?>
<!-- Created with Inkscape (http://www.inkscape.org/) -->

<svg
   width="99.660385mm"
   height="61.347069mm"
   viewBox="0 0 99.66038 61.34707"
   version="1.1"
   id="svg5"
   sodipodi:docname="emptyList.svg"
   inkscape:version="1.1 (35044de2a8, 2021-06-18)"
   xmlns:inkscape="http://www.inkscape.org/namespaces/inkscape"
   xmlns:sodipodi="http://sodipodi.sourceforge.net/DTD/sodipodi-0.dtd"
   xmlns="http://www.w3.org/2000/svg"
   xmlns:svg="http://www.w3.org/2000/svg">
  <sodipodi:namedview
     id="namedview7"
     pagecolor="#505050"
     bordercolor="#eeeeee"
     borderopacity="1"
     inkscape:pageshadow="0"
     inkscape:pageopacity="0"
     inkscape:pagecheckerboard="0"
     inkscape:document-units="mm"
     showgrid="false"
     inkscape:zoom="2"
     inkscape:cx="87"
     inkscape:cy="112.5"
     inkscape:window-width="1920"
     inkscape:window-height="949"
     inkscape:window-x="0"
     inkscape:window-y="27"
     inkscape:window-maximized="1"
     inkscape:current-layer="g39203"
     fit-margin-top="0"
     fit-margin-left="0"
     fit-margin-right="0"
     fit-margin-bottom="0" />
  <defs
     id="defs2">
    <rect
       x="133.7787"
       y="761.47406"
       width="225.47003"
       height="139.08807"
       id="rect5550" />
  </defs>
  <g
     inkscape:label="Camada 1"
     inkscape:groupmode="layer"
     id="layer1"
     transform="translate(-140.68049,-17.846454)">
    <g
       id="g39203"
       transform="matrix(0.74344152,0,0,0.62634427,101.5621,-6.0267337)"
       style="stroke-width:1.46546">
      <g
         id="g41779"
         transform="matrix(1.2770734,0,0,1.2136247,-14.579043,-29.065728)"
         style="stroke-width:1.17713">
        <path
           id="path18607"
           style="fill:#cccccc;fill-opacity:1;stroke-width:0.861283;stroke-linejoin:round"
           transform="matrix(0.37632637,0,0,0.44671133,52.617979,55.356827)"
           d="m 98.974609,0.00195313 -0.0039,0.00195312 -0.002,0.00195313 -0.0059,0.00195312 -0.002,0.00195313 -0.0039,0.00390625 -0.0039,0.0019531 -0.0039,0.0019531 -0.0039,0.0019531 -0.0039,0.0019531 -0.0059,0.0039063 -0.002,0.0019531 -0.0059,0.0019531 -0.0059,0.0039062 -0.0059,0.0019531 -0.0059,0.0019531 -0.0059,0.0039063 -0.0059,0.0019531 -0.0078,0.0039063 -0.0059,0.0039063 -0.0059,0.0039063 -0.0059,0.0039063 -0.0059,0.0039063 v 0.0058594 0.0039063 0.0039063 0.0078125 0.0058594 0.0078125 0.0058594 0.007813 0.003906 0.007813 0.005859 0.005859 0.005859 0.005859 0.003906 0.005859 0.007813 0.001953 0.001953 0.001953 0.001953 0.007813 l -0.0078,0.005859 -0.0098,0.005859 A 98.879765,90.267282 0 0 0 0,90.392578 98.879765,90.267282 0 0 0 98.880859,180.66016 98.879765,90.267282 0 0 0 186.75586,131.16797 c -0.40159,-0.18284 -0.73143,-0.3854 -0.99414,-0.59961 -0.59398,-0.39881 -1.02468,-0.82118 -1.16211,-1.23633 -0.3158,-0.1681 -0.62439,-0.36369 -0.94141,-0.60742 -0.39067,-0.33337 -0.80133,-0.64999 -1.19336,-0.98242 -0.17766,-0.15662 -0.35799,-0.31064 -0.53125,-0.47071 -0.0102,-0.009 -0.0136,-0.0143 -0.0234,-0.0234 -0.18005,-0.0733 -0.35868,-0.1474 -0.53125,-0.23243 -0.15451,-0.0761 -0.2895,-0.17653 -0.42188,-0.27929 -0.0412,-0.011 -0.0833,-0.0245 -0.125,-0.0371 -0.009,-0.002 -0.0157,-0.004 -0.0234,-0.006 -0.001,-4e-4 -0.002,4.7e-4 -0.004,-0.002 -0.009,-0.002 -0.018,-0.005 -0.0254,-0.008 -0.30088,-0.0944 -0.62936,-0.23121 -1.12891,-0.41211 -0.008,-0.002 0.0122,0.002 0.0176,0.002 -0.1559,-0.0712 -0.31241,-0.1412 -0.4668,-0.21485 -0.13554,-0.0648 -0.50294,-0.18572 -0.53906,-0.23047 -0.009,-0.0108 2.6e-4,-0.0176 0.0391,-0.0176 -0.37966,-0.10707 -1.01279,-0.30188 -1.49023,-0.53711 -0.7698,-0.37923 -1.57126,-1.20005 -2,-1.89258 -0.10311,-0.0815 -0.25065,-0.1948 -0.49805,-0.38477 -0.0136,-0.0103 0.031,0.0192 0.0469,0.0273 -0.52694,-0.47286 -0.44878,-0.37886 -0.875,-0.84375 -0.14953,-0.16322 -0.30439,-0.32456 -0.44336,-0.49414 -0.0316,-0.039 -0.0324,-0.0926 -0.0684,-0.12891 -0.24658,-0.24887 -0.55414,-0.45193 -0.77735,-0.71875 -0.1043,-0.13104 0.003,0.0119 0.19727,0.11914 0.2226,0.12293 0.4331,0.27084 0.68555,0.3418 0.0363,0.0102 0.0745,0.0205 0.11132,0.0293 -5.36783,-3.26341 -2.23587,-1.4686 -1.39648,-0.64648 0.1546,0.1514 -0.40552,-0.20846 -0.5918,-0.33203 -0.94638,-0.62788 -0.84448,-0.60555 -1.58594,-1.36328 -0.39642,-0.52782 -0.36901,-0.47607 -0.50976,-0.75586 -0.31553,-0.26304 -0.62825,-0.52901 -0.93164,-0.80274 -0.088,-0.0795 -0.18786,-0.1507 -0.26953,-0.23437 -0.37958,-0.21209 -0.74414,-0.43145 -1.0918,-0.6875 -0.0984,-0.0724 -0.19499,-0.14395 -0.29297,-0.2168 -1.88095,-0.16858 -2.92927,-1.16473 -3.7539,-2.60547 -0.0586,-0.10159 -0.0957,-0.20847 -0.12305,-0.31836 -0.11296,-0.0399 -0.22241,-0.0885 -0.32813,-0.13867 -0.82049,-0.38939 -0.97678,-0.49011 -1.31054,-0.79101 -7e-4,-6e-4 -0.003,-4.8e-4 -0.004,-0.002 -0.13734,-0.0922 -0.25573,-0.17562 -0.4082,-0.29687 -0.61263,-0.29544 -0.94231,-0.54225 -1.47071,-1.06055 -0.0533,-0.0645 -0.10719,-0.12864 -0.16015,-0.19336 -0.0669,-2e-5 -0.13376,-7e-5 -0.20117,0 -0.046,-0.006 -0.0968,0.008 -0.14258,0 -0.0484,-0.008 -0.095,-0.0215 -0.14258,-0.0332 -0.0246,-0.006 -0.0308,-0.008 -0.0332,-0.01 -0.001,-8e-5 -0.006,-0.002 -0.0117,-0.002 -0.13317,-0.022 -0.11568,-0.0137 -0.26367,-0.11719 0.001,9e-4 -0.002,0.002 -0.004,0.002 -0.0652,-0.0178 -0.13185,-0.0332 -0.19531,-0.0566 -0.0128,-0.005 -0.0238,-0.0118 -0.0352,-0.0195 v 0.002 c -0.0239,-0.003 -0.0457,-0.0171 -0.0684,-0.0254 -0.003,0.005 0.006,0.007 0.006,0.01 -1.9e-4,0.008 -0.11536,0.009 -0.13086,0.01 -0.10978,0.008 -0.2028,-0.0293 -0.29687,-0.0781 -0.067,-0.004 -0.13419,-0.0191 -0.20118,-0.0234 -0.007,-4.6e-4 -0.0131,0.004 -0.0195,0.002 -0.16912,-0.0552 -0.15859,-0.0466 -0.22461,-0.0918 -0.0599,-0.004 -0.11807,-0.0161 -0.17773,-0.0234 -0.0481,-0.0331 -0.10024,-0.0614 -0.14453,-0.0996 -0.007,-0.006 -0.0137,-0.0123 -0.0195,-0.0195 -0.045,-0.02 -0.0926,-0.043 -0.10938,-0.0508 -0.0795,-0.0177 -0.14901,-0.0576 -0.21679,-0.0996 -0.066,-0.0161 -0.15236,-0.0339 -0.21485,-0.0664 -0.0293,-0.0153 -0.0579,-0.0331 -0.0859,-0.0508 -0.0207,-0.008 -0.0416,-0.0147 -0.0625,-0.0215 -0.0337,-0.0208 -0.0668,-0.0436 -0.10156,-0.0625 -0.005,-0.003 -0.0123,4.5e-4 -0.0176,-0.002 -0.0316,-0.0131 -0.0636,-0.0287 -0.0937,-0.0449 -0.0325,-0.0176 -0.0619,-0.0385 -0.0937,-0.0566 -0.016,-0.009 -0.0322,-0.0171 -0.0488,-0.0254 -0.0223,-0.0129 -0.0461,-0.0262 -0.0684,-0.0391 10e-4,0.002 0.008,0.006 0.006,0.006 -0.0706,-0.0101 -0.12648,-0.0739 -0.18555,-0.11133 -0.007,-0.004 -0.0154,-0.005 -0.0215,-0.01 -0.0372,-0.0303 -0.0715,-0.064 -0.10742,-0.0957 -0.0556,-0.0892 -0.12914,-0.15588 -0.20508,-0.22656 -0.0198,-0.0255 -0.0866,-0.10671 -0.10742,-0.14844 -0.0377,-0.0887 -0.0429,-0.10109 -0.043,-0.10156 -0.002,-0.002 -0.007,-0.008 -0.0176,-0.0273 -0.0376,-0.0695 -0.0117,-0.0769 -0.0449,-0.0625 -0.0317,-0.004 -0.0625,-0.0445 -0.0918,-0.0918 l -0.002,-0.002 c -0.23215,-0.14441 -0.43735,-0.3203 -0.63086,-0.50391 -0.84264,0.56197 -0.60009,0.10874 -0.0508,-0.0312 -0.13656,-0.0783 -0.19673,-0.1261 -0.42578,-0.30664 -0.0709,-0.0557 -0.15025,-0.1075 -0.20312,-0.17578 -0.17948,-0.23137 -0.32602,-0.47745 -0.49024,-0.7168 0.13644,-0.11569 0.27212,-0.23173 0.40821,-0.34765 -0.004,-0.007 -0.006,-0.0159 -0.01,-0.0234 -0.2767,-0.16331 -0.21986,-0.13056 -0.50977,-0.34961 -0.0555,-0.0513 -0.11051,-0.10317 -0.16601,-0.1543 -0.0331,-0.0201 -0.0598,-0.0439 -0.0781,-0.0781 l -0.008,-0.008 c -0.0353,-0.003 -0.072,-0.009 -0.0996,-0.0137 0.0276,0.0206 0.0487,0.0388 0,0.0176 -0.0461,-0.0197 -0.0525,-0.0228 -0.0351,-0.0215 -0.0118,-10e-4 -0.0204,-0.005 -0.0391,-0.008 -0.0298,0.001 -0.053,-0.0167 -0.0781,-0.0293 -0.0103,-0.001 -0.0202,-0.003 -0.0293,-0.006 -0.0401,-0.0155 -0.0995,-0.0656 -0.13086,-0.0918 -0.0221,-0.0204 -0.0444,-0.0385 -0.0684,-0.0586 -0.0139,-0.009 -0.0258,-0.0243 -0.0391,-0.0332 h -0.002 c -0.006,-0.002 -0.0122,-0.01 -0.0176,-0.0117 -0.008,-0.002 -0.0155,-0.007 -0.0234,-0.0117 -0.0106,-0.007 -0.0193,-0.0154 -0.0273,-0.0195 -0.006,-0.002 0.004,0.009 0.008,0.0117 -0.0409,-0.01 -0.0636,-0.0265 -0.0937,-0.0508 -0.017,-0.0219 -0.023,-0.0202 -0.0469,-0.0312 -0.0191,-0.008 -0.0492,-0.0215 -0.0625,-0.0352 -0.009,-0.009 -0.0153,-0.0191 -0.0215,-0.0293 v -0.002 c -0.0306,-0.0161 -0.0517,-0.0461 -0.0723,-0.0703 -0.0202,-0.0157 -0.0302,-0.0371 -0.0449,-0.0547 5.5e-4,0.001 1.4e-4,0.005 0,0.006 h -0.004 l -0.0274,-0.0215 c -0.0295,-0.0333 -0.0662,-0.061 -0.10156,-0.0898 -0.0245,-0.0213 -0.0517,-0.0402 -0.0703,-0.0664 -0.006,-0.008 -0.01,-0.0167 -0.0137,-0.0254 -0.0338,-0.0171 -0.0676,-0.0339 -0.10157,-0.0508 -0.0759,-0.0586 -0.12137,-0.0987 -0.17187,-0.14062 -0.0386,-0.006 -0.0779,-0.0228 -0.10742,-0.0449 -0.0103,-0.007 -0.0196,-0.0149 -0.0274,-0.0215 h -0.002 c -0.0233,-0.009 -0.0755,-0.0407 -0.0762,-0.041 -0.0103,-0.005 -0.0208,-0.0112 -0.0312,-0.0156 l -0.041,-0.0195 c -0.039,-0.0248 -0.0267,-0.0153 -0.0508,-0.0371 h -0.002 c -0.0151,-0.008 -0.0429,-0.022 -0.0488,-0.0254 -0.0122,-0.005 -0.0226,-0.0111 -0.0332,-0.0156 -0.016,-0.008 -0.0526,-0.0282 -0.0684,-0.0371 -0.0144,-0.0105 -0.0277,-0.02 -0.041,-0.0312 -0.0146,-0.0101 -0.0224,-0.016 -0.0254,-0.0176 7e-4,0.001 0.003,0.002 0.006,0.006 -0.0364,-0.0105 -0.0673,-0.0314 -0.0937,-0.0547 -0.008,-0.009 -0.0128,-0.0167 -0.0234,-0.0234 l -0.0156,-0.008 c -0.0112,-0.007 -0.0187,-0.009 -0.0293,-0.0156 -0.0178,-0.0118 -0.0566,-0.0326 -0.0644,-0.0527 -0.008,-0.0219 -0.0103,-0.0436 -0.0156,-0.0664 -0.007,-0.032 -10e-4,-0.046 0.01,-0.0469 -0.005,-0.005 -0.008,-0.011 -0.0137,-0.0156 -0.0125,-0.0101 -0.0233,-0.0192 -0.0312,-0.0293 v -0.002 c -0.037,-0.01 -0.0779,-0.0149 -0.11133,-0.0312 -0.99826,-0.48894 -1.27836,-0.71462 -1.59961,-1.05859 -0.16474,-0.0782 -0.3525,-0.19754 -0.64844,-0.41211 -0.0695,-0.0504 -0.12488,-0.11036 -0.17383,-0.17578 l -0.002,-0.002 c -0.0988,-0.0561 -0.19619,-0.11699 -0.28711,-0.18164 -0.01,-0.005 -0.0175,-0.0108 -0.0273,-0.0156 -0.12941,-0.0337 -0.21399,-0.0879 -0.28125,-0.15039 -0.21668,-0.12557 -0.41827,-0.26575 -0.60742,-0.42578 -0.26945,-0.0235 -0.61123,-0.26281 -0.86524,-0.45508 0.006,0.005 0.0106,0.01 0.0156,0.0156 0.0282,0.0324 -0.0635,-0.0324 -0.11329,-0.0625 -0.19194,-0.11362 -0.36774,-0.23307 -0.53515,-0.36523 6.1e-4,5.7e-4 -0.004,-0.004 -0.004,-0.004 0.009,0.01 -0.20014,-0.15265 -0.26367,-0.20508 0.006,0.005 0.0121,0.0106 0.0176,0.0156 -0.006,-0.002 -0.0256,-0.0125 -0.0312,-0.0176 -0.0246,-0.0197 -0.0494,-0.0391 -0.0742,-0.0586 -0.0411,-0.0248 -0.0839,-0.0494 -0.125,-0.0742 -0.021,-0.0224 -0.0619,-0.0611 -0.0977,-0.0957 -0.0598,-0.0238 -0.16012,-0.0938 -0.23046,-0.13282 -0.0695,-0.005 -0.13625,-0.0203 -0.19727,-0.0527 -0.0361,-0.0201 -0.0757,-0.0367 -0.11133,-0.0566 -0.0898,-0.0522 -0.15545,-0.12723 -0.23437,-0.18945 -0.0194,-0.0166 -0.0471,-0.041 -0.0684,-0.0566 -0.0172,-0.0126 -0.0352,-0.0266 -0.0527,-0.0391 -0.16032,-0.065 -0.32838,-0.2257 -0.49023,-0.394529 -0.004,-0.0036 -0.008,-0.006 -0.0117,-0.0098 v -0.002 c -0.12587,-0.05911 -0.24544,-0.127116 -0.34766,-0.210937 -0.0796,-0.06502 -0.15186,-0.136292 -0.21875,-0.210937 -0.5944,-0.283489 -0.75711,-0.415979 -0.65429,-0.47461 -0.10069,-0.06888 -0.19748,-0.140634 -0.28125,-0.224609 -0.0245,-0.02464 -0.0485,-0.05109 -0.0723,-0.07617 -0.0252,-0.02115 -0.0507,-0.0411 -0.0762,-0.0625 -0.0366,-0.01599 -0.0673,-0.02934 -0.10938,-0.04883 -0.11126,-0.05147 -0.13085,-0.09179 -0.20117,-0.132813 -0.0535,-0.03027 -0.10529,-0.06263 -0.15234,-0.09961 -0.0588,-0.04259 -0.15432,-0.09078 -0.21485,-0.142578 -0.001,-0.0012 -0.006,-0.0027 -0.008,-0.0039 -0.0124,-0.0068 -0.0238,-0.0113 -0.0351,-0.01953 -0.005,-0.0018 -0.0111,-0.006 -0.0156,-0.0078 0.009,0.0075 0.023,0.01663 0.0332,0.02539 0.0803,0.07965 -0.0416,-0.03214 -0.0469,-0.0332 -0.0174,-0.0069 -0.0353,-0.01242 -0.0527,-0.01953 -0.0197,-0.0092 -0.0373,-0.02077 -0.0586,-0.0293 -0.0874,-0.03696 -0.18089,-0.06658 -0.24414,-0.132812 -0.0193,-0.02203 -0.031,-0.03574 -0.043,-0.05078 l -0.002,-0.002 c -0.0462,-0.02547 -0.0917,-0.05194 -0.13867,-0.07617 -0.0394,-0.04691 -0.0781,-0.09338 -0.11719,-0.140625 0.0175,0.02499 -0.0746,-0.04769 -0.0957,-0.07227 -3.21988,-0.118304 -3.56851,-2.629386 -1.00782,-3.345703 4e-4,-0.148511 0.0767,-0.232596 0.16407,-0.253907 -2.2e-4,-0.01658 -4.1e-4,-0.0342 0,-0.05078 -0.0193,-0.01795 -0.0155,-0.03272 0.002,-0.04492 l 0.002,-0.002 c 0.002,-0.0337 0.004,-0.06794 0.008,-0.101562 0.0308,-0.294766 0.0809,-0.589936 0.16797,-0.876953 -0.007,-0.428387 -0.11339,-0.839521 0.11914,-1.28125 0.31676,-0.310687 0.5787,-0.668142 0.95118,-0.931641 0.20223,-0.14308 0.50018,-0.20025 0.79101,-0.230469 7e-4,-1.95e-4 0.003,-0.0039 0.004,-0.0039 0.0551,-0.01214 0.11497,-0.01663 0.17969,-0.01563 0.0842,-0.0063 0.16537,-0.01231 0.24218,-0.01758 -0.0208,0.0024 -0.042,0.005 -0.0547,0.0078 -0.0295,0.0059 -0.0539,0.0083 -0.0801,0.01367 0.13088,0.0138 0.2984,0.05415 0.5,0.107422 0.001,-0.0041 0.002,-0.008 0.004,-0.01172 0.003,-0.003 0.005,-0.005 0.008,-0.0078 0,-0.0012 -1.1e-4,-0.0027 0.002,-0.0039 0.0103,-0.0135 0.0199,-0.02893 0.0332,-0.04102 6.7e-4,-5.92e-4 -1.7e-4,-0.0031 0.004,-0.0059 0.006,-0.0036 0.009,-0.0082 0.0117,-0.01172 0.006,-0.003 0.009,-0.0044 0.0117,-0.0078 0.006,-0.0047 0.011,-0.01117 0.0137,-0.01563 0.006,-0.0065 0.0141,-0.01302 0.0195,-0.01953 0.003,-0.0018 0.003,-0.0049 0.006,-0.0059 0.001,-2.25e-4 0.0107,0.0045 0.0117,0.0039 0.002,-0.0018 0.01,-0.0056 0.0117,-0.0078 0.006,-0.01102 0.008,-0.0229 0.0156,-0.0332 0.006,-0.01031 0.0267,-0.01112 0.0293,-0.02344 0.009,-0.0072 0.0214,-0.01408 0.0293,-0.02148 0.0103,-0.0094 0.0226,-0.01905 0.0332,-0.0293 0.0143,-0.01321 0.0225,-0.02816 0.0332,-0.04297 0.0295,-0.03743 0.0598,-0.07356 0.0918,-0.109375 0.008,-0.0098 0.0154,-0.01946 0.0234,-0.0293 0.008,-0.01007 0.01,-0.0094 0.0176,-0.01758 0.006,-0.0036 0.009,-0.0081 0.0117,-0.01172 0.006,-0.0047 0.008,-0.0085 0.0137,-0.01367 0,-0.0018 0.006,-0.0056 0.008,-0.0078 0.006,-0.0093 0.0161,-0.03142 0.0215,-0.03906 0.0231,-0.04081 0.008,-0.01317 0.0352,-0.05859 0.008,-0.0122 0.0155,-0.02325 0.0234,-0.03516 0.0274,-0.03406 0.021,-0.02395 0.0449,-0.05078 0.0157,-0.01735 0.0302,-0.03621 0.0488,-0.05078 0.003,-0.003 0.009,-0.005 0.0117,-0.0078 0.003,-0.0018 0.004,-0.0021 0.006,-0.0039 7e-4,-0.0018 -4e-5,-0.0062 0.002,-0.0078 0.0106,-0.02079 0.01,-0.02372 0.0234,-0.03516 0.008,-0.01007 0.008,-0.01118 0.0215,-0.02148 0.008,-0.0053 0.0123,-0.0096 0.0176,-0.01563 0.003,-0.0041 0.0192,-0.02486 0.0195,-0.02539 0.006,-0.0063 0.0103,-0.01349 0.0156,-0.01953 0.0212,-0.02227 0.0114,-0.0086 0.0274,-0.02539 0.0112,-0.01214 0.0143,-0.01289 0.0273,-0.02539 l 0.0117,-0.0078 c 10e-4,-5.92e-4 0.007,-0.0027 0.008,-0.0039 0.006,-0.003 0.009,-0.0077 0.0117,-0.01172 0.003,-0.0024 0.006,-0.0056 0.008,-0.0078 0.003,-0.0047 0.009,-0.009 0.0117,-0.01367 0.0115,-0.01244 0.016,-0.0229 0.0293,-0.03516 0.003,-0.0012 0.004,-1.58e-4 0.006,-0.002 0.008,-0.0081 0.0135,-0.01668 0.0215,-0.02539 0.006,-0.0053 0.008,-0.01213 0.0137,-0.01758 0.006,-0.0059 0.007,-0.0054 0.01,-0.01172 0.003,-0.0047 0.005,-0.0095 0.008,-0.01367 0.0143,-0.01931 0.0157,-0.01828 0.0312,-0.03125 0.0188,-0.01504 0.0361,-0.03078 0.0547,-0.04687 0.0106,-0.0079 0.0174,-0.01603 0.0254,-0.02344 0.0157,-0.01273 0.0341,-0.02266 0.0527,-0.0332 0.009,-0.0053 0.0153,-0.009 0.0234,-0.01172 0.11412,-0.130529 0.0491,-0.0622 0.24024,-0.236328 0.0195,-0.01427 0.0283,-0.02077 0.0312,-0.02344 0.0734,-0.103823 0.0562,-0.07767 0.20507,-0.228516 0.0104,-0.0082 0.0172,-0.0187 0.0273,-0.02734 5.2e-4,-0.01155 0.006,-0.02479 0.0176,-0.03906 0.006,-0.007 0.004,-0.01822 0.01,-0.02539 0.002,-0.0041 0.009,-0.006 0.0117,-0.0098 0.0136,-0.01842 0.0302,-0.03794 0.0488,-0.05273 0.006,-0.0036 0.008,-0.0073 0.01,-0.01172 0.009,-0.01984 0.0106,-0.03917 0.0312,-0.05469 0.008,-0.0083 0.0146,-0.01343 0.0254,-0.02148 0.003,-0.0012 0.004,-0.0047 0.006,-0.0059 0.006,-0.003 0.009,-0.0047 0.0117,-0.0078 0.0146,-0.01297 0.0157,-0.01195 0.0312,-0.01953 0.003,-0.0012 0.007,-0.0039 0.01,-0.0039 9.9e-4,0 -0.001,0.0045 0,0.0039 0.003,-0.0012 0.01,-0.0041 0.0117,-0.0059 0.0106,-0.0084 0.0148,-0.01976 0.0254,-0.02734 0.006,-0.0041 0.007,-0.0062 0.01,-0.0078 h 0.008 c 0.002,-0.0036 0.01,-0.0091 0.0117,-0.01172 0.009,-0.01226 0.0252,-0.01893 0.0332,-0.03125 0.0186,-0.01747 0.005,-0.0094 0.0215,-0.02148 0.003,-0.0018 0.009,-0.0043 0.0117,-0.0059 l 0.004,-0.0039 c 0.006,-0.0069 0.003,-0.01852 0.0137,-0.02344 0.003,-0.0047 0.008,-0.0092 0.0137,-0.01367 0.006,-0.0041 0.0103,-0.0077 0.0156,-0.01172 0.0109,-0.0094 0.0214,-0.01893 0.0293,-0.03125 0.0181,-0.02298 0.0353,-0.04755 0.0566,-0.06836 0.008,-0.01001 0.0138,-0.01982 0.0215,-0.0293 9.9e-4,-0.003 0.006,-0.0046 0.008,-0.0078 7e-4,-0.0018 3.9e-4,-0.006 0.002,-0.0078 l 0.002,-0.0039 v -0.002 c 0.002,-0.0081 0.007,-0.01526 0.01,-0.02344 0.006,-0.0063 0.0104,-0.01349 0.0156,-0.01953 0.006,-0.0036 0.008,-0.0083 0.0137,-0.01172 0.0234,-0.01955 0.0452,-0.04102 0.0664,-0.0625 0.006,-0.006 0.0247,-0.03006 0.0273,-0.0332 0.006,-0.0041 0.008,-0.0081 0.0137,-0.01172 0.0143,-0.0122 0.0297,-0.02479 0.043,-0.03711 0.0151,-0.01256 0.0226,-0.021 0.0332,-0.03711 0.0149,-0.02085 0.0309,-0.04167 0.0469,-0.0625 0.006,-0.0047 0.0104,-0.009 0.0156,-0.01367 0.006,-0.0047 0.008,-0.01052 0.01,-0.01172 h 0.002 c 6.4e-4,-3.14e-4 -2.1e-4,-0.0012 0.004,-0.0039 0.008,-0.0047 0.008,-0.01225 0.0137,-0.01758 0.006,-0.0036 0.009,-0.0047 0.0117,-0.0078 0.0133,-0.01096 0.0174,-0.02195 0.0254,-0.03516 0.0103,-0.01505 0.0265,-0.02666 0.0371,-0.04102 0.008,-0.01001 0.0155,-0.02142 0.0234,-0.03125 0.038,-0.04454 0.0797,-0.08586 0.11718,-0.130859 0.0101,-0.01368 0.0248,-0.02935 0.0352,-0.04297 0.003,-0.0041 0.009,-0.0077 0.0117,-0.01172 0.008,-0.01054 0.0155,-0.02094 0.0234,-0.03125 0.0191,-0.01925 0.0322,-0.04108 0.0508,-0.06055 0.003,-0.0036 0.009,-0.0085 0.0117,-0.01172 0.006,-0.0041 0.008,-0.0077 0.0137,-0.01172 0.003,-0.0047 0.006,-0.009 0.0117,-0.01367 0.003,-0.003 0.005,-0.0089 0.008,-0.01172 0.003,-0.0041 0.009,-0.0075 0.0117,-0.01172 0.006,-0.0072 0.0104,-0.01503 0.0156,-0.02148 0.004,-0.0036 0.0222,-0.02006 0.0273,-0.02344 0.003,-0.0018 0.006,-0.0021 0.008,-0.0039 l 0.002,-0.0039 c 0.004,-0.0053 0.005,-0.01009 0.008,-0.01563 0.006,-0.006 0.0123,-0.01385 0.0176,-0.01953 0.006,-0.0036 0.011,-0.0064 0.0137,-0.0098 0.0136,-0.01179 0.024,-0.0236 0.0312,-0.03906 0.003,-0.0047 0.006,-0.01072 0.0117,-0.01563 0.0106,-0.01386 0.0265,-0.02425 0.0371,-0.03906 0.008,-0.01066 0.0116,-0.02118 0.0195,-0.03125 0.0146,-0.01883 0.0368,-0.03289 0.0527,-0.05078 0.003,-0.0024 0.0169,-0.01379 0.0195,-0.01758 0.003,-0.0036 0.007,-0.0062 0.01,-0.0098 0.006,-0.0069 0.008,-0.01511 0.0137,-0.02148 0.003,-0.003 0.0232,-0.01775 0.0254,-0.01953 0.003,-0.0012 0.01,-0.0027 0.0117,-0.0039 l 0.002,-0.002 h 0.002 l 0.004,-0.002 c 0.007,-0.0079 0.009,-0.01834 0.0176,-0.02539 0.0162,-0.02014 0.0329,-0.04105 0.0488,-0.06055 0.008,-0.0072 0.0116,-0.01439 0.0195,-0.02148 0.0422,-0.04466 0.009,-0.0099 0.0508,-0.05078 l -0.0117,-0.002 c 0.017,-0.01653 0.0333,-0.02474 0.0488,-0.02734 0.004,-5.91e-4 0.008,10e-7 0.0117,0 0.034,-0.06409 0.069,-0.129267 0.10351,-0.193359 0.0733,-0.08513 0.10187,-0.120304 0.19141,-0.212891 0.0329,-0.03412 0.0629,-0.07205 0.10351,-0.09961 0.0463,-0.08076 0.0945,-0.16187 0.16211,-0.22461 0.0818,-0.0761 0.17248,-0.147049 0.25977,-0.21875 0.14763,-0.214658 0.0516,-0.126109 0.19726,-0.251953 0.0117,-0.0098 0.18149,-0.151781 0.18946,-0.15039 10e-4,2.84e-4 0.0106,0.0049 0.01,0.0059 0.092,-0.111083 0.19113,-0.218517 0.31836,-0.302734 0.0297,-0.01966 0.0605,-0.03716 0.0918,-0.05469 0.0848,-0.08524 -0.0952,0.08441 0.15039,-0.148437 0.0916,-0.07047 0.1377,-0.104582 0.18164,-0.136719 0.0219,-0.03571 0.0371,-0.06132 0.0664,-0.109375 0.0262,-0.04287 0.0727,-0.07281 0.11523,-0.105469 -0.004,0.005 -0.008,0.01112 -0.0117,0.01563 -0.005,0.0125 -0.01,0.02657 -0.0176,0.03906 0.0259,-0.03785 0.0279,-0.0427 0.0371,-0.05859 0.004,-0.0029 0.006,-0.0068 0.01,-0.0098 l 0.004,-0.002 c 7.7e-4,-0.0013 0.003,-0.0025 0.004,-0.0039 0.001,-9.1e-4 0.007,-5.31e-4 0.008,-0.002 0.004,-0.0036 0.008,-0.008 0.0117,-0.01172 0.006,-0.0041 0.0203,-0.0141 0.0176,-0.0098 0.0816,-0.130084 0.0666,-0.129581 0.26563,-0.30664 0.0553,-0.08329 0.11491,-0.168803 0.15625,-0.201172 0.0154,-0.01202 0.0326,-0.0239 0.0488,-0.03516 0.0894,-0.116592 0.18305,-0.234826 0.31641,-0.316407 0.11903,-0.09685 0.10668,-0.0879 0.21875,-0.171875 l 0.01,-0.0039 c 9.9e-4,-0.0024 0.002,-0.0037 0.004,-0.0059 0.0794,-0.14604 0.21085,-0.276097 0.35742,-0.38086 0.007,-0.0086 0.0131,-0.01688 0.0195,-0.02539 -0.005,0.0077 -0.0105,0.01524 -0.0156,0.02344 -0.01,0.01433 -0.024,0.05132 -0.0273,0.0625 0.0174,-0.03118 0.0332,-0.06204 0.0488,-0.09375 0.0242,-0.03181 0.0479,-0.06351 0.0723,-0.0957 10e-4,-0.0018 0.004,-0.0062 0.006,-0.0078 0.006,-0.0066 0.004,-0.0031 0.0117,-0.01172 0.007,-0.0062 0.0147,-0.01183 0.0215,-0.01758 0.006,-0.01149 0.0108,-0.02384 0.0176,-0.03516 0.021,-0.03494 0.0516,-0.06496 0.0781,-0.09766 0.0115,-0.01587 0.0349,-0.04716 0.0586,-0.07227 0.0631,-0.06698 0.14111,-0.134934 0.2207,-0.197266 -0.006,0.0086 -0.0236,0.03581 -0.0156,0.02734 0.005,-0.006 0.0235,-0.03077 0.0391,-0.05078 0.006,-0.0042 0.01,-0.0096 0.0156,-0.01367 l 0.002,-0.0039 0.002,-0.002 c 0.0131,-0.0092 0.0216,-0.02304 0.0352,-0.03125 h 0.002 c 0.079,-0.101357 0.19032,-0.241313 0.15234,-0.173828 -2.1e-4,0.0017 -6.5e-4,0.0039 0,0.0039 10e-4,-0.0023 0.004,-0.006 0.006,-0.0098 -0.002,0.0026 0.008,-0.01082 0.006,-0.0078 0.0204,-0.02209 0.0375,-0.04888 0.0606,-0.06836 0.007,-0.01391 0.007,-0.0078 0.0117,-0.01563 0.007,-0.0036 0.0117,-0.0041 0.0117,0 0.0257,-0.06173 -0.009,0.0098 0.0391,-0.103516 0.0306,-0.03963 0.0602,-0.07816 0.0918,-0.117187 0.006,-0.0059 -0.007,0.01148 -0.01,0.01758 -0.0257,0.06342 -0.0493,0.127842 -0.0742,0.191406 0.23407,-0.436429 0.14628,-0.38298 0.26758,-0.486328 0.0439,-0.05822 0.0715,-0.09464 0.11719,-0.148437 0.0319,-0.03808 -0.002,0.0062 0.0254,-0.03125 0.0781,-0.09859 0.15386,-0.197793 0.23437,-0.294922 0.0534,-0.06403 0.0375,-0.03794 0.0371,-0.03125 0.001,-1.6e-4 0.005,-0.0044 0.008,-0.0078 0.0433,-0.03761 0.0816,-0.07885 0.1289,-0.113281 0.0675,-0.05259 0.0782,-0.06033 0.15235,-0.117188 0.0207,-0.01587 0.0386,-0.03481 0.0625,-0.04687 0.0106,-0.0047 -0.008,0.01538 -0.0137,0.02344 -6.5e-4,0.0018 -0.001,0.0084 0,0.0078 0.029,-0.03625 0.0561,-0.07256 0.084,-0.109375 0.11918,-0.142028 0.0669,-0.07821 0.23242,-0.240234 -0.002,0.002 0.003,-0.0037 0.004,-0.0078 0.0131,-0.01113 0.028,-0.02585 0.041,-0.04297 0.0231,-0.03056 0.045,-0.063 0.0547,-0.07617 0.0717,-0.08091 0.1415,-0.164248 0.21484,-0.244141 0.0133,-0.01469 0.0329,-0.02384 0.0488,-0.03711 0.0636,-0.05408 0.11029,-0.122019 0.17188,-0.177735 0.0706,-0.09885 0.15898,-0.189314 0.25781,-0.267578 0.10212,-0.08352 0.20562,-0.159427 0.28906,-0.257812 0.002,-0.0012 0.008,-0.0043 0.01,-0.0059 -0.0915,-0.05816 -0.10407,-0.193406 0.0605,-0.322265 0.0593,-0.0465 0.1128,-0.09638 0.16993,-0.144531 0.0282,-0.02446 0.052,-0.04554 0.082,-0.06836 0.0154,-0.01161 0.0309,-0.02231 0.0469,-0.0332 0.006,-0.0041 0.0115,-0.0084 0.0195,-0.01172 7e-4,-4.2e-4 0.005,0.0025 0.006,0.002 0.0154,-0.01291 0.029,-0.02756 0.0449,-0.04102 0.0205,-0.0141 0.0393,-0.02976 0.0606,-0.04297 0.16873,-0.105552 -0.0623,0.04558 0.0879,-0.04492 0.072,-0.04336 0.1327,-0.09784 0.19727,-0.148437 0.0268,-0.01214 0.005,-0.0019 0.0293,-0.03711 0.0396,-0.05923 0.0841,-0.115467 0.1543,-0.152343 0.0624,-0.03986 0.0728,-0.116969 0.12305,-0.166016 0.0139,-0.01658 0.0298,-0.03467 0.043,-0.05078 0.0385,-0.04265 0.0939,-0.07401 0.13672,-0.113282 0.0103,-0.0075 0.0209,-0.01479 0.0312,-0.02344 l 0.002,-0.002 c 0.0217,-0.01783 0.0438,-0.03562 0.0644,-0.04883 0.0169,-0.01066 0.0406,-0.01301 0.0586,-0.02148 -0.0114,-0.02399 -0.0243,-0.04622 -0.0371,-0.05078 -0.0188,-0.0068 -0.0403,0.0143 -0.0645,0.07617 -0.006,0.01469 -0.0145,0.02834 -0.0215,0.04297 -0.002,-0.0097 -0.005,-0.01727 -0.008,-0.0293 0.0138,-0.02257 0.0221,-0.04468 0.0352,-0.06641 0.02,-0.02956 0.0386,-0.04212 0.0625,-0.06836 0.0643,-0.07408 0.11933,-0.15643 0.20117,-0.21875 0.0369,-0.03589 0.0768,-0.06985 0.11133,-0.107422 0.0526,-0.05728 0.092,-0.122435 0.15039,-0.175781 0.008,-0.0069 0.0155,-0.0115 0.0234,-0.01953 0.012,-0.0151 0.0226,-0.03096 0.0332,-0.04687 0.0191,-0.02642 0.0392,-0.05466 0.0605,-0.08008 0.0215,-0.02624 0.051,-0.04798 0.0723,-0.07422 0.0138,-0.01724 0.0258,-0.03463 0.0391,-0.05273 0.072,-0.09255 0.05,-0.07874 0.13476,-0.150391 0.0119,-0.0095 0.0238,-0.03368 0.0371,-0.02539 0.002,0.0012 0.007,0.0043 0.008,0.0059 0.0107,-0.02677 0.0224,-0.05332 0.0332,-0.08008 0.0342,-0.04069 0.043,-0.05282 0.0879,-0.09375 0.0465,-0.04229 0.10378,-0.07461 0.14258,-0.123047 0.0874,-0.09519 0.18338,-0.184276 0.27929,-0.273438 0.0391,-0.03903 0.0699,-0.07217 0.11329,-0.109375 0.056,-0.04833 0.1,-0.0696 0.13476,-0.134765 0.0255,-0.03009 0.0542,-0.05745 0.0781,-0.08789 0.0112,-0.01427 0.0226,-0.03059 0.0332,-0.04492 0.0292,-0.03637 0.0625,-0.06593 0.0977,-0.09766 0.0569,-0.0636 0.11175,-0.107438 0.16992,-0.167969 0.0913,-0.09432 0.18796,-0.183198 0.27344,-0.28125 0.0781,-0.0664 0.15821,-0.130918 0.23632,-0.197265 0.0845,-0.07818 0.14385,-0.156864 0.27344,-0.183594 0.028,-0.02991 0.0549,-0.06099 0.0898,-0.08594 0.0471,-0.03542 0.0913,-0.07233 0.13868,-0.107422 h 0.002 c -3.3e-4,0.0047 -0.005,0.0203 -0.004,0.01563 0.002,-0.007 0.005,-0.01284 0.008,-0.01953 0.01,-0.0096 0.0198,-0.01787 0.0293,-0.02734 0.0271,-0.07289 0.0579,-0.132912 0.1211,-0.199218 0.0138,-0.0088 0.0246,-0.01532 0.0351,-0.02539 0.0399,-0.03607 0.0464,-0.09443 0.0899,-0.128906 0.0487,-0.05585 0.0243,-0.02742 0.0625,-0.06641 0.0136,-0.01356 0.0232,-0.02935 0.0391,-0.04102 0.003,-0.0024 0.0103,0.0078 0.0117,0.0078 0.0106,-0.02061 0.0196,-0.04167 0.0273,-0.0625 0.0164,-0.02002 0.0302,-0.04344 0.0488,-0.0625 0.01,-0.0097 0.0209,-0.01468 0.0312,-0.02344 0.0444,-0.03731 0.087,-0.07552 0.13086,-0.113281 0.0542,-0.04602 0.10843,-0.09203 0.16601,-0.134766 0.0354,-0.0385 0.0707,-0.07647 0.11133,-0.111328 0.01,-0.0074 0.0187,-0.01651 0.0293,-0.02148 0.002,-0.0012 -0.003,0.0077 -0.002,0.0059 0.0178,-0.01901 0.0329,-0.03889 0.0488,-0.05859 0.0356,-0.02967 0.0714,-0.05832 0.10938,-0.08594 0.008,-0.0059 0.0174,-0.01308 0.0254,-0.01758 0.002,-0.0012 0.0107,0.0044 0.0117,0.0078 0.0177,-0.043 0.014,-0.03622 0.0742,-0.113281 0.0149,-0.01907 0.048,-0.02537 0.0586,-0.04883 0.0429,-0.05088 0.0273,-0.03742 0.0703,-0.06641 -0.004,-0.0078 0.13075,-0.100646 0.084,-0.07422 0.0449,-0.02778 0.0791,-0.06488 0.12109,-0.0957 0.042,-0.03074 0.0892,-0.05096 0.13281,-0.08008 -4e-5,0.003 -0.003,0.0095 0,0.0078 0.0127,-0.0074 0.0187,-0.01793 0.0293,-0.02734 0.0359,-0.03192 0.0699,-0.06478 0.11133,-0.0918 0.0112,-0.0073 0.0257,-0.01302 0.0371,-0.01953 0.0138,-0.0138 0.0285,-0.02769 0.043,-0.04102 0.002,-0.0018 0.004,-0.006 0.006,-0.0078 0.002,-0.0018 0.009,-0.0068 0.0117,-0.0078 0.002,-0.0036 0.009,-0.0033 0.0117,-0.0078 0.0141,-0.02126 0.0271,-0.04235 0.043,-0.0625 0.038,-0.04703 0.086,-0.08471 0.13282,-0.125 0.033,-0.02813 0.0668,-0.05569 0.10156,-0.08203 0.004,-0.0036 0.0303,-0.01989 0.0312,-0.01953 0.004,-0.0072 0.008,-0.01627 0.0176,-0.0293 0.001,-0.0018 -7e-4,0.0074 0,0.0059 0.0107,-0.01803 0.0749,-0.126506 0.0801,-0.101563 0,0.003 0.01,-0.0031 0.0117,-0.0059 0.008,-0.01333 0.0135,-0.02951 0.0215,-0.04297 0.0314,-0.0536 0.0447,-0.07253 0.0957,-0.126953 0.007,-0.0093 0.0189,-0.01538 0.0293,-0.02344 0.01,-0.0072 0.0192,-0.01177 0.0273,-0.01953 0.0176,-0.01682 0.0206,-0.02756 0.0391,-0.04883 0.0574,-0.06232 0.0431,-0.05048 0.0937,-0.08398 0.004,-0.0012 0.0107,-0.0059 0.0117,-0.0059 0.0219,-0.04626 0.0561,-0.132671 0.0859,-0.123046 0.0268,-0.01753 0.0478,-0.03728 0.0762,-0.05273 0.0198,-0.01084 0.0328,-0.01627 0.041,-0.01953 0.0103,-0.01481 0.0197,-0.03011 0.0293,-0.04492 0.0619,-0.06725 0.12234,-0.135095 0.20312,-0.1875 0.007,-0.0047 0.0112,-0.01042 0.0137,-0.01172 0.0227,-0.04756 0.0188,-0.03836 0.0703,-0.0957 0.0215,-0.01285 0.0453,-0.05277 0.0586,-0.06641 0.008,-0.0091 0.0196,-0.01793 0.0273,-0.02734 0.12701,-0.15406 -0.11587,0.120673 0.11133,-0.128906 0.003,-0.0012 0.01,5.9e-5 0.0117,-0.0039 0.042,-0.03376 0.0607,-0.08999 0.0918,-0.128906 0.0199,-0.02322 0.0558,-0.06768 0.084,-0.08984 0.001,-0.0012 -0.001,0.0092 0,0.0078 0.0151,-0.01759 0.0272,-0.03544 0.043,-0.05273 0.0231,-0.02707 0.0704,-0.0677 0.0937,-0.08984 0.0887,-0.05822 0.0634,-0.0448 0.1543,-0.07617 0.0223,-0.01682 0.0413,-0.03022 0.0195,-0.01953 0.0364,-0.0398 0.0711,-0.09046 0.12109,-0.119141 0.0236,-0.02588 -0.008,0.0061 0.0312,-0.05078 0.0415,-0.05992 0.0642,-0.09363 0.125,-0.132812 0.0188,-0.01333 0.0322,-0.02911 0.0508,-0.04297 0.003,-0.0012 0.007,0.005 0.008,0.0039 0.0274,-0.04241 0.0337,-0.09285 0.0723,-0.130859 0.0622,-0.07046 0.0993,-0.109051 0.18164,-0.164063 0.0489,-0.03281 0.0314,-0.01395 0.0742,-0.03906 0.0109,-0.0065 0.0189,-0.01242 0.0293,-0.01953 -0.001,0.0024 -0.005,0.0079 -0.008,0.01172 0.0619,-0.0634 0.007,-0.0252 0.10157,-0.09961 0.0193,-0.01516 0.0425,-0.02644 0.0625,-0.04102 0.008,-0.03631 0.002,-0.02958 0.0293,-0.05273 l 0.002,-0.0039 c 0.0161,-0.01901 0.0333,-0.03657 0.0547,-0.05078 0.0173,-0.01558 0.0359,-0.031 0.0566,-0.04297 0.0186,-0.01143 -9.9e-4,0.0017 0.0293,-0.02148 0.016,-0.01244 0.0238,-0.0126 0.0371,-0.02539 0.002,-0.0012 0.004,-0.0043 0.006,-0.0059 0.002,-0.0024 0.01,-0.0068 0.0117,-0.0078 6.4e-4,-0.0018 3.7e-4,-0.0062 0.002,-0.0078 0.003,-0.0077 0.006,-0.01408 0.0117,-0.02148 0.009,-0.01457 0.0336,-0.04048 0.0469,-0.05078 0.006,5.86e-4 7.6e-4,-7.46e-4 0.01,-0.01172 0.0164,-0.02428 0.032,-0.04481 0.0586,-0.0625 0.0207,-0.01516 0.0308,-0.0371 0.0547,-0.05078 0.004,-0.0062 0.009,-0.01373 0.0117,-0.01758 0.006,-0.0081 0.0161,-0.01538 0.0215,-0.02344 1e-5,0.0012 -7.4e-4,0.0083 0.002,0.0078 0,-0.0041 0.007,-0.0096 0.01,-0.01367 4.2e-4,-4.98e-4 8.2e-4,0.0053 0.004,0.0059 0.006,-0.01368 0.0135,-0.02738 0.0215,-0.04102 0,-0.003 0.009,-0.0037 0.0117,-0.0059 0.006,-0.0024 0.004,-0.0078 0.01,-0.0078 0.006,0 -0.007,0.0056 -0.006,0.0078 0.003,0.0024 0.0107,-0.0062 0.0117,-0.0078 6.9e-4,-5.92e-4 4e-4,-0.0068 0.002,-0.0078 0.0151,-0.03868 -0.01,0.0082 0.0293,-0.05078 0.0151,-0.0122 0.0311,-0.02591 0.0449,-0.03906 3.5e-4,-5.74e-4 0.004,-0.0033 0.006,-0.0039 0.013,-0.02132 0.0393,-0.03338 0.0625,-0.04687 0.008,-0.0053 0.0165,-0.0113 0.0254,-0.01563 -0.005,-0.01155 0.001,-0.02242 0.0117,-0.03125 0.001,-0.0036 0.009,-0.0048 0.0117,-0.0078 0.007,0.0073 0.0144,0.01439 0.0215,0.02148 l 0.008,-0.0078 c 0.002,-0.0012 0.01,-1.6e-4 0.0117,-0.002 -0.0121,-0.0053 -0.0252,-0.01099 -0.0332,-0.01563 0.002,-0.0018 0.004,-0.006 0.006,-0.0078 6.2e-4,-5.91e-4 0.003,-0.0021 0.004,-0.0039 l 0.002,-0.002 c 7e-4,-5.5e-4 0.003,-0.0016 0.004,-0.0039 v -0.002 c 10e-4,-0.0018 0.006,-0.0041 0.008,-0.0059 0.0115,-0.01196 0.0215,-0.0255 0.0351,-0.03516 0.002,-0.01232 0.003,-0.01283 0.0137,-0.03125 0.009,-0.01753 0.016,-0.0245 0.0234,-0.02539 0.009,-0.0012 0.0179,0.0084 0.0254,0.02148 0.006,-0.0024 0.0134,-0.0062 0.0195,-0.0078 0.008,-0.01824 0.0199,-0.03308 0.0371,-0.04492 0.004,0.003 0.004,7.31e-4 0.01,-0.0078 0.007,-0.01753 0.0173,-0.03515 0.0332,-0.04883 l 0.0117,-0.0078 c 6.4e-4,-4.5e-4 0.009,-0.0033 0.01,-0.0039 0.004,-0.0097 0.008,-0.01876 0.0156,-0.02734 0.006,-0.0036 0.006,-0.01468 0.0117,-0.01172 0.002,0.0012 0.0117,0.0064 0.0117,0.0098 0.002,-0.0053 0.008,-0.01009 0.01,-0.01562 0.006,-0.01516 0.0173,-0.02941 0.0332,-0.03906 0.003,-0.0012 0.0117,-0.0063 0.0117,-0.0039 0.002,-0.0094 0.007,-0.01887 0.0137,-0.02734 10e-4,-0.0018 0.006,-0.0035 0.008,-0.0059 3.2e-4,-0.01327 0.005,-0.02739 0.0137,-0.04297 0.006,-0.0075 0.008,-0.01822 0.0137,-0.02539 0.0269,-0.03714 0.0442,-0.05268 0.0781,-0.08789 0.0257,-0.02689 0.0491,-0.03965 0.0703,-0.04297 0.0125,-0.0018 0.0259,-0.001 0.0352,0.0059 0.002,-0.0053 0.01,-0.0082 0.0117,-0.01367 0.0205,-0.04111 0.0391,-0.08343 0.0625,-0.123046 0.0106,-0.017 0.0208,-0.03378 0.0312,-0.05078 0.003,-0.0012 0.009,-0.0043 0.01,-0.0059 0.0103,-0.0183 0.0209,-0.03621 0.0312,-0.05469 0.0534,-0.07824 0.0462,-0.07259 0.13282,-0.152343 0.0115,-0.0106 0.0245,-0.01846 0.0371,-0.02734 0.004,-0.0041 0.009,-0.0088 0.0117,-0.01172 0.0319,-0.0324 0.0293,-0.03269 0.0703,-0.06836 0,-4.43e-4 0.0125,-0.0089 0.0137,-0.0098 0.0202,-0.01457 0.029,-0.03172 0.0449,-0.05273 0.0151,-0.01558 0.0269,-0.03168 0.043,-0.04687 0.0151,-0.01487 0.0348,-0.02863 0.0508,-0.04297 0.0385,-0.03423 0.077,-0.06833 0.12109,-0.09766 0.0332,-0.02239 0.0894,-0.06208 0.11719,-0.07617 0.005,-0.0024 0.0118,-0.005 0.0176,-0.0078 0.007,-0.0036 0.0143,-0.0078 0.0156,-0.0078 0.0404,-0.02648 -0.006,0.0035 0.0625,-0.04687 0.004,-0.0024 0.006,-0.005 0.01,-0.0078 0.0151,-0.03915 0.0271,-0.07331 -0.0254,-0.04883 9.9e-4,-5.91e-4 0.0107,-0.0072 0.0117,-0.0078 0.003,-0.0036 0.008,-0.0059 0.01,-0.0098 0.0195,-0.0321 2e-5,-0.0065 0.0215,-0.04102 0.0136,-0.02203 0.0322,-0.04047 0.0508,-0.05859 0.0186,-0.01416 0.0238,-0.02378 0.0371,-0.04102 0.016,-0.01955 0.0322,-0.03828 0.0508,-0.05664 0.0449,-0.0356 0.0849,-0.07385 0.125,-0.113282 0.006,-0.01463 0.007,-0.0332 0.0293,-0.03906 0.0428,-0.04045 0.0169,-0.01011 0.0449,-0.02734 0.009,-0.0059 0.0194,-0.01337 0.0273,-0.01953 0.0452,-0.02914 0.009,-0.0067 0.0586,-0.04297 0.003,-0.0036 0.008,-0.0038 0.0137,-0.0078 0.0104,-0.0094 0.0199,-0.0197 0.0312,-0.0293 0.0146,-0.01504 0.0238,-0.03289 0.0371,-0.04883 0.0188,-0.02126 0.0395,-0.03834 0.0684,-0.04883 0.006,-0.0024 0.0101,-0.0053 0.0137,-0.0059 0.007,-0.02115 0.011,-0.02378 0.0273,-0.03906 0.0242,-0.02423 0.0477,-0.04743 0.0742,-0.07031 10e-4,-0.0012 0.0404,-0.03521 0.043,-0.03711 0.002,-0.0012 0.008,-0.0068 0.01,-0.0078 10e-4,-0.0041 0.009,-0.0085 0.0117,-0.01367 0.0186,-0.02494 0.0122,-0.01864 0.0254,-0.02734 0.0122,-0.01161 0.0209,-0.02633 0.0312,-0.03906 0.003,-0.0041 0.009,-0.0079 0.0117,-0.01172 0.0127,-0.0125 0.0199,-0.02674 0.0332,-0.03906 0.008,-0.0084 0.0161,-0.01562 0.0215,-0.02344 0.016,-0.0196 0.038,-0.03793 0.0566,-0.05469 0.0127,-0.01487 0.0265,-0.02923 0.0371,-0.04492 0.006,-0.0077 0.0227,-0.03503 0.0254,-0.03906 0.006,-0.0069 0.0135,-0.0113 0.0215,-0.01758 0.003,-0.0018 0.007,-0.0072 0.01,-0.0078 0.001,-0.0024 0.007,-0.0033 0.01,-0.0078 0.017,-0.02606 0.0132,-0.01869 0.0293,-0.0332 0.0117,-0.01285 0.0202,-0.02224 0.0332,-0.03516 0.008,-0.0069 0.0174,-0.01213 0.0254,-0.01953 0.003,-0.0036 0.007,-0.0079 0.01,-0.01172 0.006,-0.0076 0.0143,-0.01439 0.0215,-0.02148 0.033,-0.02103 0.0576,-0.04865 0.0762,-0.08008 0.002,-0.0012 0.009,-0.0056 0.0117,-0.0078 5.8e-4,-0.0012 0.0107,-0.0049 0.0117,-0.0059 0.006,-0.01315 0.0127,-0.02562 0.0254,-0.03516 0.006,-0.0047 0.009,-0.0089 0.0117,-0.01367 0.0101,-0.01226 0.0111,-0.0142 0.0215,-0.02734 0.005,-0.01765 0.01,-0.03574 0.0215,-0.05078 0.0297,-0.03631 0.0636,-0.05101 0.10742,-0.07227 v 0.0039 c 0.0237,-0.01155 0.0481,-0.01645 0.0664,-0.01758 0.0125,-0.0012 0.0233,0.0044 0.0332,0.0078 0.004,-0.006 0.0112,-0.01213 0.0176,-0.01758 0.006,-0.0047 0.008,-0.0085 0.0137,-0.01367 9.9e-4,-5.91e-4 0.007,-0.0053 0.008,-0.0059 l 0.0117,-0.0078 c 3.9e-4,-0.0018 0.0107,-0.0062 0.0117,-0.0078 0,-0.003 0.006,-0.0081 0.008,-0.0098 0.006,-0.0053 0.013,-0.01065 0.0156,-0.01758 0.002,-0.003 0.007,-0.0069 0.01,-0.0098 l 0.01,-0.002 c 0.004,-0.0047 0.003,-0.0038 0.008,-0.0078 0,-0.0024 0.01,-0.0037 0.0117,-0.0059 0.003,-0.0018 0.007,-0.0062 0.008,-0.0078 l 0.01,-0.0078 0.0117,-0.0059 c 3e-5,-0.0012 0.008,-0.0068 0.01,-0.0078 6.9e-4,-5.62e-4 0.0107,0.0018 0.0117,0 l 0.0117,-0.0039 c 0.006,-0.0036 0.009,-0.006 0.0117,-0.0098 5.4e-4,-5.85e-4 0.007,-0.0072 0.008,-0.0078 0.003,-0.0041 0.009,-0.008 0.0137,-0.01172 6.7e-4,-4.74e-4 0.0107,-0.0035 0.0117,-0.0059 v -0.0059 l 0.002,-0.0039 c 0.003,-0.0036 0.009,-0.0079 0.0117,-0.01172 3.7e-4,-0.0012 0.002,-0.0049 0.004,-0.0059 0.003,-0.003 0.009,-0.0076 0.0117,-0.0098 0,-0.0018 0.0107,-0.0043 0.0117,-0.0059 0.003,-0.0036 0.006,-0.0084 0.0117,-0.01172 0.006,-0.0047 0.008,-0.006 0.0137,-0.0098 0.003,-0.0012 0.0107,-0.0068 0.0117,-0.0078 6.7e-4,-5.85e-4 0.007,-0.0049 0.008,-0.0059 0.003,-0.0024 0.007,-0.0062 0.01,-0.0078 l 0.008,-0.0059 c 3e-5,-1.1e-5 0.005,-0.0056 0.008,-0.0078 l 0.0117,-0.0059 c 0.003,-0.0018 0.01,-0.0065 0.0117,-0.0078 l 0.002,-0.002 c 5.5e-4,-5.8e-4 0.007,-0.0027 0.008,-0.0039 0.001,-0.0012 0.002,-0.0049 0.004,-0.0059 0.0344,-0.03655 0.0392,-0.03704 0.0527,-0.04883 3.7e-4,-5.8e-4 0.006,-0.0049 0.008,-0.0059 v -0.0039 c 0.005,-0.0095 0.0138,-0.01432 0.0215,-0.02148 6.7e-4,-0.0012 0.0107,-0.0072 0.0117,-0.0078 1.3e-4,-0.003 0.006,-0.0056 0.008,-0.0078 l 0.0117,-0.0059 c 0.002,-0.0012 0.0107,-0.0041 0.0117,-0.0059 0.003,-0.0047 0.004,-0.0103 0.01,-0.01367 l 0.0117,-0.0059 c 0.002,-0.003 0.006,-0.007 0.008,-0.0098 0.005,-0.0063 0.006,-0.0035 0.0137,-0.0098 l 0.01,-0.0078 c 0.002,-0.0059 0.004,-0.0059 0.0117,-0.01563 0.003,-0.003 0.01,-0.005 0.0117,-0.0078 0.006,-0.0053 0.0141,-0.01045 0.0195,-0.01563 0.006,-0.0041 0.0103,-0.01053 0.0156,-0.01367 h 0.002 c 0.003,-0.003 -7e-5,-0.0049 0.002,-0.0059 h 0.01 v -0.0078 -0.0039 c 4.8e-4,-0.0012 -0.002,-0.0062 0,-0.0078 0.003,-0.0024 0.01,-0.0037 0.0117,-0.0059 0.006,-0.0053 0.008,-0.0092 0.0137,-0.01367 h 0.01 c 3.9e-4,-0.0012 0.008,-0.0049 0.01,-0.0059 0,-5.85e-4 0.005,-0.0058 0.008,-0.0078 l 0.002,-0.0039 c 3e-4,-5.74e-4 -4.2e-4,-0.0072 0,-0.0078 0.003,-0.0047 0.008,-0.0077 0.0137,-0.01172 0.006,-0.0036 0.008,-0.0086 0.0137,-0.01172 0.006,-0.0047 0.006,-0.0094 0.0117,-0.01367 0.003,-0.0024 0.009,-0.0043 0.0117,-0.0059 0.003,-0.0036 0.007,-0.0086 0.0117,-0.01172 0.006,-0.0041 0.006,-0.0079 0.0117,-0.01172 0.005,-0.0041 0.0105,-0.0066 0.0156,-0.01172 v -0.0039 h 0.006 v -0.0039 c 9.9e-4,-0.0024 0.009,-0.0062 0.01,-0.0078 0.003,-0.0036 0.009,-0.0056 0.0117,-0.0078 9e-5,-1.71e-4 0.002,-0.0039 0.002,-0.0039 h 0.0117 c 3.6e-4,-5.85e-4 0.002,-0.0053 0.004,-0.0059 0.003,-0.0071 0.006,-0.01094 0.0137,-0.01563 v -0.002 c 0.003,-0.01149 8e-4,-0.0068 0.0117,-0.01563 6.7e-4,-5.44e-4 0.0107,-0.0072 0.0117,-0.0078 h -0.0469 c 0.006,-0.0047 0.006,-0.0077 0.0117,-0.01172 0.003,-0.0047 0.008,-0.01053 0.0137,-0.01367 0.004,-0.0073 0.005,-0.01645 0.0156,-0.01953 0.003,-0.0012 0.006,-0.0066 0.008,-0.0078 0.003,-0.0018 0.007,-0.0043 0.01,-0.0059 6.9e-4,-5.04e-4 0.009,-0.0027 0.01,-0.0039 v -0.002 h -0.0625 c 0.003,-0.003 0.005,-0.0056 0.008,-0.0078 0.008,-0.0059 0.007,-0.0082 0.0176,-0.01172 7e-4,-2.54e-4 0.003,2.54e-4 0.004,0 l 0.004,-0.0039 0.01,-0.0078 c 6.9e-4,-0.0036 0.004,-0.0072 0.01,-0.01172 l 0.0117,-0.0059 c 0.002,-5.79e-4 0.01,-0.0053 0.0117,-0.0059 h 0.0117 v -0.0039 c 0.004,-0.0069 0.0109,-0.0129 0.0195,-0.01758 10e-4,-0.0066 0.003,-0.0054 0.01,-0.01172 h -0.0703 c 4.7e-4,-0.0018 0.003,-0.0062 0.004,-0.0078 0.002,-0.0041 0.006,-0.0088 0.01,-0.01367 0.003,-0.003 0.009,-0.0028 0.0117,-0.0059 l 0.0176,0.0039 c 0.004,-0.0047 0.009,-0.0091 0.0137,-0.01367 4.4e-4,-5.75e-4 0.007,0.0059 0.008,0.0059 0.0409,-0.03258 -0.0579,-0.161232 0.0957,-0.117187 0.022,-0.01421 0.0457,-0.04549 0.0644,-0.06445 9.9e-4,-5.68e-4 0.007,-0.0049 0.008,-0.0059 0.003,-0.0024 0.01,-0.005 0.0117,-0.0078 0.0667,-0.07432 0.14114,-0.143185 0.2168,-0.210937 0.0218,-0.03524 0.0503,-0.06792 0.0859,-0.08789 -7e-4,0.0012 -7e-4,0.0078 0,0.0078 0.005,-0.0053 0.009,-0.01183 0.0137,-0.01758 0.033,-0.04016 0.0616,-0.08334 0.10156,-0.119141 0.0136,-0.01345 0.0238,-0.02951 0.0371,-0.04297 0.006,-0.0036 0.011,-0.0077 0.0137,-0.01172 0.009,-0.01019 0.0213,-0.02076 0.0293,-0.03125 0.012,-0.0135 0.0264,-0.02408 0.0391,-0.03711 0.003,-0.0018 0.0107,-0.0056 0.0117,-0.0078 0.001,-0.0018 0.008,-0.0053 0.01,-0.0059 h 0.0117 c 9.9e-4,-5.8e-5 4.4e-4,0.0049 0,0.0059 0.0195,-0.02399 0.0317,-0.04928 0.0508,-0.07422 0.006,-0.009 0.0127,-0.02035 0.0215,-0.02734 0.016,-0.02689 0.0326,-0.05372 0.0527,-0.07617 0.0156,-0.01759 0.0315,-0.03449 0.0488,-0.05078 0.0282,-0.05532 0.0484,-0.09137 0.12305,-0.144531 -0.0255,0.0311 -0.004,0.0078 0.0879,-0.06055 0.001,-5.68e-4 0.007,-0.0026 0.008,-0.0039 0.005,-0.003 0.01,-0.0068 0.0117,-0.0078 0.0111,-0.0094 0.0217,-0.01792 0.0801,-0.0625 0.006,-0.0047 -0.0229,0.0203 -0.0176,0.01563 0.0351,-0.025 0.0672,-0.05422 0.10547,-0.07617 0.0154,-0.0119 0.0308,-0.02325 0.0469,-0.03516 0.0125,-0.01001 0.0239,-0.0216 0.0371,-0.03125 -0.007,0.0173 -0.0106,0.0446 -0.0137,0.0625 0.007,-0.02328 0.0127,-0.04891 0.0195,-0.07227 0.024,-0.02582 0.0482,-0.05031 0.0723,-0.07617 0.004,-0.01031 0.008,-0.02112 0.0117,-0.03125 0.008,-0.0186 0.0238,-0.03402 0.0371,-0.05078 0.003,-0.0047 0.009,-0.0073 0.0117,-0.01172 0,-0.0024 0.007,-0.0099 0.01,-0.0078 10e-4,0.0012 5e-4,0.0062 0,0.0078 0.009,-0.01599 0.0159,-0.03284 0.0254,-0.04883 0.017,-0.02677 0.0302,-0.04842 0.0488,-0.07617 0.006,-0.0085 0.0171,-0.01295 0.0195,-0.02344 0.009,-0.01605 0.0163,-0.03361 0.0293,-0.04883 h 0.01 0.002 c 0.0193,-0.03731 0.0294,-0.04261 0.0508,-0.06641 5.7e-4,-0.0018 0.009,-0.006 0.01,-0.0078 0.002,-0.0024 0.007,-0.005 0.01,-0.0078 0.0163,-0.04809 0.0377,-0.06079 0.13867,-0.148438 v -0.0039 c 0.002,-0.0011 0.007,-0.0026 0.01,-0.0039 h 0.004 l 0.006,-0.002 v -0.0039 c 0.009,-0.0072 0.0211,-0.0099 0.0332,-0.01563 0.008,-0.0036 0.0103,-0.01161 0.0176,-0.0098 0.0179,-0.01593 0.0383,-0.03372 0.0586,-0.04883 h 0.01 c 0.005,0.0012 0.008,0.0045 0.0176,0.0039 0.009,-0.01106 0.0207,-0.02186 0.0293,-0.0332 0.0131,-0.0059 0.0273,-0.0091 0.041,-0.01367 l 0.0117,-0.002 c 6.9e-4,-4.38e-4 0.007,-0.0023 0.008,-0.0039 1.6e-4,-5.79e-4 0.01,-0.0072 0.01,-0.0078 -0.0233,0.0077 -0.0208,0.0051 -0.043,0.01367 0.0112,-0.01469 0.0225,-0.02899 0.0352,-0.04297 0.0255,-0.02878 0.10893,-0.09749 0.13281,-0.117187 0.0266,-0.02132 0.0526,-0.04194 0.0801,-0.0625 l 0.0117,-0.002 c 0.009,-0.0066 0.0168,-0.0096 0.0254,-0.01562 -5.4e-4,-0.0012 3.7e-4,-0.0068 0,-0.0078 h 0.004 c -3.7e-4,-0.0024 -4.1e-4,-0.007 0,-0.0098 1e-5,0.0012 0.004,0.0033 0.006,0.0039 -9.9e-4,0.0012 -0.005,0.0047 -0.006,0.0059 v 0.002 0.0039 c 0.002,-0.0012 0.007,-0.0033 0.008,-0.0039 0.006,-0.0047 0.009,-0.0066 0.0195,-0.01563 2.5e-4,-4.49e-4 0.003,-1.63e-4 0.004,-0.002 l 0.002,-0.0078 v -0.0059 -0.0039 c -0.006,0.0018 -0.0117,0.0044 -0.0176,0.0078 -1.3e-4,5.86e-4 4.9e-4,0.0053 0,0.0059 -0.001,0.003 -0.01,0.0054 -0.0117,0.0078 -2e-5,-0.0018 -5.8e-4,-0.0054 0,-0.0078 v -0.0059 c 0.003,-0.0036 0.009,-0.0082 0.0117,-0.01172 2.6e-4,-0.0012 -0.002,-0.0068 0,-0.0078 v -0.0039 c 0.003,-0.0036 0.008,-0.0066 0.01,-0.0098 0.004,-0.0053 0.01,-0.0097 0.0156,-0.01367 v -0.002 c 0.001,-0.01291 0.008,-0.02307 0.0215,-0.0332 0.009,-0.0066 0.019,-0.01018 0.0293,-0.01367 v -0.002 c 0.003,-0.0047 0.009,-0.009 0.0117,-0.01367 0.006,-0.0053 0.0116,-0.0099 0.0195,-0.01367 h 0.002 c 0.003,-0.0012 0.008,-0.0068 0.01,-0.0078 0.006,-0.0047 0.0161,-0.0136 0.0215,-0.01563 l 0.004,-0.0039 c 0.006,-0.0063 0.0167,-0.01331 0.0234,-0.01758 3.2e-4,-4.9e-4 0.005,-0.0037 0.008,-0.0059 6.4e-4,-4.13e-4 0.0107,-0.0072 0.0117,-0.0078 l 0.006,-0.0059 c 5.5e-4,-3.78e-4 0.007,-0.0056 0.01,-0.0078 0.003,0 0.0117,-0.0059 0.0117,-0.0059 6.9e-4,-4.25e-4 0.006,0.0059 0.006,0.0059 0.003,-0.0053 0.006,-0.0059 0.006,-0.0059 9.9e-4,-0.0012 0.006,-0.006 0.0117,-0.01172 0.003,-0.003 0.004,-0.005 0.01,-0.0078 l 0.0117,-0.002 c 3.6e-4,-5.76e-4 0.01,-0.0067 0.01,-0.0059 0.001,-0.0024 0.0107,-0.0058 0.0117,-0.0098 l 0.0117,-0.0059 0.01,-0.002 0.01,-0.0039 0.0117,-0.0059 0.006,-0.002 c 0.003,-0.0036 0.009,-0.0083 0.0117,-0.01172 0.003,-0.0018 0.004,-0.0043 0.006,-0.0059 0.004,-0.0036 0.008,-0.0044 0.0117,-0.0078 l 0.002,-0.0078 v -0.002 -0.0078 c 0.002,-0.0053 0.004,-0.0096 0.01,-0.01367 0.009,-0.01226 0.0186,-0.02473 0.0312,-0.0332 4.4e-4,-0.0012 -7.7e-4,-0.0031 0.002,-0.0059 0.006,-0.0078 0.006,-0.01201 0.0137,-0.01758 0.003,-0.0012 0.009,-0.0062 0.01,-0.0078 0.003,-0.0012 0.009,-0.0085 0.01,-0.0078 6.8e-4,4.5e-4 4.8e-4,0.0066 0,0.0078 0.004,-0.0047 0.007,-0.008 0.0117,-0.01172 0.008,-0.0072 0.017,-0.01609 0.0273,-0.02148 0.002,-0.0012 0.008,-0.0062 0.0117,-0.0078 1.8e-4,-2.3e-4 0.0107,10e-4 0.0117,-0.002 0.003,-0.0018 0.01,-0.0078 0.01,-0.0078 0.003,-0.0047 0.009,-0.0096 0.0117,-0.01367 0.002,-0.0018 0.006,-0.0072 0.008,-0.0078 l 0.004,-0.0078 c 6.2e-4,-5.73e-4 0.009,-0.0037 0.01,-0.0059 0.003,-0.003 0.009,-0.0076 0.0117,-0.0098 0.006,-0.0047 0.008,-0.0094 0.0137,-0.01367 4.7e-4,-0.0018 0.0107,-0.0043 0.0117,-0.0059 0.003,-0.006 0.01,-0.01219 0.0156,-0.01758 0.003,-0.0041 0.009,-0.01006 0.0117,-0.01367 0,-0.0018 0.008,-0.0062 0.01,-0.0078 0.003,-0.003 0.0107,-0.0053 0.0117,-0.0059 l 0.004,-0.0039 c 0.005,-0.0059 0.009,-0.01082 0.0137,-0.01562 0.003,-0.0018 0.01,-0.0056 0.0117,-0.0078 9.8e-4,0.0012 0.004,-0.0068 0.008,-0.0078 1.1e-4,-5.84e-4 -8e-5,-0.0033 0,-0.0039 -2.8e-4,-0.0012 8e-5,-0.0066 0,-0.0078 0,-0.0012 0.006,-0.0049 0.008,-0.0059 2.9e-4,-0.0011 0.002,-0.0031 0.004,-0.0039 v -0.002 c 0.002,-7.9e-4 0.005,-4.24e-4 0.006,-0.002 l 0.002,-0.0039 c 0.001,-0.0018 0.006,-0.0031 0.01,-0.0059 l 0.002,-0.002 c 0.003,-5.81e-4 0.006,-0.0047 0.01,-0.0059 0.002,-0.0047 0.009,-0.007 0.0117,-0.01172 v -0.0039 c 10e-4,-0.0018 0.01,-0.0043 0.0117,-0.0059 0.003,-0.0036 0.008,-0.0119 0.0137,-0.01367 3.7e-4,-0.0012 0.006,-0.0027 0.008,-0.0039 0,-0.0036 0.007,-0.0064 0.01,-0.0098 0,-0.0024 0.006,-0.0062 0.008,-0.0078 5.8e-4,-3.2e-4 0.0107,-0.0027 0.0117,-0.0039 6.9e-4,-0.0012 0.007,-0.0041 0.008,-0.0059 0.008,-0.01007 0.006,-0.0086 0.0137,-0.01758 0.009,-0.0078 0.0191,-0.01467 0.0273,-0.02344 0.008,-0.0059 0.007,-0.0089 0.0176,-0.01367 0.001,-5.85e-4 0.0107,-0.0049 0.0117,-0.0059 l 0.004,-0.0059 c 0.006,-0.0047 0.008,-0.0072 0.0137,-0.01172 0.003,-0.0024 0.009,-0.0037 0.0117,-0.0059 l 0.0117,-0.0078 c 0,-0.0018 0.006,-0.0062 0.008,-0.0078 0.003,-0.0024 0.007,-0.0043 0.01,-0.0059 h 0.002 c 0.006,-0.0036 0.009,-0.0085 0.0117,-0.01172 0.003,-0.0012 0.006,-0.0062 0.008,-0.0078 0.006,-0.0067 0.0119,-0.01337 0.0195,-0.01758 0.0106,-0.0072 0.0175,-0.01443 0.0254,-0.02344 0.003,-0.003 0.009,-0.0078 0.0117,-0.0098 9.8e-4,-5.78e-4 0.004,-0.0072 0.006,-0.0078 0,-0.0012 0.0107,-0.0066 0.0117,-0.0078 h 0.008 c 0.003,-0.003 0.009,-0.007 0.01,-0.0098 0.003,-0.0018 0.008,-0.0035 0.01,-0.0059 0.003,-0.003 0.007,-0.0037 0.01,-0.0059 0.001,-0.0018 0.01,-0.0056 0.0117,-0.0078 v -0.0039 -0.0039 c 3.4e-4,-5.86e-4 0.002,-0.0033 0.002,-0.0039 0.004,-0.01037 0.006,-0.01676 -0.0117,-0.0098 0.004,-0.0058 0.007,-0.01278 0.0137,-0.01758 l 0.002,-0.0039 c 0.003,-0.0024 0.008,-0.0056 0.01,-0.0078 0,-0.0024 0.008,-0.0031 0.01,-0.0059 v -0.0039 c 0,-0.0012 0.0107,-0.0049 0.0117,-0.0059 0.003,-0.0036 0.008,-0.0092 0.0117,-0.01367 -0.002,0.0012 -0.009,0.0027 -0.01,0.0039 0.003,-0.0036 0.009,-0.0081 0.0117,-0.01172 l 0.002,0.0078 c 6.6e-4,-0.0018 0.007,-0.0064 0.01,-0.01172 l 0.0117,-0.0078 0.002,-0.0059 c 0.008,-0.0063 0.0161,-0.01521 0.0215,-0.02148 l -0.002,-0.0039 c 0.009,-0.01131 0.0163,-0.01675 0.0254,-0.01758 0.004,-3.19e-4 0.008,0.0015 0.0117,0.0039 -3.8e-4,-0.0024 7.3e-4,-0.0037 -0.002,-0.0059 -1.1e-4,-0.0018 0.007,-0.0062 0.008,-0.0078 0.006,-0.0074 0.008,-0.01302 0.0156,-0.01953 0.003,-0.003 0.009,-0.005 0.0117,-0.0078 0.009,-0.0074 0.0212,-0.01107 0.0293,-0.01172 0.0136,-0.0012 0.0243,0.0075 0.0254,0.01758 0.003,-0.003 0.009,-0.0057 0.0117,-0.0078 -1.4e-4,-1.76e-4 -0.001,-0.005 0.004,-0.0078 0.003,-0.0012 0.009,-0.0043 0.0117,-0.0059 h -0.17968 l 0.006,-0.0059 c 0.006,-0.0067 0.004,-0.0082 0.0117,-0.01563 0.002,-0.0024 0.006,-0.005 0.008,-0.0078 0.002,-0.0064 0.007,-0.008 0.0137,-0.01367 0.003,-0.0018 0.005,-0.0056 0.008,-0.0078 l 0.0117,-0.0059 0.002,-0.002 c 0,-0.0018 0.006,-0.01022 0.0117,-0.01172 v -0.002 c -6.1e-4,3.96e-4 -3.2e-4,-0.0072 0,-0.0078 0.003,-0.01084 0.0112,-0.01887 0.0215,-0.02734 l -0.0137,-0.0039 v 0.0039 c -0.006,0.0047 -0.0104,0.0088 -0.0156,0.01367 -0.003,0.0047 -0.006,0.0075 -0.0117,0.01172 -0.0324,0.03406 -0.074,0.0058 -0.0391,-0.02734 0.006,-0.0047 0.006,-0.0068 0.0117,-0.01172 l 0.008,-0.0078 0.004,-0.0078 v -0.002 c 6.8e-4,-5.79e-4 0.004,-0.0066 0.006,-0.0078 0.003,-0.0036 0.009,-0.0066 0.0117,-0.0098 l 0.0117,-0.0078 c 0.008,-0.0065 0.0135,-0.0074 0.0273,-0.01563 h -0.008 c 0.008,-0.0047 0.0171,-0.0088 0.0234,-0.0098 0.0283,-0.0041 0.0349,0.02342 0.01,0.04492 -0.0149,0.0098 -0.016,0.0099 -0.0293,0.02148 0.005,-0.003 0.0111,-0.0071 0.0156,-0.0078 0.0198,-0.003 0.0247,0.01756 0.0117,0.03906 0.001,-4.14e-4 0.005,-0.0068 0.006,-0.0078 v -0.002 c 0.003,-0.0041 0.01,-0.0033 0.0117,-0.0078 6.9e-4,-5.9e-4 0.005,-0.0013 0.006,-0.0039 v -0.002 c 4.5e-4,-5.87e-4 0.009,-0.0049 0.01,-0.0059 0.002,-0.0041 0.01,-0.01213 0.0117,-0.01367 0.005,-0.0064 0.005,-0.0035 0.01,-0.0098 0.006,-0.0064 0.0148,-0.0083 0.0215,-0.0078 0.006,4.19e-4 0.0122,0.0019 0.0176,0.0059 l 0.002,-0.0059 v 0.0078 c 0.005,0.0036 0.008,0.0075 0.0117,0.01172 0.002,-0.0036 0.007,-0.0062 0.0117,-0.01172 0.003,-0.0018 0.009,-0.0062 0.0117,-0.0078 0.005,-0.0063 0.0116,-0.01171 0.0156,-0.01758 0.0106,-0.0089 -0.007,0.0065 0.0176,-0.02148 0.006,-0.0053 0.0103,-0.01053 0.0156,-0.01563 0.003,-0.003 0.005,-0.0056 0.008,-0.0078 6.9e-4,-5.74e-4 -9.9e-4,0.0059 0,0.0059 l 0.0117,-0.0059 c 0.0183,-0.02642 0.0174,-0.03176 0.0469,-0.05664 0.006,-0.0063 0.0136,-0.0104 0.0215,-0.01563 -5.9e-4,5.74e-4 -4.1e-4,0.0072 0,0.0078 0.0148,-0.01433 0.0353,-0.02739 0.0527,-0.03906 0.004,-0.02653 0.0188,-0.04801 0.0469,-0.06445 h 0.008 c 4.7e-4,-3.66e-4 0.006,-0.0062 0.008,-0.0078 0.003,-0.0012 0.007,-0.0068 0.01,-0.0078 -9.9e-4,3.29e-4 -0.009,-3.38e-4 -0.01,0 0.003,-0.0018 0.008,-0.0019 0.0137,-0.0059 0.006,-0.0075 0.012,-0.01402 0.0156,-0.01758 v 0.0059 c 0.002,-0.007 0.005,-0.0053 0.0195,-0.02539 4e-4,-5.86e-4 0.009,-0.0056 0.01,-0.0078 v -0.0059 c 4e-5,-5.74e-4 0.004,-0.0062 0.006,-0.0078 6.9e-4,-0.0012 0.009,-0.0068 0.01,-0.0078 0.019,-0.02334 0.0126,-0.02166 0.0254,-0.03125 l 0.0117,-0.0039 c 0.009,-0.01392 0.0228,-0.02639 0.0371,-0.03711 9.7e-4,-0.0012 0.0107,-0.0043 0.0117,-0.0059 6.6e-4,-0.0012 0.009,-0.0068 0.01,-0.0078 6.5e-4,-0.0012 0.0107,-0.0068 0.0117,-0.0078 0.002,-0.0024 0.01,-0.0037 0.0117,-0.0059 h 0.01 v -0.002 l 0.0117,-0.0078 c 9.8e-4,-0.0018 0.007,-0.0043 0.008,-0.0059 l 0.004,-0.0039 c 0.0146,-0.02197 -0.002,6.17e-4 0.0488,-0.03906 -0.004,0.0024 -0.0182,0.01024 -0.0274,0.01563 0.004,-0.0047 0.008,-0.0053 0.01,-0.0098 0.0101,-0.01362 0.016,-0.02219 0.0293,-0.03516 0.0103,-0.0086 0.0209,-0.01586 0.0312,-0.02344 l 0.002,-0.0059 c 0.006,-0.0069 0.0104,-0.01284 0.0156,-0.01953 0.0149,-0.01771 0.0191,-0.01958 0.0352,-0.03516 0.006,-0.0053 0.0117,-0.0072 0.0117,-0.0059 0.006,-0.0047 0.006,-0.0092 0.0117,-0.01367 0.002,-0.0012 0.008,-0.0049 0.01,-0.0059 3.4e-4,-0.0012 -7.6e-4,-0.0068 0.002,-0.0078 0.003,-0.0053 0.007,-0.0085 0.0117,-0.01367 0.0133,-0.01765 0.0303,-0.03491 0.0488,-0.04883 0.002,-0.0018 0.007,-0.0043 0.01,-0.0059 5.2e-4,-5.79e-4 0.009,-0.0068 0.01,-0.0078 l 0.004,-0.0059 0.0117,-0.0078 c 0.009,-0.01084 0.0217,-0.02841 0.0234,-0.03125 0.008,-0.0081 0.0272,-0.0261 0.0351,-0.0332 0.003,-0.0024 0.008,-0.0037 0.0117,-0.0059 6.6e-4,-5.51e-4 0.009,-0.0072 0.0117,-0.0078 l 0.01,-0.0078 0.01,-0.0059 c 6.7e-4,-5.75e-4 0.0107,-0.0072 0.0117,-0.0078 0.001,-5.43e-4 0.0107,-0.0053 0.0117,-0.0059 0.004,-0.003 0.008,-0.005 0.0117,-0.0078 0.004,-0.003 0.0104,-0.0089 0.0156,-0.01172 l 0.008,-0.002 0.01,-0.0039 h 0.01 l 0.01,-0.0039 c 0.002,-0.0012 0.01,-0.0068 0.0117,-0.0078 6.8e-4,-5.07e-4 0.004,4.34e-4 0.006,-0.002 9.9e-4,-0.0012 0.007,-0.0025 0.0117,-0.0059 7e-4,-5.37e-4 0.0107,6.99e-4 0.0117,-0.002 v -0.0039 c 6.9e-4,-5.67e-4 0.0107,-0.0053 0.0117,-0.0059 6.9e-4,-4.97e-4 0.007,-0.0072 0.008,-0.0078 0.004,-0.003 0.008,-0.0081 0.0117,-0.01172 v -0.0059 c 2.7e-4,-0.0012 0.005,-0.0049 0.008,-0.0059 0.008,-0.02351 0.005,-0.01218 0.0195,-0.0332 l 0.008,-0.0078 v 0.05664 c 9.9e-4,-0.003 0.01,-0.007 0.0117,-0.0098 0.005,-0.0073 0.0153,-0.0158 0.0234,-0.02344 0,-0.0018 0.004,-0.0062 0.006,-0.0078 0.008,-0.0091 0.0179,-0.01645 0.0254,-0.02539 7e-5,-0.0018 0.002,-0.0043 0.004,-0.0059 0.0141,-0.01599 0.006,-0.0069 0.0117,-0.01563 0.008,-0.0095 0.0182,-0.01816 0.0254,-0.02734 v -0.002 c 0.002,-0.0024 0.0107,-0.0068 0.0117,-0.0078 2.2e-4,-5.75e-4 0.004,-0.0049 0.004,-0.0059 9.9e-4,-0.0036 0.009,-0.0085 0.01,-0.01172 0.004,-0.0083 0.0188,-0.01976 0.0293,-0.02734 0.0106,-0.0073 0.0187,-0.01757 0.0293,-0.02539 0.0151,-0.01072 0.016,-0.0088 0.0293,-0.01758 0.003,-0.0018 0.007,-0.0037 0.01,-0.0059 5.9e-4,-5.04e-4 0.01,-0.0053 0.0117,-0.0059 6.8e-4,-0.0012 0.009,-0.0068 0.01,-0.0078 0.01,-0.01208 0.0226,-0.02402 0.0332,-0.03516 -0.004,0.0018 0.005,-0.0048 0.008,-0.0078 v -0.002 h 0.008 v -0.0078 c -9e-5,1.98e-4 0.008,-0.0078 0.008,-0.0078 l 0.0117,-0.0078 c 1.6e-4,-2.06e-4 -7.6e-4,-1.61e-4 0.0117,-0.02148 0.008,-0.01185 0.009,-0.01224 0.0215,-0.02344 0.003,-0.003 0.009,-0.007 0.0117,-0.0098 0.006,-0.0062 0.0202,-0.01805 0.0215,-0.02148 0.008,-0.0069 0.0116,-0.0113 0.0195,-0.01758 0.0202,-0.01481 0.0109,-0.0057 0.0215,-0.01172 V 61 c 0.003,-0.0036 0.004,-0.0061 0.006,-0.0098 0.005,-0.003 0.009,-0.007 0.0117,-0.0098 0.003,-0.0018 0.01,-0.0062 0.0117,-0.0078 0.002,-0.0036 0.005,-0.0079 0.008,-0.01172 -6.9e-4,0.0012 0.0107,-0.0049 0.0117,-0.0059 3.5e-4,-5.84e-4 0.005,4.33e-4 0.006,-0.002 l 0.0117,-0.0059 c 0.006,-0.0079 0.0128,-0.01396 0.0156,-0.01758 0.002,-0.003 0.009,-0.0068 0.01,-0.0078 6.8e-4,-0.0012 0.007,-0.0043 0.01,-0.0059 0.003,-0.0036 0.009,-0.0081 0.0117,-0.01172 9.9e-4,-5.73e-4 0.0107,-0.0033 0.0117,-0.0039 0.006,-0.0067 0.008,-0.01302 0.0137,-0.01953 0.008,-0.01037 0.0136,-0.02035 0.0215,-0.0293 0.003,-0.0018 0.01,-0.0062 0.0117,-0.0078 0.008,-0.0098 -0.008,0.0093 0.0137,-0.01563 5.3e-4,-0.0012 0.007,-0.0068 0.008,-0.0078 4.2e-4,-0.0018 0.006,-0.0062 0.008,-0.0078 5.2e-4,-0.0012 0.0107,-0.0047 0.0117,-0.0059 0.0127,-0.0122 0.0172,-0.02509 0.0293,-0.03711 l 0.01,-0.0039 0.01,-0.002 c 0.002,-5.81e-4 0.009,-0.0053 0.01,-0.0059 0.002,-0.0012 0.008,-0.0068 0.01,-0.0078 0.003,-0.0036 0.008,-0.0059 0.0117,-0.0059 0.007,-0.0068 0.007,-0.007 0.0195,-0.01758 0.006,-0.0041 0.0122,-0.0096 0.0176,-0.01367 0.003,-0.0024 0.009,-0.005 0.0117,-0.0078 l 0.01,-0.0039 0.0117,-0.0078 c 0,-0.0024 0.009,-0.0043 0.0117,-0.0059 9.9e-4,-0.0018 0.01,-0.0062 0.0117,-0.0078 0.003,-0.0053 0.01,-0.01 0.0156,-0.01563 0.007,-0.0062 0.0148,-0.0098 0.0215,-0.01562 l 0.008,-0.0078 v -0.0078 l 0.004,-0.0059 v -0.002 c 0.002,-0.0024 0.009,-0.0059 0.01,-0.0059 h -0.57422 c 0.001,-0.0041 0.009,-0.0089 0.0117,-0.01367 0.008,-0.01463 0.0172,-0.02799 0.0273,-0.04102 6.9e-4,-0.0012 -7.9e-4,-0.0062 0.002,-0.0078 -4.4e-4,5.81e-4 -3.4e-4,-0.0053 0,-0.0059 10e-4,-0.0018 0.002,-0.0062 0.004,-0.0078 0.001,-0.0018 0.009,-0.0066 0.008,-0.0059 0.006,-0.0073 0.012,-0.01402 0.0176,-0.02148 0.001,-0.0024 0.002,-0.0053 0.002,-0.0059 v -0.0078 c 0.005,-0.0053 0.009,-0.01111 0.0156,-0.01563 0.004,-0.0018 0.005,-0.0062 0.008,-0.0078 l 0.004,-0.0059 c 0.003,-0.003 0.007,-0.007 0.0117,-0.0098 0.002,-0.0012 0.008,-0.0068 0.01,-0.0078 v -0.0059 l 0.008,-0.0078 c 0.008,-0.0063 0.0162,-0.01053 0.0254,-0.01563 7.1e-4,-4.98e-4 4.2e-4,-0.0054 0.002,-0.0078 0.003,-0.0018 0.01,-0.0047 0.0117,-0.0059 0.005,-0.0036 0.008,-0.0037 0.0117,-0.0059 l 0.002,-0.0039 c 0.008,-0.0088 0.0109,-0.01396 0.0215,-0.02539 v -0.0039 h 0.006 c 0.004,-0.0036 0.009,-0.0049 0.01,-0.0059 0,-9.9e-5 0.008,-0.0044 0.0117,-0.0078 0.006,-0.006 0.008,-0.01118 0.0137,-0.01758 0.008,-0.01155 0.015,-0.02142 0.0234,-0.03125 4.4e-4,-5.68e-4 0.002,-0.0053 0.004,-0.0059 0.002,-0.003 0.005,-0.005 0.008,-0.0078 -3.3e-4,5.85e-4 3.3e-4,0.0053 0,0.0059 7e-4,-0.0018 0.003,-0.0043 0.004,-0.0059 6.9e-4,-0.0012 0.009,-0.0062 0.01,-0.0078 0.003,-0.0036 0.009,-0.0044 0.0117,-0.0078 5.7e-4,-5.8e-4 0.003,-0.0049 0.004,-0.0059 l 0.01,-0.0078 c 0.002,-0.0024 0.0107,-0.0062 0.0117,-0.0078 0.006,-0.008 0.0105,-0.01094 0.0234,-0.02148 0.004,-0.0036 0.0107,-0.007 0.0156,-0.0098 0.002,-0.0012 0.005,-0.0047 0.008,-0.0059 0.001,-0.0059 0.009,-0.0098 0.0117,-0.01563 v -0.0078 -0.0078 c 0.006,-0.009 0.0145,-0.01975 0.0195,-0.0293 0.003,-0.003 0.006,-0.0066 0.008,-0.0098 0.003,-0.0082 0.009,-0.0171 0.0117,-0.02539 0.001,-0.0012 4.1e-4,-0.0068 0.002,-0.0078 l 0.002,-0.0039 c 0.008,-0.01327 0.009,-0.01709 0.0215,-0.0293 h 0.006 c 4.6e-4,-4.56e-4 0.0107,-0.0072 0.0117,-0.0078 v -0.002 c 0.002,-0.003 0.006,-0.0046 0.008,-0.0078 2.8e-4,-0.0018 0.0107,-0.0068 0.0117,-0.0078 0.008,-0.01451 0.0187,-0.02869 0.0293,-0.04102 h 0.0176 c 0.0365,-0.03773 0.0755,-0.05504 0.10742,-0.05664 0.004,-1.78e-4 0.008,-1.33e-4 0.0117,0 v 0.251953 c 5.9e-4,-0.0018 0.008,-0.0043 0.01,-0.0059 0.007,-0.0066 0.0126,-0.01391 0.0195,-0.01953 3.6e-4,-5.9e-4 0.009,-0.0033 0.01,-0.0039 0.009,-0.0135 0.0145,-0.01905 0.0273,-0.0332 0.0109,-0.01031 0.006,-0.01253 0.0117,-0.01172 4.7e-4,-5.85e-4 0.0107,-0.0027 0.0117,-0.0039 6.5e-4,-0.0012 0.0107,-0.0066 0.0117,-0.0078 6.4e-4,-0.0012 0.002,-0.0033 0.002,-0.0039 3.2e-4,-4.2e-4 0.007,-0.0049 0.008,-0.0059 0.003,-0.0053 0.004,-0.01467 0.01,-0.01953 l 0.0137,-0.01367 c 4.5e-4,-5.08e-4 0.009,-0.0066 0.01,-0.0078 l 0.0117,-0.0059 c 10e-4,-0.0018 0.003,-0.0072 0.004,-0.0078 0.003,-0.0041 0.009,-0.0094 0.0117,-0.01367 0.006,-0.003 0.008,-0.009 0.0137,-0.01172 0.0103,-0.01084 0.0121,-0.01154 0.0215,-0.01953 v -0.002 c 9.9e-4,-0.0024 0.01,-0.0037 0.0117,-0.0059 9.8e-4,-5.74e-4 0.0107,-0.0068 0.0117,-0.0078 l 0.01,-0.0059 c 6.8e-4,5.73e-4 4.2e-4,0.0053 0,0.0059 0.009,-0.01291 0.0143,-0.01911 0.0234,-0.02734 6.5e-4,-5.91e-4 0.009,-0.0062 0.01,-0.0078 v -0.0078 c 6.7e-4,-0.0018 0.009,-0.0043 0.01,-0.0059 0.006,-0.0074 0.0116,-0.01432 0.0195,-0.02148 0.003,-0.0018 0.01,-0.0062 0.0117,-0.0078 0.002,-0.0024 0.009,-0.0053 0.01,-0.0059 l 0.0117,-0.0078 c 9.8e-4,-0.0018 0.007,-0.0043 0.008,-0.0059 l 0.01,-0.002 c 5.6e-4,-0.0012 0.004,-0.0068 0.006,-0.0078 l 0.008,-0.0059 0.0117,-0.002 h 0.002 c 0.002,-0.0024 0.0107,-0.0056 0.0117,-0.0078 l 0.01,-0.0078 h 0.008 c 4.7e-4,-5.85e-4 0.0117,-0.0014 0.0117,-0.002 v -0.0078 h 0.008 c 0.0117,-0.02079 0.0113,-0.02485 0.0234,-0.03711 0.005,-0.0047 0.009,-0.01111 0.0156,-0.01563 0.004,-0.003 0.0117,-0.0072 0.0117,-0.0078 0.001,-0.0012 0.005,-0.0066 0.0117,-0.01172 0.006,-0.0041 0.0122,-0.0076 0.0176,-0.01172 0.004,-0.0012 0.008,-0.0068 0.0117,-0.0078 h 0.01 v -0.0059 h 0.01 v -0.0039 l 0.006,-0.0059 c 0.0138,-0.0072 0.0273,-0.01373 0.041,-0.01758 l 0.008,-0.0078 c 0.002,-0.0012 0.0107,-0.0053 0.0117,-0.0059 -0.003,-4e-5 -0.0107,1.65e-4 -0.0117,0 0.001,-2.3e-4 0.01,-0.0072 0.0117,-0.0078 h 0.002 c 0.003,-0.0024 0.006,-0.0055 0.0156,-0.01172 0.006,-0.0047 0.0122,-0.0073 0.0176,-0.01172 0.008,-0.0047 0.0135,-0.009 0.0215,-0.01367 0.004,-0.003 0.007,-0.0046 0.0117,-0.0078 6.4e-4,-0.0041 0.01,-0.01059 0.0117,-0.01367 10e-4,-0.0018 0.003,-0.0043 0.004,-0.0059 0,-0.0036 0.008,-0.0083 0.01,-0.01172 0.0112,-0.01344 0.0238,-0.02722 0.0371,-0.03906 0.0106,-0.0065 0.0155,-0.0093 0.0234,-0.01172 0.003,-0.0012 0.008,-0.0072 0.0117,-0.0078 0.002,-0.0018 0.0107,-0.0062 0.0117,-0.0078 0.003,-0.0012 0.009,-0.0043 0.01,-0.0059 0.006,-0.007 0.008,-0.01521 0.0156,-0.02148 0.008,-0.01007 0.007,-0.01 0.0176,-0.01953 0.003,-0.003 0.009,-0.0086 0.0117,-0.01172 0.006,-0.0063 0.0116,-0.01 0.0195,-0.01563 6.9e-4,-5.39e-4 0.007,-0.0068 0.008,-0.0078 0.003,-0.0018 0.01,-0.0043 0.0117,-0.0059 0.008,-0.0086 0.0113,-0.01976 0.0215,-0.02734 0.006,-0.0078 0.004,-0.0056 0.0117,-0.01367 0.003,-0.0036 0.01,-0.01533 0.0117,-0.01758 0.003,-0.003 0.006,-0.0056 0.008,-0.0078 l 0.0117,-0.002 c 4.4e-4,-5.74e-4 0.007,-0.0068 0.008,-0.0078 0.006,-0.01356 0.0115,-0.02526 0.0215,-0.03711 6.9e-4,-0.0012 0.0107,-0.0053 0.0117,-0.0059 9.9e-4,-2.19e-4 -4.9e-4,0.0059 0,0.0059 0.003,-0.0036 0.01,-0.0083 0.0117,-0.01172 0.003,-0.0063 0.0122,-0.0083 0.0176,-0.01367 l 0.01,-0.0078 c 0.003,-0.0018 0.01,-0.0043 0.0117,-0.0059 6.8e-4,-5.85e-4 0.0107,-0.0027 0.0117,-0.0039 6e-4,-0.0018 0.007,-0.0056 0.008,-0.0078 0.006,-0.01007 0.003,-0.0074 0.0137,-0.01758 9.9e-4,-4.98e-4 0.002,-1.61e-4 0.004,-0.002 6.9e-4,0.0012 6.3e-4,0.0033 0.004,0.0039 v -0.0059 c 0.001,-0.0012 3.8e-4,-0.0053 0.002,-0.0059 0.008,-0.0067 0.0117,-0.01361 0.0195,-0.01953 0.008,-0.0072 0.0109,-0.01248 0.0215,-0.01758 0.003,-5.74e-4 0.008,-0.0078 0.01,-0.0078 H 173 c 6.4e-4,-5.85e-4 0.006,-0.0037 0.008,-0.0059 0.0101,-0.0098 0.022,-0.01805 0.0352,-0.02344 0.006,-0.0036 0.007,-0.007 0.0137,-0.0098 0.003,-0.0018 0.008,-0.0068 0.01,-0.0078 6.9e-4,-0.0047 0.004,-0.0092 0.008,-0.01367 0.006,-0.0088 0.0165,-0.01799 0.0273,-0.02539 0.015,-0.01137 0.0327,-0.01905 0.0488,-0.0293 -4.2e-4,-4.55e-4 4.5e-4,-0.0072 0,-0.0078 -0.005,-0.0053 -0.0111,-0.01373 -0.008,-0.02148 0.003,-0.003 0.005,-0.0056 0.008,-0.0078 v 0.0293 c 0.008,-0.0047 0.0148,-0.01272 0.0215,-0.01758 7e-5,5.74e-4 -1.7e-4,0.0053 0,0.0059 5.8e-4,-5.02e-4 0.007,-0.0043 0.008,-0.0059 v -0.0078 -0.002 l 0.0117,-0.0078 c -0.0132,-0.02387 -0.008,-0.01852 -0.0117,-0.02344 0.004,-0.0036 0.008,-0.0044 0.0137,-0.0078 0,-0.0012 0.01,-0.0068 0.0117,-0.0078 h 0.002 l 0.002,-0.002 0.0117,-0.0039 c 0.0122,-0.01072 0.0278,-0.0171 0.041,-0.02539 0.006,-0.003 0.0103,-0.0071 0.0156,-0.0098 0.003,-0.0012 0.009,-0.0068 0.0117,-0.0078 0.003,-0.0012 0.01,-0.0049 0.0117,-0.0059 h 0.002 c 0.003,-0.003 0.006,-0.0056 0.0117,-0.0078 0.006,-0.003 0.0103,-0.0056 0.0156,-0.0078 5.4e-4,-2.55e-4 0.0107,-0.0039 0.0117,-0.0039 0.004,-0.0024 0.0107,-0.0049 0.0117,-0.0059 0.006,-0.01019 0.002,-0.005 0.0117,-0.01758 0.008,-0.0047 0.0104,-0.01142 0.0156,-0.01758 0.003,-0.0036 0.007,-0.0062 0.008,-0.0078 9e-5,-1.66e-4 0.009,-0.0053 0.01,-0.0059 0.001,-0.0024 0.008,-0.0059 0.008,-0.0059 0.001,-0.0018 0.007,-0.0044 0.01,-0.0078 0.003,-0.0036 0.009,-0.0082 0.0117,-0.01172 0,-0.0018 0.006,-0.0037 0.008,-0.0059 0.006,-0.0067 0.0138,-0.01325 0.0215,-0.01953 0.006,-0.0053 0.008,-0.01219 0.0137,-0.01758 v -0.002 c 6.7e-4,-0.0012 0.009,-0.0039 0.0117,-0.0078 0.003,-0.0036 0.007,-0.0064 0.01,-0.0098 0.0106,-0.0084 0.0163,-0.01272 0.0273,-0.02344 2.1e-4,-5.79e-4 0.0107,-0.0068 0.0117,-0.0078 6.9e-4,-0.0012 0.009,-0.0043 0.01,-0.0059 0.006,-0.0098 0.004,-0.01106 0.0117,-0.01953 0.006,-0.0036 0.007,-0.0064 0.01,-0.0098 0.003,-0.0012 0.0107,-0.0068 0.0117,-0.0078 0.006,-0.0036 0.006,-0.0053 0.0117,-0.0098 0.008,-0.0074 0.0135,-0.01799 0.0215,-0.02539 0.001,-5.68e-4 0.009,-0.0033 0.01,-0.0039 l 0.002,-0.0078 0.0117,-0.0059 c 0.003,-0.0024 0.0148,-0.01675 0.0156,-0.01758 0.01,-0.009 0.0197,-0.01627 0.0274,-0.02539 v -0.0078 c 6.7e-4,-0.0012 0.005,-0.0049 0.006,-0.0059 v -0.0059 c 0.002,-0.003 0.009,-0.005 0.0117,-0.0078 h 0.0117 c 6.8e-4,-5.86e-4 -2.2e-4,-0.0053 0.004,-0.0059 h 0.0117 l 0.008,-0.0078 v 0.0078 c 2.6e-4,-5.86e-4 0.008,-0.0072 0.008,-0.0078 l 0.01,-0.0059 c 0.002,-0.0053 0.008,-0.01302 0.0117,-0.01758 0.002,-0.0024 0.006,-0.0037 0.01,-0.0059 l 0.01,-0.0078 c 0.005,-0.0047 0.009,-0.01296 0.0137,-0.01758 h 0.006 c 0.006,-0.0047 -7.5e-4,-0.01906 0.0117,-0.01758 0.009,-0.0093 0.0209,-0.0171 0.0312,-0.02539 0.003,-0.0018 0.007,-0.0041 0.01,-0.0059 l 0.0117,-0.0078 c 0,-0.0024 0.01,-0.005 0.0117,-0.0078 0.008,-0.01481 0.007,-0.02148 0.0234,-0.03516 0.0226,-0.01842 0.0434,-0.02255 0.0703,-0.02539 0.002,-0.003 0.007,-0.008 0.008,-0.0098 0.009,-0.0092 0.0187,-0.01603 0.0293,-0.02344 0.0107,-0.0072 0.0213,-0.01248 0.0332,-0.01758 0.003,-0.0024 0.009,-0.007 0.0117,-0.0098 0.006,-0.01629 0.0129,-0.03482 -0.0117,-0.02148 -0.001,0.0012 -0.01,0.0068 -0.0117,0.0078 v -0.002 c 0.0103,-0.01107 0.0226,-0.02047 0.0332,-0.03125 0.0141,-0.01522 0.0298,-0.03142 0.043,-0.04687 0.016,-0.01747 0.008,-0.009 0.0215,-0.02539 0.003,-0.0024 0.008,-0.0056 0.01,-0.0078 0.006,-0.0041 0.006,-0.0077 0.0117,-0.01172 0.003,-0.0012 0.0107,-0.0072 0.0117,-0.0078 0.0154,-0.0084 0.0316,-0.01662 0.0449,-0.02734 0.008,-0.0069 0.0135,-0.01438 0.0215,-0.02148 0.008,-0.0075 0.0118,-0.01633 0.0195,-0.02344 0.001,-0.0014 0.003,-0.0025 0.004,-0.0039 l 0.002,-0.0039 c 0.002,-0.0018 0.008,-0.0035 0.01,-0.0059 0.004,-0.003 0.006,-0.0069 0.01,-0.0098 0.0242,-0.02038 0.05,-0.03846 0.0781,-0.05469 l -0.008,-0.0059 c 0.0108,-0.0063 0.0225,-0.01053 0.0312,-0.01172 0.003,-3.54e-4 0.007,-5.8e-5 0.01,0 0.0257,-0.04359 0.0664,-0.104254 0.084,-0.125 0.0511,-0.06221 0.11431,-0.116786 0.17578,-0.171874 -0.002,-0.0012 -0.008,-0.0043 -0.01,-0.0059 -0.006,-0.0036 0.007,-0.0092 0.01,-0.01367 0.01,-0.01244 0.0165,-0.02307 0.0273,-0.03516 0.0149,-0.01836 0.029,-0.03545 0.0449,-0.05273 0.017,-0.01836 0.0322,-0.03686 0.0508,-0.05469 0.0306,-0.03175 0.0482,-0.05344 0.0918,-0.07227 0.009,-0.0036 0.0178,-0.0062 0.0273,-0.0078 0.001,-0.0036 -0.008,-0.0047 -0.008,-0.0098 0.0151,-0.01854 0.0348,-0.03551 0.0508,-0.05273 0.006,-0.006 0.0107,-0.0104 0.0156,-0.01563 v -0.0039 l 0.008,-0.0078 0.0117,-0.0039 0.01,-0.0078 c 0.008,-0.0082 0.0165,-0.01574 0.0254,-0.02344 0.006,-0.006 0.0137,-0.01272 0.0215,-0.01758 6.6e-4,5.85e-4 0.008,0.0053 0.01,0.0059 4.5e-4,-4.68e-4 0.007,-0.0037 0.008,-0.0059 -0.001,-5.75e-4 -0.007,-0.0072 -0.008,-0.0078 l 0.008,-0.0059 c -4.8e-4,-0.01084 -0.008,-0.02266 -0.008,-0.0332 0.007,-0.02914 0.0505,-0.07976 0.0664,-0.09766 0.029,-0.03021 0.0784,-0.0718 0.11719,-0.0957 0.001,-5.85e-4 0.007,-0.0072 0.008,-0.0078 2.1e-4,-0.01196 -0.003,-0.0157 -0.0215,-0.0059 0.007,-0.0078 0.0163,-0.01751 0.0234,-0.02344 0.003,-0.0018 0.009,-0.0037 0.0117,-0.0059 4.5e-4,-5.74e-4 0.007,-0.0047 0.008,-0.0059 0.003,-0.003 0.009,-0.0089 0.0117,-0.01172 0.0115,-0.01025 0.0259,-0.01669 0.0391,-0.02344 h -0.26367 c 0.004,-0.0018 0.0119,-0.0062 0.0156,-0.0078 0.003,-0.0091 -3.8e-4,-0.01852 0.0137,-0.02734 5.5e-4,-3.55e-4 0.0107,8.19e-4 0.0117,-0.002 l 0.002,-0.0078 c 0.002,-0.0036 0.008,-0.005 0.01,-0.0078 0.0113,-0.01344 0.0276,-0.02402 0.0449,-0.03125 h 0.01 c 0.005,-0.0053 0.008,-0.01237 0.0176,-0.02148 0.0129,-0.01273 0.0265,-0.0174 0.0371,-0.01758 7e-4,-1.7e-5 0.009,-1.1e-5 0.01,0 0.0354,-0.04792 0.0703,-0.09605 0.11719,-0.136718 l 0.008,-0.0059 c 0.006,-0.01279 0.009,-0.01893 0.0156,-0.0332 0.01,-0.02316 0.0277,-0.0332 0.043,-0.0332 9.8e-4,-0.0012 0.0107,-0.0049 0.0117,-0.0059 0.003,-0.0041 0.005,-0.0096 0.008,-0.01367 0.003,-0.0018 0.0107,-0.0043 0.0117,-0.0059 0.008,-0.0086 0.0148,-0.01621 0.0215,-0.02539 0.003,-0.0047 0.009,-0.009 0.0117,-0.01367 0.006,-0.006 0.006,-0.01195 0.0117,-0.01758 1.2e-4,-0.0012 0.009,-0.0047 0.01,-0.0059 0.0109,-0.01327 0.0226,-0.02952 0.0332,-0.04297 0.006,-0.0047 0.01,-0.0091 0.0176,-0.01172 2.4e-4,-8.8e-5 -2.9e-4,0.0053 0,0.0059 l 0.008,-0.0059 c -0.003,0.0024 -0.002,0.0024 0.0117,-0.0098 0.009,-0.0047 0.009,-0.0056 0.0117,-0.0078 6.8e-4,-0.0017 0.007,-0.0065 0.01,-0.0098 0.003,-0.0036 0.009,-0.0044 0.0117,-0.0078 l 0.0117,-0.0078 0.01,-0.0078 c 0.006,-0.01125 0.0104,-0.02041 0.0234,-0.02734 0,-0.0018 0.009,-0.0043 0.01,-0.0059 0.008,-0.0094 0.011,-0.0184 0.0215,-0.02539 9.9e-4,-0.003 0.007,-0.0031 0.01,-0.0059 4e-4,-5.6e-4 0.0107,-0.0068 0.0117,-0.0078 5.1e-4,-5.81e-4 -7.5e-4,-0.0072 0.002,-0.0078 0.006,-0.01054 0.009,-0.01603 0.0195,-0.02344 0.006,-0.003 0.008,-0.0066 0.0137,-0.0098 0.003,-0.003 0.008,-0.0095 0.0137,-0.01172 0.002,-0.0012 0.0107,-0.0016 0.0117,-0.0039 l 0.01,-0.0059 0.0117,-0.0078 c 0.004,-0.0041 0.0106,-0.0086 0.0156,-0.01172 0.002,-0.0036 0.007,-0.0068 0.008,-0.0078 l 0.01,-0.0059 c 0.003,-0.0018 0.004,-0.0056 0.006,-0.0078 3.2e-4,-0.0018 0.009,-0.0062 0.01,-0.0078 0.002,-0.0024 0.008,-0.0037 0.01,-0.0059 4.7e-4,-5.5e-4 0.0107,-0.0056 0.0117,-0.0078 0.006,-0.0077 0.0161,-0.01432 0.0215,-0.02148 0.003,-0.0024 0.009,-0.0076 0.0117,-0.0098 0.002,-0.0012 0.008,-0.0068 0.01,-0.0078 l 0.006,-0.0059 c 0.002,-0.0036 0.01,-0.0044 0.0117,-0.0078 0.003,-0.003 0.009,-0.007 0.0117,-0.0098 0.003,-0.0024 0.007,-0.0057 0.01,-0.0078 0.003,-0.0012 0.01,-0.0068 0.0117,-0.0078 5.3e-4,-3.95e-4 0.01,-0.0025 0.0117,-0.0059 0.006,-0.0085 0.0135,-0.01911 0.0215,-0.02539 9.9e-4,-4.31e-4 0.007,-0.0053 0.008,-0.0059 6.7e-4,-3.54e-4 0.009,-0.0072 0.01,-0.0078 6.9e-4,-0.0012 0.01,-0.0037 0.0117,-0.0059 0.003,-0.0018 0.0107,-0.0041 0.0117,-0.0059 0.003,-0.0018 0.01,-0.0062 0.0117,-0.0078 8.7e-4,-0.001 0.006,-0.0041 0.008,-0.0059 v -0.0039 c 0.002,-0.0023 0.009,-0.0058 0.01,-0.0078 0.004,-0.0063 0.0129,-0.01104 0.0195,-0.01563 v -0.002 c 0.002,-0.0041 0.008,-0.0078 0.0117,-0.01172 6.6e-4,-0.0018 0.007,-0.0062 0.008,-0.0078 l 0.0117,-0.002 c 0.002,-0.0018 0.005,-0.0043 0.008,-0.0059 -0.003,-0.0024 -0.007,-0.0078 -0.008,-0.0078 0.003,-0.0047 0.002,-0.0038 0.008,-0.0078 6.9e-4,-0.0018 0.007,-0.0049 0.008,-0.0059 0.008,-0.0097 0.0181,-0.01734 0.0273,-0.02539 0.003,-0.0041 0.006,-0.0064 0.0117,-0.0098 6.2e-4,-5.2e-4 0.008,-0.0059 0.008,-0.0059 0.003,-0.0018 0.008,-0.0056 0.01,-0.0078 0.003,-0.0018 0.01,-0.0043 0.0117,-0.0059 0.003,-0.0018 0.01,-0.0062 0.0117,-0.0078 9e-5,-0.0018 0.01,-0.0043 0.0117,-0.0059 0.007,-0.0097 0.0144,-0.01905 0.0254,-0.02734 l 0.0117,-0.0078 c 9.9e-4,-0.0012 0.009,-0.0049 0.01,-0.0059 l 0.01,-0.0078 c 0.004,-0.0047 0.008,-0.0066 0.0117,-0.01172 0.005,-0.0069 0.01,-0.01195 0.0176,-0.01758 0,-0.0024 0.008,-0.0056 0.01,-0.0078 0.006,-0.0047 0.0103,-0.0092 0.0156,-0.01367 0.001,-5.72e-4 0.0107,-0.0031 0.0117,-0.0059 v -0.0078 c 4.4e-4,-5.61e-4 0.0107,-0.0049 0.0117,-0.0059 0.004,-0.0066 0.004,-0.01343 0.01,-0.01953 0.0106,-0.01297 0.0109,-0.01248 0.0234,-0.02344 6.7e-4,-5.06e-4 0.009,-0.0063 0.01,-0.0059 0.001,0.0012 0.006,0.0049 0.008,0.0059 l 0.008,-0.0059 c 9.9e-4,-0.0012 0.009,-0.0072 0.01,-0.0078 6.8e-4,-5.25e-4 0.0107,-0.0053 0.0117,-0.0059 0.001,-5.51e-4 0.004,-0.0068 0.006,-0.0078 6.4e-4,-5.62e-4 0.0107,-0.0047 0.0117,-0.0059 v -0.0059 c 0.004,-0.003 0.009,-0.0064 0.0137,-0.0098 0,5.73e-4 0.0107,-0.0068 0.0117,-0.0078 v 0.07422 c 0.001,-5.78e-4 0.007,-0.0053 0.008,-0.0059 0.006,-0.0069 0.0106,-0.01663 0.0176,-0.02344 l 0.0156,-0.0039 c 0.006,-0.0076 0.0148,-0.01373 0.0215,-0.01758 0.0446,-0.09954 0.0912,-0.207878 0.13867,-0.148437 0.0493,-0.138399 0.0978,-0.276018 0.14844,-0.414063 0.0553,-0.150175 0.17947,-0.27734 0.27539,-0.412109 0.021,-0.0295 -0.0681,0.125747 -0.0469,0.0957 0.36911,-0.554301 -0.0134,-0.100932 0.48242,-0.621094 0.06,-0.182141 0.13979,-0.360475 0.23828,-0.521484 0.16153,-0.218815 0.31452,-0.441804 0.48437,-0.65625 0.23704,-0.299206 0.72262,-0.587958 1.04102,-0.828125 0.0263,-0.01427 0.0487,-0.04084 0.0801,-0.04297 0.0149,-0.0012 -0.0223,0.04913 -0.0117,0.03906 0.16775,-0.167712 0.31552,-0.350057 0.48633,-0.515625 0.25157,-0.243917 0.56304,-0.444337 0.81836,-0.685547 0.38254,-0.327755 0.75339,-0.666709 1.17578,-0.958984 0.004,-0.0042 0.008,-0.0077 0.0117,-0.01172 0.001,-0.0012 0.008,-0.0068 0.01,-0.0078 0.0724,-0.07026 0.14265,-0.141171 0.21289,-0.21289 0.35402,-0.361286 0.58658,-0.625139 0.98438,-0.976563 0.12083,-0.106772 0.25859,-0.199986 0.38867,-0.298828 0.24842,-0.345654 0.50935,-0.677119 0.82227,-0.990234 0.15456,-0.146934 0.29929,-0.302264 0.45898,-0.445313 0.14143,-0.126656 0.43871,-0.505587 0.49414,-0.470703 0.25298,-0.242145 0.4843,-0.445019 0.41016,-0.34375 0.10239,-0.06556 0.20251,-0.13363 0.30664,-0.197266 0.0648,-0.03962 0.14104,-0.06496 0.19922,-0.111328 0.0406,-0.0324 0.0476,-0.04866 0.0781,-0.07617 A 98.879765,90.267282 0 0 0 98.974609,0.00195313 Z M 172.21484,59.761719 v 0.191406 H 172 v -0.0039 h 0.008 c 7e-4,-0.0012 0.0107,-0.0072 0.0117,-0.0078 l 0.002,-0.0059 c 0.006,-0.01202 -0.002,-1.48e-4 0.0234,-0.02734 0.003,-0.0012 0.009,-0.0049 0.01,-0.0059 9.9e-4,-0.0012 0.007,-0.0027 0.008,-0.0039 6.9e-4,-0.0012 0.002,-0.0072 0.002,-0.0078 l 0.0137,-0.01953 0.002,-0.002 v -0.0078 l 0.008,-0.0039 0.0117,-0.0078 c 5e-4,-0.0012 0.0107,-0.0049 0.0117,-0.0059 0.006,-0.0076 0.0143,-0.01432 0.0195,-0.02148 0.004,-0.0041 0.007,-0.0082 0.0117,-0.01172 l 0.0117,-0.0078 v 0.0078 l 0.0117,-0.0078 c 4.6e-4,-5.81e-4 0.009,-0.0053 0.01,-0.0059 9.8e-4,-0.0018 0.009,-0.0068 0.01,-0.0078 0.007,-0.01084 0.0193,-0.01905 0.0293,-0.02734 z M 156.76172,75.78125 c 0.008,0.0014 0.016,0.005 0.0332,0.002 0.002,-3.37e-4 0.002,-1.57e-4 0.004,-0.002 -0.0122,3.14e-4 -0.0249,-1.42e-4 -0.0371,0 z m -10.37695,10.498047 c -0.012,0.01398 -0.024,0.0265 -0.0352,0.04102 -0.001,0.0018 -0.004,0.0056 -0.006,0.0078 -0.004,0.0078 -0.007,0.01776 -0.006,0.01367 0.0188,-0.02541 0.0315,-0.04122 0.0469,-0.0625 z m -1.69336,2.216797 c 5e-5,0.0012 -2.1e-4,0.0039 0,0.0039 h 0.002 c 4.2e-4,-0.0018 3.5e-4,-0.0021 0.002,-0.0039 h -0.002 z m -2.59961,2.074218 c 0.009,-3.3e-4 0.0157,-4.21e-4 -0.004,0.002 -0.0337,0.003 -0.0712,0.0037 -0.10742,0.0059 0.0438,-0.0041 0.0942,-0.0071 0.11133,-0.0078 z m -2.04297,1.949219 c -0.001,0.0024 -0.002,0.0056 -0.004,0.0078 h 0.002 c 5.7e-4,-0.0024 -1.1e-4,-0.0056 0.002,-0.0078 z m -0.004,0.0078 c -0.0205,0.03056 -0.042,0.06753 -0.0625,0.09766 0.007,0.0018 0.0166,0.0029 0.0234,0.0059 0.0127,-0.03115 0.0231,-0.06296 0.0371,-0.09375 7e-4,-0.0036 3.5e-4,-0.0063 0.002,-0.0098 z m -0.57031,4.11914 c 0.0158,0.01629 0.0535,0.05748 0.082,0.08789 -0.003,-0.007 -0.006,-0.01449 -0.01,-0.02148 -0.0281,-0.02505 -0.0518,-0.04651 -0.0723,-0.06641 z m 0.83594,0.96875 -0.002,0.002 c 0.0342,0.04081 0.0626,0.07648 0.0918,0.113281 -0.007,-2.9e-4 -0.0126,-0.002 -0.0195,-0.002 0.01,0.0041 0.0228,0.0092 0.0332,0.01367 -0.003,-0.0036 -0.006,-0.0078 -0.01,-0.01172 10e-4,-1.2e-5 0.002,-4.8e-5 0.004,0 -0.032,-0.03885 -0.0652,-0.07664 -0.0976,-0.115235 z m 0.0976,0.117188 c 0.005,0.0059 0.009,0.0099 0.0137,0.01563 v 0.002 l 0.002,0.002 c 0.0295,0.01294 0.0704,0.02987 0.10351,0.04492 -0.0124,-0.02168 -0.0243,-0.04303 -0.0371,-0.06445 -0.0273,-5.63e-4 -0.055,0.0016 -0.082,0 z m 1.72266,1.103516 c -0.009,0.0097 -0.0166,0.02035 -0.0254,0.0293 -0.0337,0.03441 0.0612,0.07332 0.0918,0.109375 0.0363,0.02825 0.0712,0.0577 0.10742,0.08594 0.0193,-0.008 0.0653,-0.01027 0.0957,-0.01563 -0.0524,-0.0401 -0.10542,-0.09509 -0.14062,-0.126953 -0.01,-0.01179 -0.0187,-0.02852 -0.0293,-0.03906 -0.0264,-0.02565 -0.0615,-0.03527 -0.0996,-0.04297 z m 0.32812,0.34375 c 0.007,0.0053 0.0148,0.01041 0.0215,0.01562 0.03,0.01801 0.11986,0.07349 0.0898,0.05469 -0.0366,-0.0234 -0.0745,-0.04686 -0.11133,-0.07031 z m 3.18555,2.199225 c 0.011,0.008 0.0205,0.0155 0.0312,0.0234 0.008,0.005 0.0353,0.0162 0.0273,0.0117 -0.0197,-0.012 -0.0389,-0.0233 -0.0586,-0.0352 z m 1.37109,0.82812 c 0.0125,0.006 0.0265,0.01 0.0391,0.0156 -10e-4,-0.001 6.7e-4,-0.003 -0.002,-0.004 -0.008,-0.003 -0.0221,-0.009 -0.0293,-0.0117 -0.003,0 -0.005,5e-5 -0.008,0 z m 1.66993,1.05274 c 0.0471,0.052 0.0988,0.098 0.1582,0.13867 -0.0127,-0.0143 -0.0342,-0.038 -0.0508,-0.0566 -0.036,-0.0274 -0.0721,-0.054 -0.10742,-0.082 z m 4.14453,2.93164 c 0.007,5.9e-4 0.0193,0.002 0.0332,0.004 -0.002,-0.002 -0.005,-0.002 -0.008,-0.004 -0.0125,0 -0.0187,5.8e-4 -0.0254,0 z m 1.74804,2.15234 c -0.0319,0.005 -0.0614,0.0108 -0.0918,0.0176 0.0105,0.009 0.0207,0.0166 0.0312,0.0254 0.0201,-0.0135 0.0392,-0.0283 0.0605,-0.043 z m -0.12109,0.0234 c -0.004,10e-4 -0.009,0.003 -0.0137,0.004 0.0115,0.007 0.0284,0.0163 0.041,0.0234 -0.009,-0.009 -0.0181,-0.0185 -0.0273,-0.0273 z m 0.0273,0.0273 c 0.003,0.003 0.006,0.005 0.01,0.008 7e-4,-5.9e-4 0.003,4.8e-4 0.004,-0.002 -0.004,-0.002 -0.01,-0.004 -0.0137,-0.006 z m 2.19726,1.73438 c -0.003,-0.002 0.003,0.005 0.006,0.006 0.008,0.004 0.0155,0.01 0.0234,0.0137 -0.01,-0.006 -0.0194,-0.0133 -0.0293,-0.0195 z m 0.64453,0.27539 c 0.005,0.005 0.0204,0.0185 0.0234,0.0195 0.004,0.001 0.008,6.8e-4 0.0117,0.002 -0.0313,-0.0235 -0.0397,-0.0264 -0.0352,-0.0215 z m 5.44922,2.78515 c 0.0428,0.042 0.14434,0.084 0.25391,0.12305 -0.0194,-0.0121 -0.0346,-0.0234 -0.0527,-0.0352 -0.0666,-0.0297 -0.13474,-0.0579 -0.20117,-0.0879 z m 12.86328,10.46289 c 0.007,0.005 0.0108,0.009 0.0176,0.0137 0.11432,0.0786 0.4975,0.27034 0.375,0.20117 -0.19985,-0.11291 -0.30904,-0.17039 -0.39258,-0.21485 z" />
        <path
           id="rect18631"
           style="fill:#ffffff;fill-rule:evenodd;stroke-width:0.75961"
           transform="matrix(0.37632637,0,0,0.44671133,52.617979,55.356827)"
           d="m 174.72461,57.287109 -0.0156,0.01563 c 0.001,-1.83e-4 0.004,0 0.006,0 0.001,-0.0012 0.003,-0.0027 0.004,-0.0039 0.002,-0.0041 0.003,-0.0079 0.006,-0.01172 z m -0.0566,0.05664 v 0.002 l -0.19922,0.203125 c 0.004,-0.0024 0.009,-0.0056 0.0137,-0.0078 0.004,-0.0047 0.009,-0.0093 0.0176,-0.01758 0.0129,-0.01273 0.0245,-0.01906 0.0352,-0.01953 7e-4,-3.5e-5 0.003,-2.9e-5 0.004,0 0.0354,-0.04792 0.0702,-0.09603 0.11719,-0.136718 l 0.008,-0.002 c 0.004,-0.0088 0.006,-0.01604 0.008,-0.02148 z m -0.25977,0.267578 v 0.002 l -0.004,0.002 h -0.002 l -0.008,0.0098 c 0.006,-0.003 0.0102,-0.0072 0.0156,-0.0098 1.2e-4,-0.0018 -3.2e-4,-0.0021 0,-0.0039 z m -0.0566,0.05664 -0.0449,0.04492 c 0.0158,-0.01244 0.0323,-0.02225 0.0469,-0.03125 10e-4,-0.0012 0.002,-0.0014 0.004,-0.002 1.4e-4,-0.0069 0.001,-0.01136 -0.006,-0.01172 z m -0.16015,0.162109 -1.11719,1.138672 v 0.002 h -0.002 l -0.01,0.01172 h -0.002 l -0.002,0.002 -0.004,0.0039 -0.043,0.04492 -0.0644,0.06445 h 0.008 l 0.002,-0.002 0.002,-0.002 0.002,-0.002 0.01,-0.0039 c 0.002,-0.0053 0.002,-0.01089 0.006,-0.01563 0.001,-0.0018 0.008,-0.0021 0.01,-0.0039 5.3e-4,-0.0012 -0.002,-0.0041 0.002,-0.0059 0.006,-0.0053 0.0103,-0.01219 0.0156,-0.01758 h 0.002 c 0.006,-0.0047 -7.4e-4,-0.01586 0.0117,-0.01563 0.008,-0.0076 0.0147,-0.01658 0.0234,-0.02344 0.003,-0.0018 0.007,-0.0041 0.01,-0.0059 l 0.0117,-0.0059 c 0,-0.0024 0.01,-0.005 0.0117,-0.0078 0.004,-0.0059 0.004,-0.01129 0.006,-0.01563 0.0212,-0.01583 0.0432,-0.02268 0.0684,-0.02539 0.002,-0.003 0.0107,-0.008 0.0117,-0.0098 0.009,-0.0092 0.0187,-0.01799 0.0293,-0.02539 0.0104,-0.0069 0.0216,-0.01248 0.0332,-0.01758 0.003,-0.003 0.009,-0.005 0.0117,-0.0078 0.006,-0.01605 0.0128,-0.03469 -0.0117,-0.02148 -0.001,0.0012 -0.01,1.58e-4 -0.0117,0.002 v -0.002 c 0.0103,-0.01108 0.0187,-0.02047 0.0293,-0.03125 0.0141,-0.01522 0.0317,-0.03142 0.0449,-0.04687 0.016,-0.01747 0.008,-0.009 0.0215,-0.02539 0.003,-0.0024 0.01,-0.0037 0.0117,-0.0059 0.006,-0.0041 0.008,-0.0096 0.0137,-0.01367 0.003,-0.0012 0.0107,-0.0053 0.0117,-0.0059 0.0154,-0.0084 0.0316,-0.01858 0.0449,-0.0293 0.008,-0.0069 0.0135,-0.01438 0.0215,-0.02148 0.008,-0.0075 0.0142,-0.01409 0.0215,-0.02148 0.008,-0.0074 0.0136,-0.01455 0.0215,-0.02148 0.0242,-0.02038 0.05,-0.04041 0.0781,-0.05664 h -0.008 c 0.0108,-0.0063 0.0201,-0.01053 0.0293,-0.01172 0.003,-3.74e-4 0.009,-7.7e-5 0.0117,0 0.0257,-0.04359 0.0703,-0.102276 0.0879,-0.123047 0.051,-0.06222 0.11234,-0.118727 0.17383,-0.173828 -0.002,-0.0012 -0.01,-0.0021 -0.0117,-0.0039 -0.006,-0.0036 0.009,-0.0092 0.0117,-0.01367 0.01,-0.01244 0.0187,-0.02503 0.0293,-0.03711 0.0149,-0.01836 0.027,-0.03674 0.043,-0.05469 0.017,-0.01836 0.0322,-0.03656 0.0508,-0.05469 0.0306,-0.03175 0.0482,-0.05343 0.0918,-0.07227 0.004,-0.0018 0.009,-0.0027 0.0137,-0.0039 9.9e-4,-0.0053 -0.008,-0.007 -0.004,-0.01367 0.0151,-0.01854 0.031,-0.03355 0.0469,-0.05078 0.006,-0.006 0.0107,-0.0104 0.0156,-0.01563 v -0.002 l 0.0117,-0.0078 h 0.004 l 0.0117,-0.0078 c 0.008,-0.0082 0.0124,-0.01574 0.0215,-0.02344 0.01,-0.0095 0.0173,-0.02426 0.0332,-0.02539 4.7e-4,-4.2e-5 0.004,0 0.006,0 -7.8e-4,-0.007 -6.7e-4,-0.0144 0,-0.02148 1.8e-4,-0.0019 -4.3e-4,-0.004 0,-0.0059 0.004,-0.0085 0.006,-0.01976 0.0117,-0.03125 z m 0.01,0.03711 c 0.003,0.0018 0.005,0.0035 0.008,0.0059 v -0.002 c -0.003,-0.0018 -0.005,-0.0021 -0.008,-0.0039 z m -0.77344,0.99414 c -0.004,0.003 -0.007,0.0067 -0.0117,0.0098 0.004,-0.0024 0.008,-0.005 0.0117,-0.0078 z m -0.49023,0.246094 -0.35742,0.363281 c 0.007,-0.0041 0.0149,-0.0095 0.0215,-0.01367 0.006,-0.003 0.0103,-0.0071 0.0156,-0.0098 0.003,-0.0012 0.005,-1.71e-4 0.008,-0.002 h 0.002 c 0.003,-0.0012 0.006,-0.0027 0.008,-0.0039 h 0.002 c 0.003,-0.003 0.006,-0.0073 0.0117,-0.0098 0.006,-0.003 0.0103,-0.0056 0.0156,-0.0078 5.8e-4,-2.72e-4 0.003,0 0.004,0 0.005,-0.003 0.0107,-0.0047 0.0117,-0.0059 h 0.002 c 0.006,-0.01019 0.004,-0.005 0.0137,-0.01758 0.008,-0.0047 0.0104,-0.01391 0.0156,-0.01953 0.003,-0.0036 0.002,-0.0021 0.004,-0.0039 1.2e-4,-1.78e-4 0.0107,-0.0033 0.0117,-0.0039 0.001,-0.0024 0.0125,-0.0063 0.0117,-0.0059 9.9e-4,-0.0018 0.002,-0.0044 0.006,-0.0078 0.003,-0.0036 0.005,-0.0062 0.008,-0.0098 0,-0.0018 0.006,-0.0056 0.008,-0.0078 0.006,-0.0067 0.0135,-0.01325 0.0215,-0.01953 0.006,-0.0053 0.008,-0.01024 0.0137,-0.01563 v -0.002 c 7e-4,-0.0012 0.005,-0.0038 0.008,-0.0078 0.003,-0.0036 0.005,-0.0066 0.008,-0.0098 0.0106,-0.0084 0.0146,-0.01272 0.0254,-0.02344 l 0.002,-0.002 c 7e-4,-0.0012 4e-4,-0.0043 0.002,-0.0059 0.006,-0.0098 0.006,-0.01408 0.0137,-0.02148 0.006,-0.0036 0.007,-0.0064 0.01,-0.0098 0.003,-0.0012 0.0107,-0.0068 0.0117,-0.0078 0.006,-0.0036 0.004,-0.0053 0.01,-0.0098 0.008,-0.0074 0.0135,-0.01603 0.0215,-0.02344 10e-4,-5.93e-4 0.0107,-0.0072 0.0117,-0.0078 h 0.002 l 0.002,-0.0078 c 0.003,-0.0024 0.0168,-0.01675 0.0176,-0.01758 0.01,-0.009 0.0197,-0.01627 0.0274,-0.02539 v -0.0078 l 0.004,-0.0059 z m -0.39844,0.404297 -0.002,0.002 c 0.004,0.01262 0.008,0.03041 0.0117,0.04492 -0.007,-0.0133 -0.0136,-0.02212 -0.0176,-0.02734 h -0.0117 l -0.16797,0.171875 c 0.002,-0.0012 0.005,-0.0047 0.008,-0.0059 0.003,-5.93e-4 0.004,-0.002 0.006,-0.002 6.9e-4,-5.79e-4 0.01,-0.0035 0.0117,-0.0059 0.0101,-0.0098 0.022,-0.01609 0.0352,-0.02148 0.006,-0.0036 0.009,-0.009 0.0156,-0.01172 0.003,-0.0018 0.008,-0.0027 0.01,-0.0039 7e-4,-0.0047 0.008,-0.0092 0.0117,-0.01367 0.006,-0.0088 0.0149,-0.01603 0.0254,-0.02344 0.0247,-0.01872 0.0519,-0.0355 0.0781,-0.05273 -10e-4,-0.002 -5.2e-4,-0.0021 -0.002,-0.0039 v -0.002 -0.002 c -0.002,-0.0087 -0.004,-0.02307 -0.0117,-0.04297 z m -0.24023,0.24414 -0.0195,0.02148 0.008,-0.0059 c 0.003,-0.0018 0.004,-0.0041 0.006,-0.0059 7e-4,-5.92e-4 0.009,-1.58e-4 0.01,-0.002 5.7e-4,-0.0018 -4e-5,-0.0056 0.002,-0.0078 z m -0.0234,0.02539 -0.002,0.002 -0.002,0.002 -0.002,0.002 h -0.002 v 0.002 l -0.33789,0.341797 c 0.001,-5.92e-4 0.002,0.0018 0.004,0 l 0.002,-0.002 0.002,-0.002 c 8.4e-4,-1.46e-4 0.005,-0.0014 0.006,-0.002 h 0.002 c 0.003,-0.0024 0.004,-0.0054 0.0137,-0.01172 0.006,-0.0047 0.0122,-0.0092 0.0176,-0.01367 0.008,-0.0047 0.0155,-0.009 0.0234,-0.01367 0.004,-0.003 0.009,-0.0066 0.0137,-0.0098 7e-4,-0.0041 0.004,-0.01059 0.006,-0.01367 0.001,-0.0018 0.0107,-0.0021 0.0117,-0.0039 0,-0.0036 0.01,-0.0064 0.0117,-0.0098 0.0112,-0.01344 0.0238,-0.02716 0.0371,-0.03906 0.0106,-0.0065 0.0155,-0.01124 0.0234,-0.01367 0.003,-0.0012 0.008,-0.0014 0.0117,-0.002 0.002,-0.0018 0.009,-0.0041 0.01,-0.0059 0.003,-0.0012 0.01,4.35e-4 0.0117,-0.002 0.006,-0.007 0.006,-0.01716 0.0137,-0.02344 0.008,-0.01007 0.009,-0.0099 0.0195,-0.01953 0.003,-0.003 0.009,-0.0086 0.0117,-0.01172 0.006,-0.0063 0.01,-0.01195 0.0176,-0.01758 h 0.004 c 0.003,-0.0018 0.01,-0.0062 0.0117,-0.0078 0.008,-0.0086 0.0132,-0.01781 0.0234,-0.02539 0.006,-0.0078 0.004,-0.0076 0.0117,-0.01563 0.003,-0.0036 0.01,-0.01342 0.0117,-0.01563 0.003,-0.003 0.008,-0.0056 0.01,-0.0078 v -0.002 c 4.9e-4,-5.93e-4 -7.5e-4,-0.0068 0.002,-0.0078 0.006,-0.01356 0.0128,-0.02526 0.0234,-0.03711 7e-4,-0.0012 0.007,-0.0033 0.008,-0.0039 9.9e-4,-2.25e-4 -5e-4,0.0045 0,0.0039 0.003,-0.0036 0.006,-0.0083 0.008,-0.01172 v -0.002 z m -0.84961,0.863281 -0.0137,0.01172 c 0.002,1.01e-4 0.004,-2.01e-4 0.006,0 l 0.002,-0.002 0.002,-0.002 c 0.004,-0.006 0.01,-0.006 0.0117,-0.0078 z m -1.25781,1.279297 -0.0547,0.05664 c 7e-4,-5.39e-4 0.003,4.34e-4 0.004,-0.002 0.004,-0.003 0.008,-0.0056 0.0117,-0.0078 l 0.002,-0.002 c 4.6e-4,-3.55e-4 0.003,-0.0014 0.004,-0.002 10e-4,-0.0012 0.004,-0.0027 0.006,-0.0039 h 0.008 l 0.002,-0.002 c 0.004,-0.003 0.007,-0.0065 0.0117,-0.0098 4.5e-4,-0.0018 -8e-4,-0.0041 0.002,-0.0059 0.005,-0.01498 0.008,-0.01728 0.0117,-0.02148 z m -0.94727,0.960938 -0.0176,0.01758 c 0.003,-0.0012 0.005,-0.0033 0.008,-0.0039 0.004,-0.0041 0.008,-0.009 0.0117,-0.01367 z m -1.74804,1.78125 -0.14454,0.148437 c 0.009,-0.0069 0.0162,-0.01467 0.0254,-0.02148 0.0125,-0.01001 0.0258,-0.01964 0.0391,-0.0293 l 0.002,-0.002 c 0.001,-0.0036 0.002,-0.0019 0.004,-0.0059 0.024,-0.02582 0.0463,-0.05227 0.0703,-0.07813 0.001,-0.0041 0.002,-0.0079 0.004,-0.01172 z m -0.0156,0.04883 c -9.4e-4,0.0016 -0.003,0.0024 -0.004,0.0039 -0.008,0.01694 -0.0123,0.04714 -0.0156,0.06641 0.007,-0.02338 0.0127,-0.04681 0.0195,-0.07031 z m -0.0703,0.07227 c -0.004,0.0053 -0.009,0.01166 -0.0117,0.01758 -0.007,0.01481 -0.0514,0.165707 0.0117,-0.01758 z m -0.87695,0.859375 c -0.004,0.0041 -0.007,0.0072 -0.0117,0.01172 -7.1e-4,0.0012 -7.1e-4,0.0045 0,0.0039 0.005,-0.0053 0.007,-0.01028 0.0117,-0.01563 z m -4.16211,4.234375 -0.006,0.0059 c 0.004,0.0041 0.008,0.0079 0.0117,0.01172 0.002,-0.0012 0.004,-0.0021 0.006,-0.0039 0.003,-0.0018 0.006,-0.0041 0.008,-0.0059 -0.006,-0.003 -0.0138,-0.005 -0.0195,-0.0078 z m -5.58594,5.900391 c 0.008,0.0014 0.016,0.005 0.0332,0.002 0.002,-3.37e-4 0.002,-1.57e-4 0.004,-0.002 -0.0122,3.14e-4 -0.0249,-1.42e-4 -0.0371,0 z m -6.58594,6.546875 c -0.0144,0.01493 -0.0286,0.02804 -0.043,0.04297 -0.0232,0.05804 -0.0456,0.117624 -0.0684,0.175781 0.0522,-0.09724 0.0853,-0.162944 0.11133,-0.21875 z m -0.0977,0.09961 c -0.99883,1.03856 -2.04027,2.10912 -2.94531,3.076172 0.008,-0.006 0.0147,-0.01379 0.0234,-0.01953 0.0297,-0.01966 0.0605,-0.0368 0.0918,-0.05469 0.0848,-0.08524 -0.0971,0.0844 0.14843,-0.148438 0.0916,-0.07048 0.13784,-0.104581 0.18164,-0.136719 0.0219,-0.03571 0.039,-0.06132 0.0684,-0.109375 0.0343,-0.05615 0.0991,-0.0946 0.1504,-0.140625 0.006,-0.0041 0.0183,-0.01268 0.0156,-0.0078 0.0817,-0.130091 0.0666,-0.129581 0.26562,-0.306641 0.0553,-0.08331 0.11687,-0.168791 0.15821,-0.201172 0.0154,-0.01202 0.0327,-0.0239 0.0488,-0.03516 0.0894,-0.116593 0.18304,-0.234824 0.3164,-0.316406 0.11905,-0.09686 0.10667,-0.08982 0.21875,-0.173828 0.001,-0.0024 0.002,-0.0056 0.004,-0.0078 0.0794,-0.146237 0.21084,-0.276095 0.35742,-0.380859 0.033,-0.04336 0.0649,-0.08546 0.0977,-0.128906 0.001,-0.0018 0.004,-0.0021 0.006,-0.0039 0.006,-0.0066 0.004,-0.0051 0.0117,-0.01367 0.007,-0.0062 0.0127,-0.01337 0.0195,-0.01953 0.006,-0.01149 0.0128,-0.02384 0.0195,-0.03516 0.021,-0.03494 0.0496,-0.06495 0.0762,-0.09766 0.0115,-0.01587 0.0349,-0.04715 0.0586,-0.07227 0.0858,-0.09062 0.18256,-0.197279 0.29883,-0.267578 h 0.002 c 0.0842,-0.108046 0.22737,-0.293994 0.16211,-0.1875 0.0204,-0.02209 0.0354,-0.04888 0.0586,-0.06836 0.0157,-0.03015 0.028,-0.05334 0.0234,-0.0332 -5.7e-4,0.003 -0.006,0.01823 -0.008,0.02344 10e-4,-5.92e-4 0.002,-0.0033 0.004,-0.0039 0.007,-0.0036 0.005,-0.0022 0.004,0.002 0.0257,-0.06174 -0.004,0.0098 0.043,-0.103516 0.007,-0.0089 0.0147,-0.01846 0.0215,-0.02734 z m -2.26562,2.458985 c -0.0139,0.01883 -0.0178,0.02361 -0.0254,0.0332 -0.005,0.0125 -0.0117,0.02657 -0.0195,0.03906 0.0318,-0.04644 0.0275,-0.04462 0.0449,-0.07227 z m 2.20117,-2.326172 c -0.002,0.0041 -0.007,0.01028 -0.0137,0.01563 v 0.002 c -0.0416,0.117102 -0.12828,0.326172 0.0137,-0.01758 z m -0.0469,0.05664 c -0.003,0.003 -0.006,0.0073 -0.008,0.0098 -10e-4,0.0018 -10e-4,0.0059 0,0.0059 0.002,-0.0036 0.005,-0.01065 0.008,-0.01562 z m -0.20313,0.21875 c -0.0115,0.01279 -0.0271,0.02562 -0.0371,0.03906 -0.006,0.0086 -0.0236,0.03581 -0.0156,0.02734 0.006,-0.0079 0.0362,-0.04521 0.0527,-0.06641 z m -0.49609,0.558593 c -0.009,0.0135 -0.017,0.0255 -0.0254,0.03906 -0.01,0.01433 -0.024,0.05132 -0.0273,0.0625 0.0188,-0.03376 0.0358,-0.06706 0.0527,-0.101563 z m -0.59375,0.72461 c -0.34197,0.176627 -0.27594,0.12587 -0.31055,0.173828 0.10069,-0.06087 0.20919,-0.113592 0.31055,-0.173828 z m -3.31641,3.416015 c -0.002,0.0018 -0.004,0.0041 -0.006,0.0059 6.8e-4,0.0018 -0.001,0.0041 0,0.0059 10e-4,-0.0036 0.004,-0.0082 0.006,-0.01172 z m -0.66601,0.960938 c 5e-5,0.0012 -2.1e-4,0.0039 0,0.0039 h 0.002 c 4.2e-4,-0.0018 3.5e-4,-0.0021 0.002,-0.0039 h -0.002 z M 278.889,94.09766 c -0.034,0.154126 -0.0494,0.226324 -0.0801,0.365235 0.0411,-0.112358 0.0801,-0.22548 0.1211,-0.337891 z m -139.41406,2.548828 c 0.0158,0.01629 0.0535,0.05748 0.082,0.08789 -0.003,-0.007 -0.006,-0.01449 -0.01,-0.02148 -0.0281,-0.02505 -0.0518,-0.04651 -0.0723,-0.06641 z m 5.08984,3.552732 c -0.001,5.6e-4 -0.002,0.003 -0.004,0.004 0.004,5.1e-4 0.006,-8.7e-4 0.01,0 -0.002,-8.7e-4 -0.004,-0.003 -0.006,-0.004 z m 8.38477,6.00976 0.0254,0.0176 c -0.002,-0.004 -0.004,-0.006 -0.006,-0.01 -0.002,-0.002 -0.004,-0.006 -0.006,-0.008 -0.004,-3.9e-4 -0.009,0.001 -0.0137,0 z" />
        <ellipse
           style="fill:#ffffff;fill-opacity:1;stroke-width:0.353135;stroke-linejoin:round"
           id="path18833"
           cx="100.99606"
           cy="73.827164"
           rx="5.6479578"
           ry="5.9116225" />
        <ellipse
           style="fill:#000000;fill-opacity:1;stroke-width:0.353135;stroke-linejoin:round"
           id="path18835"
           cx="103.82875"
           cy="76.588699"
           rx="1.8719617"
           ry="2.328588" />
        <path
           id="path38994"
           style="fill:#000000;fill-opacity:1;fill-rule:evenodd;stroke-width:0.861283;stroke-linejoin:round"
           transform="matrix(0.37632637,0,0,0.44671133,52.617979,55.356827)"
           d="m 157.94727,99.035156 a 6.2402023,6.0189579 0 0 0 -0.10352,0.02734 c -0.01,0.0089 -0.0215,0.01876 -0.0312,0.02734 0.0491,-0.02071 0.0896,-0.03595 0.13477,-0.05469 z m 0.37695,4.386724 c 0.0146,0.015 0.0302,0.0298 0.0449,0.0449 0.002,-0.0125 0.003,-0.0246 0.006,-0.0371 -0.017,-0.003 -0.0339,-0.005 -0.0508,-0.008 z m 7.62305,2.38476 c -0.001,5.9e-4 -0.003,6.5e-4 -0.004,0.002 l 0.002,0.002 a 6.2402023,6.0189579 0 0 0 0.002,-0.004 z m -9.88672,1.19922 c -0.0385,0.009 -0.0759,0.0183 -0.0781,0.0215 0.008,0.003 0.052,0.007 0.0996,0.01 -0.003,-0.005 -0.007,-0.009 -0.01,-0.0137 -0.004,-0.006 -0.008,-0.0116 -0.0117,-0.0176 z m -0.89453,0.77148 c 0.002,0.007 0.004,0.0124 0.006,0.0195 -0.003,-0.004 -0.0107,-0.0119 -0.0137,-0.0156 h -0.002 c 0.007,0.0142 0.0169,0.0261 0.0254,0.0391 10e-4,-0.001 0.003,-0.003 0.004,-0.004 -0.007,-0.013 -0.0132,-0.0261 -0.0195,-0.0391 z m 1.1289,0.0703 c 0.017,0.0192 0.0211,0.0236 0.0449,0.0508 0.0438,0.0545 0.095,0.091 0.14649,0.1289 -0.003,-0.003 -0.006,-0.007 -0.01,-0.01 -0.0629,-0.0543 -0.12237,-0.11171 -0.18164,-0.16992 z m 1.03125,0.34765 c -10e-4,-2.1e-4 -10e-4,0.004 0,0.004 0.006,10e-4 0.008,0.003 0.0137,0.004 -9.5e-4,-9.7e-4 -8.4e-4,-0.003 -0.002,-0.004 -0.004,-0.001 -0.008,-0.003 -0.0117,-0.004 z m -1.29297,0.96094 c 0.008,0.005 0.0154,0.011 0.0234,0.0156 -0.003,-0.003 -0.007,-0.006 -0.01,-0.01 -0.01,-0.004 -0.0189,-0.01 -0.0137,-0.006 z m 0.0957,0.0723 c 0.0127,0.007 0.0265,0.0118 0.041,0.0156 -0.007,-0.004 -0.013,-0.008 -0.0195,-0.0117 h -0.002 c -0.005,-6.1e-4 -0.0149,-0.003 -0.0195,-0.004 z m 0.15429,0.0742 c 0.0129,0.007 0.0276,0.0146 0.0918,0.0488 0.0121,0.007 0.0211,0.0166 0.0332,0.0234 0.0182,0.0101 0.0378,0.0186 0.0566,0.0273 -0.0396,-0.0271 -0.0608,-0.0519 -0.10546,-0.0723 -0.0248,-0.0114 -0.0504,-0.0182 -0.0762,-0.0273 z m 0.2793,0.17383 0.002,0.002 c 0.002,7.6e-4 0.0174,0.003 0.0371,0.008 -0.006,-0.004 -0.0113,-0.006 -0.0176,-0.01 -0.009,-8.3e-4 -0.0179,-3.3e-4 -0.0215,0 z m 4.07031,1.22266 c 0.001,0.005 0.003,0.007 0.004,0.0117 a 6.2402023,6.0189579 0 0 0 0.01,0 c -0.004,-0.004 -0.009,-0.008 -0.0137,-0.0117 z" />
        <ellipse
           style="fill:#000000;fill-opacity:1;fill-rule:evenodd;stroke-width:0.353135;stroke-linejoin:round"
           id="path38994-0"
           cx="134.58102"
           cy="126.96409"
           rx="2.3483527"
           ry="2.6887367" />
        <ellipse
           style="fill:#000000;fill-opacity:1;fill-rule:evenodd;stroke-width:0.353135;stroke-linejoin:round"
           id="path38994-3"
           cx="146.63554"
           cy="127.24612"
           rx="2.3483527"
           ry="2.6887367" />
      </g>
    </g>
  </g>
</svg>
